<?xml version="1.0" standalone="no"?>
<!DOCTYPE svg PUBLIC "-//W3C//DTD SVG 1.1//EN" "http://www.w3.org/Graphics/SVG/1.1/DTD/svg11.dtd" >
<svg xmlns="http://www.w3.org/2000/svg" xmlns:xlink="http://www.w3.org/1999/xlink" version="1.1">
<metadata>
Created by FontForge 20170731 at Thu Mar  2 18:24:19 2023
 By Aleksey,,,
Copyright (c) 2015 by Jeremy Dooley. All rights reserved.
</metadata>
<defs>
<font id="Haboro-NorBoo" horiz-adv-x="1165" >
  <font-face 
    font-family="Haboro Norm Book"
    font-weight="400"
    font-stretch="normal"
    units-per-em="2048"
    panose-1="2 0 5 3 7 0 0 2 0 4"
    ascent="1638"
    descent="-410"
    x-height="979"
    cap-height="1434"
    bbox="-246 -612 2781 2030"
    underline-thickness="102"
    underline-position="-307"
    unicode-range="U+000D-FB02"
  />
<missing-glyph horiz-adv-x="546" 
 />
    <glyph glyph-name="fi" unicode="fi" horiz-adv-x="1216" 
d="M631 1487q-126 0 -198.5 -103.5t-72.5 -322.5v-82h572v-909l125 -41v-29h-404v27l125 43v839l-41 17h-377v-856l166 -41v-29h-442v27l125 43v856h-125v53h125v78q0 228 111.5 353.5t310.5 125.5q142 0 217.5 -66.5t75.5 -166.5q0 -109 -86 -109q-37 0 -59.5 22.5
t-22.5 59.5q0 31 25.5 58t25.5 50q0 43 -49.5 73t-126.5 30z" />
    <glyph glyph-name="fl" unicode="fl" horiz-adv-x="1185" 
d="M590 1491q-107 0 -168.5 -90t-61.5 -271v-147h222v-53h-222v-860l125 -41v-29h-401v27l125 43v860h-125v53h125v111q0 213 98 327.5t283 114.5q112 0 182 -45v45h154v-1466l125 -41v-29h-404v27l125 43v1087h-12q-44 0 -60 6q70 51 70 148q0 74 -43.5 127t-136.5 53z" />
    <glyph glyph-name="f_j" unicode="fj" horiz-adv-x="1216" 
d="M631 1487q-126 0 -198.5 -103.5t-72.5 -322.5v-82h574v-989q0 -124 -23 -212t-66.5 -137.5t-97.5 -71.5t-124 -22q-96 0 -163 38.5t-67 117.5q0 61 36.5 98t98.5 37q37 0 64 -16q-76 -37 -76 -123q0 -41 27.5 -75t79.5 -34q38 0 64.5 16t48.5 57t33 119.5t11 194.5v932
l-41 17h-379v-856l166 -41v-29h-442v27l125 43v856h-125v53h125v78q0 228 111.5 353.5t310.5 125.5q142 0 217.5 -66.5t75.5 -166.5q0 -109 -86 -109q-37 0 -59.5 22.5t-22.5 59.5q0 31 25.5 58t25.5 50q0 43 -49.5 73t-126.5 30z" />
    <glyph glyph-name=".notdef" horiz-adv-x="546" 
 />
    <glyph glyph-name=".null" horiz-adv-x="0" 
 />
    <glyph glyph-name="nonmarkingreturn" horiz-adv-x="682" 
 />
    <glyph glyph-name="NULL" horiz-adv-x="0" 
 />
    <glyph glyph-name="NULL" horiz-adv-x="0" 
 />
    <glyph glyph-name="CR" unicode="&#xd;" horiz-adv-x="546" 
 />
    <glyph glyph-name="space" unicode=" " horiz-adv-x="546" 
 />
    <glyph glyph-name="exclam" unicode="!" horiz-adv-x="577" 
d="M309 299h-41q0 201 -43 569t-43 451q0 60 27.5 97.5t79.5 37.5q106 0 106 -135q0 -79 -43 -447.5t-43 -572.5zM178 86q0 -46 29.5 -76t81.5 -30t81 30t29 76q0 48 -29 80.5t-81 32.5t-81.5 -32.5t-29.5 -80.5z" />
    <glyph glyph-name="quotedbl" unicode="&#x22;" horiz-adv-x="786" 
d="M205 981l-72 514h184l-67 -514h-45zM539 981l-72 514h184l-67 -514h-45z" />
    <glyph glyph-name="numbersign" unicode="#" horiz-adv-x="1357" 
d="M1280 928h-299l-145 -424h303v-58h-322l-153 -446h-70l154 446h-320l-154 -446h-69l153 446h-286v58h305l145 424h-278v59h299l155 451h70l-156 -451h320l155 451h70l-156 -451h279v-59zM592 928l-146 -424h320l145 424h-319z" />
    <glyph glyph-name="dollar" unicode="$" 
d="M715 1622l-4 -184q51 -13 95 -37.5t70.5 -41t43.5 -16.5q41 0 53 84h26v-454h-32q-18 171 -86 272t-170 137l-11 -598q44 -20 75 -35.5t70.5 -39t66.5 -46.5t55 -54.5t44.5 -66t27 -79.5t10.5 -96q0 -172 -101 -267t-262 -114l-2 -174h-59l2 168h-25q-27 0 -39 2l-2 -170
h-59l2 176q-60 9 -112.5 30.5t-80.5 41.5t-53 35.5t-39 15.5q-39 0 -61 -117h-31v508h27q42 -207 134 -319t218 -142l10 645q-54 25 -89.5 43t-81 46t-74 57t-55.5 67t-39.5 85t-12.5 103q0 157 99.5 251.5t262.5 109.5l4 174h62l-4 -170q23 0 63 -4l2 174h62zM901 301
q0 103 -53.5 172.5t-151.5 124.5l-8 -559q102 21 157.5 92t55.5 170zM311 1143q0 -98 54 -162.5t153 -114.5l8 531q-100 -18 -157.5 -88.5t-57.5 -165.5zM637 629l-62 30l-10 -626q12 -2 37 -2h27zM588 1403l-10 -567q45 -18 63 -27l8 590q-40 4 -61 4z" />
    <glyph glyph-name="percent" unicode="%" horiz-adv-x="1961" 
d="M588 0h-70l825 1417h70zM764 1114q0 -151 -97 -256.5t-247 -105.5q-152 0 -251 105.5t-99 256.5q0 140 99 241t251 101q149 0 246.5 -101t97.5 -241zM199 1114q0 -38 3 -71.5t15.5 -82t35 -83t65.5 -59.5t102 -25q217 0 217 321q0 29 -2 54.5t-8.5 64t-21.5 68.5
t-37.5 58.5t-60.5 44t-87 15.5q-59 0 -102 -24t-65.5 -56.5t-35 -79t-15.5 -78.5t-3 -67zM1890 342q0 -151 -97 -256.5t-247 -105.5q-152 0 -251 105.5t-99 256.5q0 140 99 241t251 101q149 0 246.5 -101t97.5 -241zM1325 342q0 -30 2 -57.5t9 -68t22.5 -72.5t38 -61.5
t61.5 -46t88 -16.5q42 0 76.5 13t56.5 33.5t38.5 50.5t25 57.5t13.5 62t6 57t1 48.5q0 29 -2 54.5t-8.5 64t-21.5 68.5t-37.5 58.5t-60.5 44t-87 15.5q-59 0 -102 -24t-65.5 -56.5t-35 -79t-15.5 -78.5t-3 -67z" />
    <glyph glyph-name="ampersand" unicode="&#x26;" horiz-adv-x="1468" 
d="M1094 395q0 -415 -488 -415q-229 0 -360 107t-131 306q0 93 29.5 165.5t79.5 117t107.5 69.5t121.5 33q-117 15 -192 99.5t-75 214.5q0 162 121.5 261t347.5 99q206 0 312 -77.5t106 -203.5q0 -78 -41 -122.5t-117 -44.5q-26 0 -77 14q73 67 73 170q0 41 -12.5 76.5
t-40.5 68t-81 51.5t-126 19q-134 0 -209 -80.5t-75 -224.5q0 -299 323 -299h701v-275h-33q-20 69 -35.5 105.5t-44 67.5t-71 42t-109.5 11h-4v-355zM690 750q-103 0 -173 -17t-120.5 -57t-74 -109t-23.5 -172q0 -193 78 -279.5t229 -86.5q159 0 241.5 87t82.5 279v355h-240z
" />
    <glyph glyph-name="quotesingle" unicode="'" horiz-adv-x="452" 
d="M205 981l-72 514h184l-67 -514h-45z" />
    <glyph glyph-name="parenleft" unicode="(" horiz-adv-x="667" 
d="M289 653q0 -112 13.5 -212.5t48 -216.5t106 -225.5t176.5 -201.5l-27 -33q-227 106 -362 331t-135 558q0 313 138 549.5t359 339.5l27 -33q-105 -92 -176.5 -201.5t-106 -225.5t-48 -216.5t-13.5 -212.5z" />
    <glyph glyph-name="parenright" unicode=")" horiz-adv-x="667" 
d="M379 653q0 112 -13.5 212.5t-48 216.5t-106 225.5t-176.5 201.5l26 33q221 -103 359.5 -339.5t138.5 -549.5q0 -333 -135.5 -558t-362.5 -331l-26 33q105 92 176.5 201.5t106 225.5t48 216.5t13.5 212.5z" />
    <glyph glyph-name="asterisk" unicode="*" horiz-adv-x="1001" 
d="M154 975l321 133l-321 133l59 100l274 -213l-43 347h115l-45 -345l277 211l57 -100l-324 -133l324 -133l-57 -103l-277 211l45 -342h-115l43 344l-274 -213z" />
    <glyph glyph-name="plus" unicode="+" horiz-adv-x="991" 
d="M524 1122v-356h359v-59h-359v-359h-59v359h-356v59h356v356h59z" />
    <glyph glyph-name="comma" unicode="," horiz-adv-x="522" 
d="M152 88q0 46 29.5 76.5t72.5 30.5q54 0 85.5 -35t31.5 -107q0 -96 -62.5 -181t-146.5 -146l-17 24q59 51 97.5 118.5t50.5 135.5q-15 -24 -57 -24q-38 0 -61 27t-23 81z" />
    <glyph glyph-name="hyphen" unicode="-" horiz-adv-x="915" 
d="M764 584h-612v59h612v-59z" />
    <glyph glyph-name="period" unicode="." horiz-adv-x="518" 
d="M147 86q0 48 29.5 80.5t81.5 32.5q53 0 83 -32.5t30 -80.5q0 -46 -29.5 -76t-83.5 -30q-52 0 -81.5 30t-29.5 76z" />
    <glyph glyph-name="slash" unicode="/" horiz-adv-x="1007" 
d="M125 -123h-70l826 1639h69z" />
    <glyph glyph-name="zero" unicode="0" horiz-adv-x="1306" 
d="M1188 725q0 -146 -36.5 -280t-103.5 -237.5t-169.5 -165.5t-225.5 -62t-225.5 62t-169 165.5t-103 237.5t-36.5 280q0 144 36.5 274.5t103 231.5t169 161t225.5 60t225.5 -60t169.5 -161t103.5 -231.5t36.5 -274.5zM305 725q0 -70 5 -137t16.5 -136.5t29.5 -129.5
t46 -113.5t63 -91.5t83 -60t105 -22q97 0 168 62t108.5 166.5t54.5 219t17 242.5q0 99 -10 189.5t-34.5 180.5t-63 155.5t-100 106t-140.5 40.5q-97 0 -168 -59.5t-108.5 -161t-54.5 -213t-17 -238.5z" />
    <glyph glyph-name="one" unicode="1" horiz-adv-x="686" 
d="M86 1294l-6 35l313 123h41v-1382l203 -41v-29h-569v27l202 43v1265z" />
    <glyph glyph-name="two" unicode="2" horiz-adv-x="1148" 
d="M563 1452q195 0 316.5 -103.5t121.5 -295.5q0 -83 -26 -150t-72 -113.5t-102.5 -84.5t-125 -72t-132.5 -65.5t-131 -76t-115 -94.5q-38 -39 -55 -59t-39 -56t-32.5 -80t-14.5 -106q29 65 88.5 103.5t140.5 38.5q62 0 132.5 -19t123 -41.5t114 -41.5t107.5 -19
q60 0 89.5 33.5t29.5 74.5q0 31 -25 94l27 13q28 -44 40.5 -81t12.5 -87q0 -35 -11 -67.5t-34.5 -61t-66 -45.5t-99.5 -17q-67 0 -136.5 21.5t-120 47.5t-124.5 47.5t-149 21.5q-71 0 -105 -35t-36 -96h-35q-10 52 -10 102q0 96 25 176.5t67.5 138t98 106.5t116.5 89
t121.5 79t116 83t98 94t67.5 119t25 151q0 133 -67.5 209t-213.5 76q-145 0 -211.5 -75.5t-66.5 -205.5q0 -139 100 -211q-20 -10 -57 -10q-80 0 -133.5 55.5t-53.5 165.5q0 147 116.5 238.5t305.5 91.5z" />
    <glyph glyph-name="three" unicode="3" horiz-adv-x="1150" 
d="M547 1452q101 0 180.5 -27.5t128 -75t73.5 -108.5t25 -131q0 -135 -72.5 -222t-195.5 -106q52 -7 98 -21t93.5 -44t81.5 -71.5t55.5 -107t21.5 -147.5q0 -207 -129.5 -309t-357.5 -102q-217 0 -332 79.5t-115 219.5q0 94 50.5 148t136.5 54q32 0 59 -8q-78 -74 -78 -197
q0 -115 71 -181t208 -66q147 0 226 91.5t79 274.5q0 192 -87 273.5t-278 81.5h-67v49h67q151 0 221 76t70 239q0 146 -56.5 217.5t-178.5 71.5q-121 0 -179.5 -62.5t-58.5 -158.5q0 -56 18.5 -95t65.5 -77q-35 -13 -74 -13q-75 0 -120 46t-45 122q0 123 103.5 205t291.5 82z
" />
    <glyph glyph-name="four" unicode="4" horiz-adv-x="1046" 
d="M43 283v24l768 1147h31v-1106h192v-65h-192v-213l145 -41v-29h-473v27l162 43v213h-633zM145 348h531v795z" />
    <glyph glyph-name="five" unicode="5" horiz-adv-x="1112" 
d="M518 29q309 0 309 389q0 110 -23 186t-69.5 119t-107.5 61.5t-146 18.5q-141 0 -280 -49l53 680h18q18 -3 210.5 -40.5t273.5 -37.5q110 0 110 61q0 28 -32 80l18 16q55 -64 74.5 -103.5t19.5 -82.5q0 -125 -158 -125q-100 0 -263 40.5t-232 72.5l-39 -475q143 41 272 41
q80 0 149.5 -15t132 -49t106.5 -85t70 -129t26 -175q0 -220 -127.5 -334t-366.5 -114q-199 0 -313.5 76t-114.5 212q0 79 39.5 131t105.5 52q23 0 66 -11q-63 -71 -63 -168q0 -103 69.5 -173t212.5 -70z" />
    <glyph glyph-name="six" unicode="6" horiz-adv-x="1208" 
d="M655 1403q-64 0 -112.5 -16.5t-92.5 -61t-73 -119t-47.5 -193t-22.5 -280.5q76 76 157.5 111t182.5 35q68 0 130 -13.5t119.5 -46t100 -80.5t68 -121.5t25.5 -164.5q0 -215 -124.5 -344t-342.5 -129q-120 0 -209.5 35t-155.5 112.5t-99.5 209t-33.5 316.5q0 137 18.5 252
t49 196t73.5 144t89.5 101.5t100.5 63t101.5 33.5t97.5 9q168 0 272.5 -72.5t104.5 -199.5q0 -83 -37.5 -136t-109.5 -53q-31 0 -51 10q55 64 55 185q0 101 -56 159t-178 58zM305 618q0 -109 8 -193.5t29.5 -161.5t57 -127t93 -79.5t134.5 -29.5q68 0 120.5 28t82 70
t48.5 100t25 109.5t6 107.5q0 73 -13.5 137t-43 122t-86.5 92t-135 34q-99 0 -174 -36.5t-152 -118.5v-54z" />
    <glyph glyph-name="seven" unicode="7" horiz-adv-x="1009" 
d="M135 1110l-26 -14q-52 82 -52 161q0 82 51 138.5t162 56.5q62 0 127.5 -21.5t113.5 -47t118 -47t141 -21.5q37 0 62.5 9.5t41.5 31t24.5 41t19.5 53.5h32v-92q0 -117 -27 -214.5t-70 -168.5t-95 -137.5t-104.5 -139t-95.5 -155.5t-70 -204.5t-27 -268.5q0 -45 -24 -67.5
t-60 -22.5q-82 0 -82 86q0 117 19.5 216t52.5 171.5t76 135t91.5 113.5t97.5 99t95 100t83 109t63 133.5t34 165.5q-76 -123 -229 -123q-55 0 -120.5 21.5t-115.5 47t-110 47t-105 21.5q-60 0 -87 -36.5t-27 -88.5q0 -42 22 -88z" />
    <glyph glyph-name="eight" unicode="8" horiz-adv-x="1202" 
d="M1008 1120q0 -130 -67 -211.5t-185 -111.5q334 -61 334 -416q0 -200 -132.5 -300.5t-355.5 -100.5q-146 0 -254.5 42.5t-171.5 134t-63 224.5q0 355 336 416q-120 32 -187 113.5t-67 209.5q0 157 112.5 245.5t294.5 88.5t294 -88t112 -246zM293 381q0 -159 78 -256.5
t231 -97.5q152 0 229.5 97.5t77.5 256.5q0 109 -32 195t-102.5 140t-172.5 54q-103 0 -174 -54t-103 -140t-32 -195zM358 1120q0 -45 5.5 -84.5t22 -81.5t42.5 -71.5t71 -48.5t103 -19q72 0 122.5 27.5t75 75t34.5 96t10 106.5q0 43 -5.5 80t-21.5 76.5t-42 67t-70.5 45.5
t-102.5 18t-103 -18t-71 -45.5t-42.5 -67t-22 -77t-5.5 -79.5z" />
    <glyph glyph-name="nine" unicode="9" horiz-adv-x="1169" 
d="M528 29q110 0 179 56t108 192t45 366q-86 -49 -149.5 -69.5t-139.5 -20.5q-204 0 -324 106.5t-120 321.5q0 211 118 341t322 130q226 0 350.5 -172.5t124.5 -540.5q0 -164 -26 -293.5t-71.5 -216t-111 -143t-141 -81.5t-164.5 -25q-183 0 -282 68.5t-99 189.5
q0 76 39.5 126t104.5 50q28 0 65 -11q-45 -63 -45 -151q0 -44 10.5 -81.5t34.5 -70.5t68 -52t104 -19zM862 737q0 354 -67.5 511t-223.5 157q-76 0 -129 -33.5t-80.5 -94.5t-39 -131t-11.5 -159q0 -200 59 -293.5t203 -93.5q152 0 289 105v32z" />
    <glyph glyph-name="colon" unicode=":" horiz-adv-x="524" 
d="M152 86q0 48 29 80.5t81 32.5q53 0 83 -32.5t30 -80.5q0 -46 -29.5 -76t-83.5 -30q-52 0 -81 30t-29 76zM152 721q0 48 29 80.5t81 32.5q53 0 83 -32.5t30 -80.5q0 -46 -30 -76.5t-83 -30.5q-52 0 -81 30.5t-29 76.5z" />
    <glyph glyph-name="semicolon" unicode=";" horiz-adv-x="542" 
d="M164 721q0 48 29 80.5t81 32.5q53 0 83 -32.5t30 -80.5q0 -46 -30 -76.5t-83 -30.5q-52 0 -81 30.5t-29 76.5zM162 88q0 46 29.5 76.5t72.5 30.5q54 0 85.5 -35t31.5 -107q0 -96 -62.5 -181t-146.5 -146l-16 24q58 51 96.5 118.5t50.5 135.5q-15 -24 -57 -24
q-38 0 -61 27t-23 81z" />
    <glyph glyph-name="less" unicode="&#x3c;" horiz-adv-x="835" 
d="M86 700l473 621h172l-481 -621l481 -618h-172z" />
    <glyph glyph-name="equal" unicode="=" horiz-adv-x="1079" 
d="M928 891h-774v59h774v-59zM928 522h-774v60h774v-60z" />
    <glyph glyph-name="greater" unicode="&#x3e;" horiz-adv-x="835" 
d="M276 1321l474 -621l-474 -618h-172l482 618l-482 621h172z" />
    <glyph glyph-name="question" unicode="?" horiz-adv-x="1044" 
d="M526 1403v49q120 0 217.5 -37t160.5 -119.5t63 -199.5q0 -75 -25 -138t-65 -108.5t-88.5 -86t-97.5 -80t-89 -81t-65 -98.5t-25 -123q0 -42 4 -62h-72q-8 49 -8 101q0 72 20 132.5t52.5 104.5t71.5 85t78.5 82.5t72 86.5t52.5 108t20 138q0 246 -277 246zM383 86
q0 -46 29.5 -76t83.5 -30q52 0 81 30t29 76q0 48 -29.5 80.5t-80.5 32.5q-52 0 -82.5 -32.5t-30.5 -80.5zM526 1452v-49q-141 0 -215.5 -70t-74.5 -166q0 -60 11.5 -97t39.5 -85q-33 -10 -60 -10q-71 0 -113 53.5t-42 116.5q0 71 26.5 126t69.5 88.5t104 55t122.5 29.5
t131.5 8z" />
    <glyph glyph-name="at" unicode="@" horiz-adv-x="1533" 
d="M1427 791q0 -379 -294 -379q-145 0 -187 100q-89 -104 -241 -104q-137 0 -200 84t-63 225q0 51 7.5 94.5t27 85t49.5 71t78 47t109 17.5q107 0 213 -69v36l121 2v-356q0 -101 31.5 -142.5t90.5 -41.5q88 0 131 78t43 221q0 184 -64.5 327.5t-191 226.5t-296.5 83
q-268 0 -428 -193t-160 -514q0 -309 150 -482t423 -173q111 0 201.5 25t150.5 68t98.5 90t59.5 101l68 -43q-65 -121 -218.5 -208.5t-359.5 -87.5q-294 0 -477.5 193.5t-183.5 516.5q0 165 51.5 307t141 241.5t215 156.5t268.5 57q136 0 256 -54t202.5 -144.5t130 -211
t47.5 -251.5zM745 469q116 0 187 94q-6 35 -6 78v274q-89 66 -174 66q-57 0 -95.5 -21.5t-57.5 -60.5t-26.5 -80.5t-7.5 -93.5q0 -135 42.5 -195.5t137.5 -60.5z" />
    <glyph glyph-name="A" unicode="A" horiz-adv-x="1388" 
d="M1104 70l-146 352h-618l-133 -352l145 -41v-29h-372v27l145 43l539 1384h36l584 -1384l146 -43v-27h-472v29zM637 1206l-272 -719h567z" />
    <glyph glyph-name="B" unicode="B" horiz-adv-x="1347" 
d="M252 1364l-125 43v27h569q233 0 348 -94t115 -244q0 -140 -74.5 -219.5t-199.5 -104.5q53 -6 100 -19.5t94.5 -41.5t81 -68t55 -102.5t21.5 -141.5q0 -399 -541 -399h-569v27l125 43v1294zM678 741h-262v-682h274q187 0 278 77.5t91 260.5q0 187 -95 265.5t-286 78.5z
M674 1374h-258v-575h276q139 0 216 80.5t77 220.5q0 123 -83.5 198.5t-227.5 75.5z" />
    <glyph glyph-name="C" unicode="C" horiz-adv-x="1325" 
d="M768 -20q-207 0 -355.5 92.5t-223 255.5t-74.5 379q0 179 51.5 323t140.5 235t204.5 139t246.5 48q108 0 195 -30t139.5 -79.5t80 -109.5t27.5 -123q0 -110 -60 -174t-141 -64q-28 0 -53 11q96 83 96 225q0 136 -71.5 213.5t-212.5 77.5q-219 0 -335 -183.5t-116 -515.5
q0 -661 469 -661q333 0 484 260l40 -23q-28 -47 -58.5 -86t-77.5 -79.5t-101.5 -68t-130.5 -45t-164 -17.5z" />
    <glyph glyph-name="D" unicode="D" horiz-adv-x="1429" 
d="M252 1364l-125 43v27h455q179 0 319 -54t229.5 -151t136 -228t46.5 -288q0 -328 -189.5 -520.5t-541.5 -192.5h-455v27l125 43v1294zM567 1374h-151v-1317h151q127 0 224.5 31t161.5 86t105 138.5t58 182t17 222.5q0 123 -16.5 220t-56.5 180.5t-103.5 139t-161.5 86.5
t-228 31z" />
    <glyph glyph-name="E" unicode="E" horiz-adv-x="1234" 
d="M252 1364l-125 43v27h967v-328h-33q-18 75 -32 115.5t-33 75.5t-46.5 49.5t-65 22t-96.5 7.5h-372v-618l207 2q27 2 48 8t36 11.5t28 21.5t20.5 26t17 37t14.5 42.5t16 54.5h33v-459h-33q-31 110 -59 148t-105 48h-4l-219 2v-645h360q57 0 97 5t71 20.5t50 32.5
t35.5 52.5t26.5 68.5t25 92h33v-326h-987v27l125 43v1294z" />
    <glyph glyph-name="F" unicode="F" horiz-adv-x="1153" 
d="M127 27l125 43v1294l-125 43v27h958v-328h-32q-18 75 -32 115.5t-33 75.5t-46.5 49.5t-65 22t-96.5 7.5h-364v-618l217 2h4q30 3 52 8.5t39 20t26.5 25t21 39t17 46.5t18.5 62h33v-459h-33q-31 110 -59 148t-105 48h-2l-229 2v-630l125 -41v-29h-414v27z" />
    <glyph glyph-name="G" unicode="G" horiz-adv-x="1413" 
d="M758 1403q-78 0 -143.5 -26t-111 -69.5t-81 -103.5t-57 -123t-35 -133.5t-18.5 -130t-5 -117.5q0 -65 5.5 -127t19.5 -130t35 -127t55.5 -112.5t79 -91.5t106 -60.5t135.5 -22.5q170 0 252 91t82 245v217l-123 43v26h406v-28l-119 -41v-594h-31q-1 6 -4.5 35t-6.5 43
t-9 35t-16 30.5t-23 9.5q-15 0 -38.5 -16.5t-55.5 -40t-73 -47.5t-105 -40.5t-138 -16.5q-152 0 -274 60t-197.5 162t-115 230.5t-39.5 272.5q0 112 22.5 217t73 202t123.5 169.5t182 115.5t242 43q219 0 351 -95.5t132 -240.5q0 -91 -45.5 -140.5t-124.5 -49.5
q-25 0 -63 10q71 68 71 178q0 141 -86 215t-235 74z" />
    <glyph glyph-name="H" unicode="H" horiz-adv-x="1501" 
d="M961 27l124 43v614h-669v-614l125 -41v-29h-414v27l125 43v1294l-125 43v27h414v-29l-125 -41v-619h669v619l-124 43v27h413v-29l-125 -41v-1294l125 -41v-29h-413v27z" />
    <glyph glyph-name="I" unicode="I" horiz-adv-x="667" 
d="M252 1364l-125 43v27h414v-29l-125 -41v-1294l125 -41v-29h-414v27l125 43v1294z" />
    <glyph glyph-name="J" unicode="J" horiz-adv-x="1122" 
d="M449 41q154 0 222 119t68 340v864l-125 43v27h416v-29l-125 -41v-860q0 -242 -123 -377t-333 -135q-194 0 -297 80t-103 207q0 73 41 120t109 47q23 0 65 -10q-61 -73 -61 -162q0 -36 10.5 -72.5t35.5 -74.5t76.5 -62t123.5 -24z" />
    <glyph glyph-name="K" unicode="K" horiz-adv-x="1329" 
d="M909 1434h406v-27l-182 -43h-3l-464 -508l557 -786l125 -43v-27h-281l-514 733l-137 -149v-514l125 -41v-29h-414v27l125 43v1294l-125 43v27h414v-29l-125 -41v-662l618 670l-125 35v27z" />
    <glyph glyph-name="L" unicode="L" horiz-adv-x="1189" 
d="M127 0v27l125 43v1294l-125 43v27h414v-29l-125 -41v-1309h348q90 0 147 16.5t93.5 58.5t53 105t23.5 164h33v-399h-987z" />
    <glyph glyph-name="M" unicode="M" horiz-adv-x="1857" 
d="M1292 27l148 43v1190l-557 -1280l-2 6l-2 -6h-25l-526 1265v-1175l145 -41v-29h-364v27l145 43v1294l-145 43v27h319l496 -1203l518 1203h307v-29l-145 -41v-1294l145 -41v-29h-457v27z" />
    <glyph glyph-name="N" unicode="N" horiz-adv-x="1517" 
d="M1237 -20l-903 1282v-1192l145 -41v-29h-373v27l146 43v1294l-125 43v27h293l776 -1115v1045l-145 43v27h374v-29l-147 -41v-1384h-41z" />
    <glyph glyph-name="O" unicode="O" horiz-adv-x="1490" 
d="M1376 715q0 -215 -78.5 -382t-222.5 -260t-330 -93t-329.5 93t-222 260.5t-78.5 383.5t78.5 383t222 259.5t329.5 92.5t330 -93t222.5 -260.5t78.5 -383.5zM309 711q0 -111 14 -207.5t47 -183t82.5 -148t124 -97.5t168.5 -36q117 0 204 54.5t137 150t74 212.5t24 255
q0 139 -24 257t-74 215.5t-137.5 153.5t-203.5 56q-94 0 -169 -37t-124 -100t-82 -151t-47 -185.5t-14 -208.5z" />
    <glyph glyph-name="P" unicode="P" horiz-adv-x="1228" 
d="M252 1364l-125 43v27h463q274 0 422.5 -100.5t148.5 -307.5t-149 -301t-430 -94h-166v-561l125 -41v-29h-414v27l125 43v1294zM567 1376h-151v-688h151q222 0 318 75t96 265t-96.5 269t-317.5 79z" />
    <glyph glyph-name="Q" unicode="Q" horiz-adv-x="1490" 
d="M1376 -156h31q0 -268 -178 -268q-55 0 -113 26t-107.5 63.5t-97 75t-98 63.5t-94.5 26q-51 0 -77 -37.5t-26 -101.5h-28q0 268 180 268q57 0 116.5 -26.5t109 -64t97 -75t95.5 -64t88 -26.5q102 0 102 141zM1376 715q0 -215 -78.5 -382t-222.5 -260t-330 -93t-329.5 93
t-222 260.5t-78.5 383.5t78.5 383t222 259.5t329.5 92.5t330 -93t222.5 -260.5t78.5 -383.5zM309 711q0 -111 14 -207.5t47 -183t82.5 -148t124 -97.5t168.5 -36q117 0 204 54.5t137 150t74 212.5t24 255q0 139 -24 257t-74 215.5t-137.5 153.5t-203.5 56q-94 0 -169 -37
t-124 -100t-82 -151t-47 -185.5t-14 -208.5z" />
    <glyph glyph-name="R" unicode="R" horiz-adv-x="1329" 
d="M250 1364l-123 43v27h498q526 0 526 -402q0 -186 -111 -276.5t-333 -102.5q85 -59 157 -59l322 -524l143 -43v-27h-287l-395 651h-231v-581l123 -41v-29h-412v27l123 43v1294zM606 1376h-190v-671h190q193 0 282 79t89 248q0 171 -90 257.5t-281 86.5z" />
    <glyph glyph-name="S" unicode="S" horiz-adv-x="1144" 
d="M575 1403q-131 0 -206.5 -73t-75.5 -189q0 -64 25.5 -115.5t68.5 -86.5t98.5 -64.5t117.5 -55.5t123.5 -53t117 -63t98.5 -80.5t68.5 -110t25.5 -147.5q0 -98 -36 -173t-100.5 -120.5t-149 -68.5t-187.5 -23q-196 0 -327.5 79.5t-131.5 202.5q0 77 44 132t108 55
q29 0 59 -9q-35 -25 -58.5 -67.5t-23.5 -93.5q0 -116 88.5 -182t241.5 -66q157 0 247.5 70t90.5 202q0 69 -25.5 124t-68.5 93t-98.5 69.5t-117.5 58t-123.5 54t-117 62.5t-98.5 77.5t-68.5 105t-25.5 140.5q0 173 116 270t306 97q178 0 291.5 -82t113.5 -207
q0 -69 -39 -116.5t-102 -47.5q-28 0 -60 11q76 50 76 151q0 107 -75.5 173.5t-209.5 66.5z" />
    <glyph glyph-name="T" unicode="T" horiz-adv-x="1245" 
d="M391 1368q-48 0 -82.5 -4.5t-61.5 -18.5t-44 -30.5t-33 -49t-26.5 -65.5t-24.5 -88h-33v322h1073v-322h-33q-21 82 -37.5 124.5t-47 76t-74 44.5t-115.5 11h-147v-1298l124 -41v-29h-413v27l125 43v1298h-150z" />
    <glyph glyph-name="U" unicode="U" horiz-adv-x="1409" 
d="M1114 1364l-125 43v27h326v-29l-125 -41v-897q0 -229 -125 -358t-354 -129q-80 0 -150 15.5t-133.5 51.5t-109 90.5t-72.5 139t-27 190.5v897l-125 43v27h414v-29l-125 -41v-897q0 -82 19.5 -151t60.5 -126t113 -89.5t169 -32.5q178 0 273.5 106t95.5 293v897z" />
    <glyph glyph-name="V" unicode="V" horiz-adv-x="1345" 
d="M305 1364l418 -1118l412 1118l-148 41v29h373v-27l-146 -43l-526 -1389h-26l-535 1389l-141 43v27h465v-29z" />
    <glyph glyph-name="W" unicode="W" horiz-adv-x="1988" 
d="M1053 1450l397 -1169l332 1083l-131 41v29h338v-27l-136 -43l-434 -1384h-26l-410 1181l-391 -1181h-39l-408 1384l-131 43v27h437v-29l-134 -41l306 -1092l391 1178h39z" />
    <glyph glyph-name="X" unicode="X" horiz-adv-x="1282" 
d="M385 0h-395v27l172 41l407 645l-413 651l-127 43v27h434v-29l-123 -41l330 -518l336 516l-142 45v27h379v-27l-164 -43l-370 -580l454 -714l127 -43v-27h-432v29l121 41l-371 581l-368 -579l145 -45v-27z" />
    <glyph glyph-name="Y" unicode="Y" horiz-adv-x="1267" 
d="M436 27l125 43v487l-426 807l-125 43v27h441v-29l-142 -41l369 -715l364 715l-124 41v29h325v-27l-125 -43l-393 -774v-520l125 -41v-29h-414v27z" />
    <glyph glyph-name="Z" unicode="Z" horiz-adv-x="1193" 
d="M90 27l797 1349h-475q-43 0 -73 -4.5t-54.5 -18t-40 -30.5t-30 -51t-25 -70.5t-23.5 -95.5h-33v328h959v-31l-799 -1346h491q29 0 52 1.5t43.5 6t35.5 9t29.5 15.5t24.5 20t21 28t18 34t17 43t17 51t19 61h31v-326h-1002v27z" />
    <glyph glyph-name="bracketleft" unicode="[" horiz-adv-x="659" 
d="M385 1364v-1565l227 -41v-28h-393v1704h393v-29z" />
    <glyph glyph-name="backslash" unicode="\" horiz-adv-x="1007" 
d="M952 -123h-69l-826 1639h70z" />
    <glyph glyph-name="bracketright" unicode="]" horiz-adv-x="659" 
d="M274 -201v1565l-227 41v29h393v-1704h-393v28z" />
    <glyph glyph-name="asciicircum" unicode="^" horiz-adv-x="1110" 
d="M500 1434h110l365 -351h-180l-240 283l-240 -283h-180z" />
    <glyph glyph-name="underscore" unicode="_" horiz-adv-x="978" 
d="M0 -211v59h979v-59h-979z" />
    <glyph glyph-name="grave" unicode="`" horiz-adv-x="319" 
d="M242 1081h-33l-320 344h181z" />
    <glyph glyph-name="a" unicode="a" horiz-adv-x="1120" 
d="M508 952q-110 0 -159.5 -50t-49.5 -132q0 -85 45 -137q-27 -10 -61 -10q-56 0 -89.5 33t-33.5 100q0 115 98.5 180t249.5 65q58 0 108.5 -10t103 -38.5t89.5 -73.5t60.5 -121t23.5 -176v-392q0 -129 68 -129q38 0 59.5 40.5t21.5 121.5h39q0 -243 -180 -243
q-143 0 -160 151q-134 -154 -352 -154q-141 0 -219 67t-78 202q0 49 11.5 88t43 77t83 63t136.5 40.5t199 15.5h174v52q0 113 -16 188t-48.5 113.5t-71.5 53.5t-95 15zM455 53q72 0 147 32.5t137 102.5v293h-174q-92 0 -155 -17t-95.5 -49t-45.5 -69.5t-13 -87.5
q0 -205 199 -205z" />
    <glyph glyph-name="b" unicode="b" horiz-adv-x="1202" 
d="M1096 492q0 -128 -38.5 -228.5t-105 -161t-149.5 -91.5t-178 -31q-63 0 -115.5 16.5t-85 40t-58 47.5t-45.5 40.5t-36 16.5q-45 0 -78 -170h-27v1495l-123 41v29h275v-784q36 102 120 175.5t212 73.5q81 0 156.5 -31.5t138 -91.5t100 -160.5t37.5 -225.5zM643 940
q-141 0 -226 -126.5t-85 -346.5q0 -210 78 -324t219 -114t216 116t75 340q0 220 -72 337.5t-205 117.5z" />
    <glyph glyph-name="c" unicode="c" horiz-adv-x="1054" 
d="M588 954q-146 0 -230 -124.5t-84 -352.5q0 -70 9.5 -131.5t33.5 -120.5t61.5 -101t97.5 -67.5t138 -25.5q125 0 209.5 47t128.5 117l39 -21q-117 -194 -393 -194q-236 0 -366 137.5t-130 361.5q0 235 136.5 378.5t349.5 143.5q151 0 251.5 -65.5t100.5 -179.5
q0 -68 -34.5 -103t-92.5 -35q-19 0 -59 9q45 61 45 135q0 84 -54.5 138t-156.5 54z" />
    <glyph glyph-name="d" unicode="d" horiz-adv-x="1218" 
d="M106 483q0 244 124.5 381t316.5 137q237 0 323 -208v673l-122 41v29h274v-1466l125 -41v-29h-277v186q-86 -206 -319 -206q-69 0 -132.5 17.5t-121 56.5t-99.5 96t-67 142.5t-25 190.5zM575 37q65 0 116.5 26t82.5 65t52.5 93.5t31 103t12.5 101.5v123q-3 53 -12 101.5
t-30 104t-51.5 96t-82 67t-116.5 26.5q-144 0 -218.5 -125.5t-74.5 -335.5q0 -219 79 -332.5t211 -113.5z" />
    <glyph glyph-name="e" unicode="e" horiz-adv-x="1071" 
d="M545 1001q192 0 310 -134t118 -363v-29h-697q0 -61 6.5 -115.5t27 -117t54 -107t93.5 -74.5t139 -30q116 0 201 51.5t121 124.5l34 -21q-115 -206 -374 -206q-232 0 -352 134.5t-120 362.5q0 237 125.5 380.5t313.5 143.5zM545 954q-85 0 -146 -63t-89.5 -155.5
t-33.5 -207.5h533q-2 82 -15.5 153t-42.5 135t-82 101t-124 37z" />
    <glyph glyph-name="f" unicode="f" horiz-adv-x="643" 
d="M524 1491q-75 0 -119.5 -80.5t-44.5 -247.5v-180h230v-53h-230v-860l166 -41v-29h-442v27l125 43v860h-125v53h125v143q0 198 80.5 304t234.5 106q109 0 167.5 -48.5t58.5 -129.5q0 -55 -29 -85t-72 -30q-41 0 -59 6q35 44 35 111q0 56 -24 93.5t-77 37.5z" />
    <glyph glyph-name="g" unicode="g" horiz-adv-x="1189" 
d="M987 670q0 -149 -121 -246.5t-307 -97.5q-74 0 -143 16q-133 -29 -133 -119q0 -55 47.5 -79.5t152.5 -24.5h222q123 0 210.5 -20t136 -58.5t70 -86.5t21.5 -112q0 -158 -129.5 -227.5t-395.5 -69.5q-66 0 -122 4t-115 13.5t-103.5 28t-81 45t-56 66.5t-19.5 91
q0 168 246 213q-100 13 -151.5 62t-51.5 116q0 130 180 183q-103 43 -163 125.5t-60 181.5q0 142 122.5 234.5t313.5 92.5q107 0 193 -30q14 82 80 138t171 56q71 0 124 -35.5t53 -107.5q0 -61 -36 -95t-95 -34q-33 0 -68 14q70 44 70 115q0 78 -84 78q-57 0 -104 -41
t-58 -111q87 -43 135.5 -115t48.5 -163zM467 -16q-98 -11 -157.5 -58t-59.5 -131q0 -107 96.5 -152.5t282.5 -45.5q108 0 183.5 14.5t119 42.5t62 65.5t18.5 87.5q0 61 -27.5 98t-102 58t-202.5 21h-213zM291 670q0 -58 14 -108t43.5 -92t82.5 -66.5t124 -24.5
q135 0 199.5 83.5t64.5 209.5q0 125 -63 202.5t-199 77.5t-201 -77t-65 -205z" />
    <glyph glyph-name="h" unicode="h" horiz-adv-x="1171" 
d="M1110 0h-279v627q0 146 -66 221.5t-171 75.5q-43 0 -84 -15t-77.5 -45.5t-59.5 -85.5t-25 -127v-581l125 -41v-29h-403v27l125 43v1396l-123 41v29h276v-735q21 87 104 143.5t197 56.5q63 0 120.5 -19t107 -59t79 -111.5t29.5 -166.5v-575l125 -41v-29z" />
    <glyph glyph-name="i" unicode="i" horiz-adv-x="552" 
d="M80 27l125 43v839l-105 43v27h258v-909l125 -41v-29h-403v27zM172 1335q0 48 29.5 80.5t81.5 32.5q53 0 81.5 -32t28.5 -81q0 -47 -28.5 -76.5t-81.5 -29.5q-52 0 -81.5 30t-29.5 76z" />
    <glyph glyph-name="j" unicode="j" horiz-adv-x="540" 
d="M209 909l-105 43v27h256v-989q0 -124 -22.5 -212t-66 -137.5t-97.5 -71.5t-125 -22q-96 0 -162.5 38.5t-66.5 117.5q0 61 37.5 98t99.5 37q32 0 63 -16q-75 -35 -75 -123q0 -42 26 -75.5t78 -33.5t85 29t54 116.5t21 241.5v932zM176 1335q0 48 29.5 80.5t81.5 32.5
t81 -32.5t29 -80.5q0 -46 -29 -76t-81 -30t-81.5 30t-29.5 76z" />
    <glyph glyph-name="k" unicode="k" horiz-adv-x="1089" 
d="M1057 979v-27l-183 -43l-288 -284l385 -555l153 -43v-27h-282l-361 520l-133 -133v-317l125 -41v-29h-403v27l125 43v1396l-123 41v29h276v-1061l447 438l-144 39v27h406z" />
    <glyph glyph-name="l" unicode="l" horiz-adv-x="542" 
d="M70 27l125 43v1396l-123 41v29h276v-1466l125 -41v-29h-403v27z" />
    <glyph glyph-name="m" unicode="m" horiz-adv-x="1722" 
d="M205 909l-105 43v27h258v-178q19 90 93.5 145t179.5 55q61 0 117 -18.5t106.5 -64.5t73.5 -115q25 91 101.5 144.5t187.5 53.5q59 0 112.5 -17t100.5 -53t75.5 -101t28.5 -152v-608l125 -41v-29h-279v659q0 122 -56 193.5t-155 71.5q-89 0 -154.5 -59.5t-68.5 -184.5
v-610l125 -41v-29h-403v27l125 43v589q0 121 -57.5 193t-153.5 72q-92 0 -156.5 -66.5t-67.5 -206.5v-581l125 -41v-29h-403v27l125 43v839z" />
    <glyph glyph-name="n" unicode="n" horiz-adv-x="1181" 
d="M205 909l-105 43v27h258v-178q20 87 107.5 143.5t202.5 56.5q50 0 95.5 -11.5t88.5 -38t74 -66.5t50 -101.5t19 -138.5v-575l125 -41v-29h-278v627q0 142 -55.5 219.5t-165.5 77.5q-50 0 -95 -15.5t-83.5 -47.5t-61.5 -89.5t-23 -134.5v-567l125 -41v-29h-403v27l125 43
v839z" />
    <glyph glyph-name="o" unicode="o" horiz-adv-x="1175" 
d="M1071 500q0 -237 -134 -378.5t-349 -141.5t-349.5 141.5t-134.5 378.5q0 232 134 366.5t350 134.5t349.5 -134.5t133.5 -366.5zM276 496q0 -102 19 -186.5t56 -148t97.5 -99t139.5 -35.5q104 0 175.5 62.5t103.5 165.5t32 241q0 209 -78 333.5t-233 124.5t-233.5 -124.5
t-78.5 -333.5z" />
    <glyph glyph-name="p" unicode="p" horiz-adv-x="1218" 
d="M193 909l-105 43v27h256v-209q83 231 330 231q84 0 160.5 -31.5t138.5 -92t98.5 -159t36.5 -222.5q0 -104 -26.5 -191.5t-70 -146t-101 -100t-117.5 -60t-121 -18.5q-247 0 -328 227v-572l125 -41v-28h-401v26l125 43v1274zM344 496q0 -217 82.5 -340t224.5 -123
q143 0 214 121.5t71 332.5t-70 334t-217 123q-140 0 -221 -116t-84 -312v-20z" />
    <glyph glyph-name="q" unicode="q" horiz-adv-x="1202" 
d="M870 -362v555q-46 -105 -123.5 -159t-207.5 -54q-187 0 -310 142t-123 382q0 111 30 199t77 142.5t111 91t127 50.5t129 14q62 0 114 -15t84 -36t56.5 -42.5t44 -36.5t34.5 -15q28 0 46 33.5t36 111.5h29v-1363l123 -41v-29h-399v29zM575 37q148 0 221.5 123t73.5 346
q0 446 -295 446q-128 0 -210 -116t-82 -332q0 -217 75 -342t217 -125z" />
    <glyph glyph-name="r" unicode="r" horiz-adv-x="907" 
d="M600 930q-30 0 -60.5 -13t-63 -44.5t-58 -79t-42.5 -124t-18 -171.5v-428l125 -41v-29h-403v27l125 43v839l-105 43v27h258v-240q21 119 97 190.5t190 71.5q91 0 154 -48t63 -136q0 -65 -33.5 -102t-89.5 -37q-30 0 -55 10q37 50 37 117q0 56 -30 90.5t-91 34.5z" />
    <glyph glyph-name="s" unicode="s" horiz-adv-x="911" 
d="M461 952q-101 0 -155 -43.5t-54 -111.5q0 -50 31 -88t80 -62.5t109 -47t119.5 -49.5t108.5 -61t80 -90.5t31 -130.5q0 -136 -104 -212t-271 -76q-150 0 -243 54t-93 163q0 65 33.5 95t85.5 30q28 0 60 -11q-54 -39 -54 -116q0 -80 53 -123t158 -43q117 0 178.5 46.5
t61.5 133.5q0 54 -23.5 96.5t-62 69t-88 51t-101 42t-101 43.5t-88 54.5t-62 74.5t-23.5 105q0 116 93 186t241 70q82 0 150 -21.5t113.5 -70t45.5 -116.5q0 -60 -34.5 -93.5t-84.5 -33.5q-33 0 -55 12q47 47 47 110q0 164 -182 164z" />
    <glyph glyph-name="t" unicode="t" horiz-adv-x="702" 
d="M348 1331v-352h262v-53h-262v-629q0 -97 16 -154t39.5 -75.5t59.5 -18.5q63 0 101 60.5t38 187.5h39q0 -160 -53.5 -238.5t-169.5 -78.5q-110 0 -165.5 74.5t-55.5 248.5v623h-125v53h125q101 0 114 352h37z" />
    <glyph glyph-name="u" unicode="u" 
d="M59 979h279v-639q0 -127 55.5 -199.5t169.5 -72.5q47 0 89.5 13t80.5 42t62 82t26 125v579l-125 41v29h279v-905l104 -43v-27h-258v154q-20 -75 -108.5 -125.5t-202.5 -50.5q-62 0 -118 18.5t-104 56.5t-76 106t-28 159v587l-125 41v29z" />
    <glyph glyph-name="v" unicode="v" horiz-adv-x="1050" 
d="M303 909l275 -729l253 729l-145 41v29h361v-27l-146 -43l-348 -952h-33l-379 952l-145 43v27h453v-29z" />
    <glyph glyph-name="w" unicode="w" horiz-adv-x="1689" 
d="M311 909l256 -710l260 667l-16 43l-145 43v27h456v-29l-145 -41l248 -702l239 702l-145 41v29h373v-27l-162 -43l-338 -934h-37l-299 811l-324 -811h-30l-352 934l-146 43v27h453v-29z" />
    <glyph glyph-name="x" unicode="x" horiz-adv-x="1048" 
d="M12 0v27l138 43l303 407l-289 432l-121 43v27h416v-27l-117 -41l223 -331l252 329l-151 43v27h350v-27l-137 -43l-283 -377l311 -462l123 -43v-27h-416v27l115 41l-244 360l-266 -358l143 -43v-27h-350z" />
    <glyph glyph-name="y" unicode="y" horiz-adv-x="1021" 
d="M184 -455q-89 0 -144.5 38.5t-55.5 103.5q0 57 38.5 92t100.5 35q27 0 65 -15q-34 -12 -53.5 -40t-19.5 -66q0 -39 25.5 -62.5t74.5 -23.5q75 0 148.5 72t123.5 231l11 31q11 28 1 43.5t-46 15.5l-330 909l-109 43v27h377v-27l-108 -43l280 -788l273 788l-105 43v27h291
v-27l-117 -43l-356 -1013q-63 -179 -153 -265t-212 -86z" />
    <glyph glyph-name="z" unicode="z" horiz-adv-x="1009" 
d="M86 41l614 883h-323q-57 0 -89.5 -8t-56.5 -36t-37.5 -64t-33.5 -109h-31v272h758v-41l-621 -883h334q75 0 120.5 9.5t76 37.5t47.5 65t35 105h30v-272h-823v41z" />
    <glyph glyph-name="braceleft" unicode="{" horiz-adv-x="653" 
d="M608 -322v-47q-186 0 -295.5 108t-109.5 306q0 65 5 164t5 145q0 69 -35 117t-106 61v60q143 29 143 209q-12 102 -12 280q0 198 109.5 306t295.5 108v-47q-115 0 -180.5 -75.5t-65.5 -182.5q0 -38 4.5 -125t4.5 -131q0 -162 -43 -234q-62 -105 -150 -137q62 -23 100 -51
t62 -74q39 -82 39 -178q0 -35 -8.5 -139.5t-8.5 -183.5q0 -107 65.5 -183t180.5 -76z" />
    <glyph glyph-name="bar" unicode="|" horiz-adv-x="575" 
d="M354 1538v-2050h-135v2050h135z" />
    <glyph glyph-name="braceright" unicode="}" horiz-adv-x="653" 
d="M45 -369v47q115 0 180.5 76t65.5 183q0 79 -8.5 183.5t-8.5 139.5q0 96 39 178q24 46 62 74t100 51q-87 32 -149 137q-43 72 -43 234q0 44 4 131t4 125q0 107 -65.5 182.5t-180.5 75.5v47q186 0 296 -108t110 -306q0 -169 -13 -280q0 -180 144 -209v-60
q-71 -13 -106.5 -61t-35.5 -117q0 -46 5.5 -145t5.5 -164q0 -198 -110 -306t-296 -108z" />
    <glyph glyph-name="asciitilde" unicode="~" horiz-adv-x="1306" 
d="M1124 770h33q0 -276 -221 -276q-61 0 -143.5 22.5t-152 49t-153 49t-145.5 22.5q-84 0 -119 -36.5t-35 -106.5h-32q0 276 231 276q66 0 154.5 -22.5t160.5 -50t152 -50t131 -22.5q139 0 139 145z" />
    <glyph glyph-name="exclamdown" unicode="&#xa1;" horiz-adv-x="542" 
d="M291 682h-41q0 -201 -43 -569t-43 -451q0 -60 27 -97.5t79 -37.5q107 0 107 135q0 78 -43 447t-43 573zM160 895q0 46 29 76t81 30t81.5 -30t29.5 -76q0 -48 -29.5 -80.5t-81.5 -32.5t-81 32.5t-29 80.5z" />
    <glyph glyph-name="cent" unicode="&#xa2;" horiz-adv-x="1105" 
d="M623 954q-21 0 -29 -2v-919q12 -2 41 -2q226 0 321 166l43 -23q-113 -194 -368 -194h-37v-168h-59v174q-206 26 -315 157.5t-109 339.5q0 205 117 344.5t307 167.5v135h59v-129h29q161 0 252.5 -72.5t91.5 -195.5q0 -102 -84 -102q-39 0 -60.5 20.5t-21.5 55.5
q0 26 20.5 52.5t20.5 49.5q0 58 -58.5 101.5t-160.5 43.5zM283 479q0 -375 252 -438v901q-124 -34 -188 -159.5t-64 -303.5z" />
    <glyph glyph-name="sterling" unicode="&#xa3;" horiz-adv-x="1191" 
d="M637 1452q66 0 124.5 -9.5t110 -30.5t88.5 -53t58.5 -79t21.5 -106q0 -70 -34 -123t-103 -56q-31 0 -65 11q17 29 26 48.5t17 53t8 72.5q0 101 -59.5 162t-192.5 61q-272 0 -272 -250q0 -74 25.5 -150t60 -152.5t45.5 -125.5h278v-59h-270v-15q0 -61 -20 -124.5
t-56.5 -123.5t-71.5 -106t-82 -100q64 34 140 34q70 0 163.5 -32.5t182.5 -64.5t149 -32q64 0 95.5 31.5t31.5 77.5q0 50 -20 92l26 12q22 -25 37 -66.5t15 -84.5q0 -25 -4.5 -48.5t-18.5 -50.5t-35.5 -46.5t-59.5 -32.5t-87 -13q-69 0 -142.5 19.5t-127.5 43t-127.5 43
t-141.5 19.5q-177 0 -219 -118h-33q0 58 23.5 120.5t57 120.5t67 120.5t57 141t23.5 160.5q0 4 -1 11.5t-1 11.5h-166v59h159q-10 50 -38.5 110t-49.5 120.5t-22 131.5q-1 93 35 165t97.5 114.5t137 64t160.5 21.5z" />
    <glyph glyph-name="currency" unicode="&#xa4;" horiz-adv-x="1208" 
d="M246 205l-72 69l88 88q-72 115 -72 285q0 168 72 283l-88 90l72 70l82 -82q110 98 276 98q169 0 279 -98l82 82l69 -72l-86 -86q76 -116 76 -285q0 -167 -76 -287l86 -84l-69 -71l-82 80q-114 -97 -279 -97t-276 99zM322 647q0 -199 79.5 -299t202.5 -100
q59 0 109.5 23.5t90.5 70t62.5 125t22.5 180.5q0 200 -80.5 300t-204.5 100q-123 0 -202.5 -100t-79.5 -300z" />
    <glyph glyph-name="yen" unicode="&#xa5;" horiz-adv-x="1374" 
d="M1176 772h-299l-93 -182v-4h392v-60h-392v-456l125 -41v-29h-413v27l125 43v456h-400v60h383l-98 186h-285v59h254l-280 533l-125 43v27h440v-29l-141 -41l368 -715l365 715l-125 41v29h326v-27l-125 -43l-271 -533h269v-59z" />
    <glyph glyph-name="brokenbar" unicode="&#xa6;" horiz-adv-x="571" 
d="M217 307h135v-819h-135v819zM352 719h-135v819h135v-819z" />
    <glyph glyph-name="section" unicode="&#xa7;" horiz-adv-x="993" 
d="M436 -119q107 0 171.5 42.5t64.5 127.5q0 63 -29 111.5t-75.5 80t-102 58t-111.5 53t-102.5 58t-75.5 79.5t-29 111q0 86 51 149t126.5 92t162.5 29q53 0 115 -18q-33 20 -84 44t-90.5 41t-83 43.5t-72.5 53.5t-48 68.5t-19 91.5q0 111 90 173.5t223 62.5q140 0 229 -60
t89 -151q0 -47 -22 -69t-58 -22q-39 0 -61.5 18.5t-22.5 51.5q0 30 18.5 56t18.5 36q0 36 -53 63t-138 27q-80 0 -134 -33.5t-54 -107.5q0 -48 30.5 -85t78.5 -63t106.5 -51t117.5 -54t107 -65.5t78.5 -94t30.5 -130.5q0 -131 -82.5 -209t-208.5 -98q102 -54 160.5 -118.5
t58.5 -159.5q0 -94 -56 -159.5t-137.5 -93.5t-177.5 -28q-153 0 -245.5 58t-92.5 153q0 44 21.5 67t58.5 23q39 0 61.5 -18.5t22.5 -51.5q0 -30 -18.5 -56t-18.5 -36q0 -35 59.5 -62.5t151.5 -27.5zM494 821q-82 0 -153 -45.5t-71 -128.5q0 -30 13.5 -56.5t31.5 -45.5
t53 -41t60.5 -35.5t71.5 -34.5h6q106 0 172.5 51t66.5 152q0 52 -24 102q-45 38 -109 60t-118 22z" />
    <glyph glyph-name="dieresis" unicode="&#xa8;" horiz-adv-x="1255" 
d="M252 1174q0 47 28 77.5t78 30.5q51 0 79 -31t28 -77q0 -45 -28 -74t-79 -29t-78.5 29t-27.5 74zM698 1174q0 46 28 77t79 31q50 0 78 -30.5t28 -77.5q0 -45 -27.5 -74t-78.5 -29t-79 29t-28 74z" />
    <glyph glyph-name="copyright" unicode="&#xa9;" horiz-adv-x="1574" 
d="M1464 721q0 -198 -85.5 -367t-242 -271.5t-348.5 -102.5q-145 0 -272 60t-215 161.5t-138 236.5t-50 283q0 144 50.5 277.5t137.5 233.5t214.5 160t272.5 60q192 0 348.5 -102t242 -269t85.5 -360zM217 721q0 -98 25 -196.5t74.5 -186t117 -155.5t159.5 -108t195 -40
q102 0 194 40t160 108t118 155.5t75 186t25 196.5q0 96 -25 192.5t-75 183.5t-118 154t-160 106.5t-194 39.5q-103 0 -195 -39.5t-159.5 -106.5t-117 -154t-74.5 -183.5t-25 -192.5zM791 291q-167 0 -271 114.5t-104 313.5t104 314.5t271 115.5q42 0 79 -11.5t57.5 -25.5
t39.5 -25.5t28 -11.5q14 0 23.5 21t9.5 55h25v-315h-29q-3 53 -34 117t-84.5 112.5t-110.5 48.5q-81 0 -139 -60t-83.5 -148t-25.5 -191q0 -182 63 -285.5t181 -103.5q91 0 159.5 79t77.5 220h25v-326h-19q-22 74 -39 74q-8 0 -24 -13t-35 -28t-58 -28t-87 -13z" />
    <glyph glyph-name="ordfeminine" unicode="&#xaa;" horiz-adv-x="878" 
d="M522 1116v76q0 116 -24.5 160.5t-110.5 44.5q-61 0 -100 -25.5t-39 -66.5q0 -6 17.5 -25.5t17.5 -38.5q0 -25 -16.5 -41t-45.5 -16t-46 20t-17 58q0 74 67 123t174 49q44 0 81.5 -10t74.5 -34.5t58.5 -74t21.5 -119.5v-281q0 -127 51 -127q26 0 41.5 23t15.5 68h37
q0 -78 -37.5 -116t-99.5 -38q-80 0 -108 80q-87 -80 -207 -80q-101 0 -149 45.5t-48 126.5q0 45 18.5 81.5t61 69t121.5 50.5t190 18zM524 860q-2 14 -2 45v154q-150 0 -210 -39.5t-60 -110.5q0 -58 36.5 -85t90.5 -27q87 0 145 63z" />
    <glyph glyph-name="guillemotleft" unicode="&#xab;" horiz-adv-x="911" 
d="M119 483v58l278 405l41 -35l-272 -399l272 -422l-41 -35zM467 483v58l278 405l41 -35l-272 -399l272 -422l-41 -35z" />
    <glyph glyph-name="logicalnot" unicode="&#xac;" horiz-adv-x="1101" 
d="M950 526h-59v181h-715v59h774v-240z" />
    <glyph glyph-name="registered" unicode="&#xae;" horiz-adv-x="1574" 
d="M1464 721q0 -198 -85.5 -367t-242 -271.5t-348.5 -102.5q-145 0 -272 60t-215 161.5t-138 236.5t-50 283q0 144 50.5 277.5t137.5 233.5t214.5 160t272.5 60q192 0 348.5 -102t242 -269t85.5 -360zM217 721q0 -98 25 -196.5t74.5 -186t117 -155.5t159.5 -108t195 -40
q102 0 194 40t160 108t118 155.5t75 186t25 196.5q0 96 -25 192.5t-75 183.5t-118 154t-160 106.5t-194 39.5q-103 0 -195 -39.5t-159.5 -106.5t-117 -154t-74.5 -183.5t-25 -192.5zM543 1047l-68 22v21h283q155 0 239 -53.5t84 -157.5q0 -154 -215 -191l193 -307l67 -25
v-16h-168l-208 340h-91v-299l64 -23v-18h-248v16l68 25v666zM727 1051h-68v-330h68q41 0 69 2.5t59.5 11.5t50.5 25.5t31.5 46.5t12.5 72q0 172 -223 172z" />
    <glyph glyph-name="macron" unicode="&#xaf;" horiz-adv-x="1124" 
d="M225 1102v59h494v-59h-494z" />
    <glyph glyph-name="degree" unicode="&#xb0;" horiz-adv-x="761" 
d="M649 1210q0 -99 -75.5 -169t-192.5 -70q-118 0 -194 70t-76 169q0 93 76.5 159.5t193.5 66.5t192.5 -66.5t75.5 -159.5zM213 1210q0 -50 14 -90t53.5 -70t100.5 -30t100 30t52.5 70t13.5 90q0 48 -13.5 86t-52.5 66.5t-100 28.5q-89 0 -128.5 -53t-39.5 -128z" />
    <glyph glyph-name="plusminus" unicode="&#xb1;" horiz-adv-x="1036" 
d="M547 1122v-356h358v-59h-358v-359h-60v359h-356v59h356v356h60zM825 -123h-612v60h612v-60z" />
    <glyph glyph-name="twosuperior" unicode="&#xb2;" horiz-adv-x="901" 
d="M444 1466q150 0 245 -70t95 -208q0 -74 -28.5 -131t-72.5 -91t-105.5 -66t-119.5 -54.5t-122.5 -56.5t-106.5 -72q-34 -33 -51 -53.5t-33.5 -58.5t-21.5 -87q31 47 87.5 78t125.5 31q65 0 174 -35t158 -35q53 0 77.5 24.5t24.5 59.5q0 27 -16 59l22 9q35 -59 35 -111
q0 -70 -44 -118t-136 -48q-58 0 -118.5 22t-124.5 44t-130 22q-65 0 -92 -20.5t-43 -63.5h-29q-8 46 -8 72q0 66 19 121t51.5 95t74 74.5t88 63t92.5 57t87.5 60.5t74 67.5t51.5 85t19 107.5q0 195 -199 195q-100 0 -150 -52t-50 -141q0 -93 80 -151q-21 -9 -54 -9
q-71 0 -113 39.5t-42 118.5q0 113 92.5 170t236.5 57z" />
    <glyph glyph-name="threesuperior" unicode="&#xb3;" horiz-adv-x="901" 
d="M432 1466q159 0 240.5 -65.5t81.5 -175.5q0 -95 -54 -155.5t-139 -72.5q248 -32 248 -266q0 -295 -383 -295q-157 0 -250.5 53.5t-93.5 159.5q0 70 42.5 109t113.5 39q20 0 57 -9q-57 -61 -57 -141q0 -84 49.5 -130t142.5 -46q207 0 207 260q0 137 -57 190.5t-185 53.5
h-53v35h53q201 0 201 217q0 207 -164 207q-86 0 -127 -48.5t-41 -115.5q0 -70 60 -127q-32 -13 -64 -13q-66 0 -101.5 34t-35.5 96q0 96 84 151t225 55z" />
    <glyph glyph-name="acute" unicode="&#xb4;" horiz-adv-x="579" 
d="M250 1081h-33l172 344h189z" />
    <glyph glyph-name="mu" unicode="&#xb5;" horiz-adv-x="1245" 
d="M109 979h278v-639q0 -127 55.5 -199.5t169.5 -72.5q47 0 89.5 13t80.5 42t62 82t26 125v579l-125 41v29h279v-905l104 -43v-27h-258v154q-20 -75 -108.5 -125.5t-202.5 -50.5q-100 0 -172 41v-465l125 -41v-29h-403v27l124 43v1351l-124 41v29z" />
    <glyph glyph-name="paragraph" unicode="&#xb6;" horiz-adv-x="993" 
d="M553 -346h-94v1008q-186 0 -288.5 105.5t-102.5 270.5q0 108 43.5 196.5t134 144t213.5 55.5h415v-29l-124 -41v-1710h-97v1720h-100v-1720z" />
    <glyph glyph-name="periodcentered" unicode="&#xb7;" horiz-adv-x="518" 
d="M147 713q0 48 29.5 80t81.5 32q53 0 83 -32t30 -80q0 -46 -30 -76.5t-83 -30.5q-52 0 -81.5 30.5t-29.5 76.5z" />
    <glyph glyph-name="cedilla" unicode="&#xb8;" horiz-adv-x="624" 
d="M238 -223l65 223h53l-45 -147q27 10 70 10q75 0 124.5 -50t49.5 -126q0 -52 -23 -90t-62 -58t-81 -29.5t-88 -9.5q-97 0 -172 47l21 33q68 -37 137 -37q143 0 143 131q0 61 -30.5 90t-80.5 29q-35 0 -81 -16z" />
    <glyph glyph-name="onesuperior" unicode="&#xb9;" horiz-adv-x="593" 
d="M100 1327l-4 25l256 116h31v-948l166 -39v-30h-496v28l174 41v823z" />
    <glyph glyph-name="ordmasculine" unicode="&#xba;" horiz-adv-x="911" 
d="M803 1094q0 -151 -97.5 -257t-246.5 -106q-152 0 -251 106t-99 257q0 140 99 241t251 101q149 0 246.5 -101t97.5 -241zM238 1094q0 -30 2 -57.5t9 -68t22.5 -72.5t38 -61.5t61.5 -46t88 -16.5q42 0 76.5 13t56.5 33.5t38.5 50.5t25 57.5t13.5 62t6 57t1 48.5
q0 29 -2 54.5t-8.5 64t-21.5 68.5t-37.5 58.5t-60.5 44t-87 15.5q-59 0 -102 -24t-65.5 -56.5t-35 -79t-15.5 -78.5t-3 -67z" />
    <glyph glyph-name="guillemotright" unicode="&#xbb;" horiz-adv-x="911" 
d="M444 541v-58l-278 -428l-41 35l272 422l-272 399l41 35zM793 541v-58l-279 -428l-41 35l272 422l-272 399l41 35z" />
    <glyph glyph-name="onequarter" unicode="&#xbc;" horiz-adv-x="2654" 
d="M86 1294l-6 35l313 123h41v-1382l203 -41v-29h-569v27l202 43v1265zM811 -123h-70l826 1639h69zM1638 283v24l768 1147h31v-1106h193v-65h-193v-213l146 -41v-29h-474v27l162 43v213h-633zM1741 348h530v795z" />
    <glyph glyph-name="onehalf" unicode="&#xbd;" horiz-adv-x="2211" 
d="M1751 1016q150 0 245 -70.5t95 -208.5q0 -74 -28.5 -131t-72.5 -91t-105.5 -66t-119.5 -54.5t-122.5 -56.5t-106.5 -72q-34 -33 -51 -53t-33.5 -58t-21.5 -87q31 47 87 77.5t125 30.5q65 0 174 -35t158 -35q53 0 78 24.5t25 59.5q0 26 -17 60l23 8q35 -59 35 -111
q0 -69 -44 -117t-137 -48q-58 0 -118.5 22t-124 44t-129.5 22q-65 0 -92 -20.5t-43 -63.5h-29q-8 46 -8 71q0 66 19 121t51.5 95t74 74.5t88 63t92.5 57t87.5 60.5t74 67.5t51.5 85t19 107.5q0 195 -199 195q-101 0 -151 -51.5t-50 -140.5q0 -94 80 -152q-19 -8 -53 -8
q-71 0 -113.5 39t-42.5 118q0 113 93 170.5t237 57.5zM133 1307l-4 24l256 117h31v-948l166 -39v-31h-496v29l174 41v823zM1485 1499l-862 -1569h-56l863 1569h55z" />
    <glyph glyph-name="threequarters" unicode="&#xbe;" horiz-adv-x="2254" 
d="M442 1446q159 0 240.5 -66t81.5 -176q0 -95 -54 -155t-139 -72q248 -32 248 -266q0 -295 -383 -295q-157 0 -250.5 53.5t-93.5 159.5q0 70 42 108.5t114 38.5q24 0 57 -8q-57 -61 -57 -141q0 -84 49.5 -130t142.5 -46q207 0 207 260q0 137 -56.5 190t-184.5 53h-54v35h54
q102 0 151 54t49 163q0 207 -164 207q-86 0 -127 -48.5t-41 -115.5q0 -70 60 -127q-30 -12 -64 -12q-66 0 -101.5 33.5t-35.5 95.5q0 96 84 151.5t225 55.5zM1432 186v31l493 787h156l-479 -773h321v162h156v-162h94v-45h-94v-137l94 -29v-20h-344v18l94 31v137h-491z
M1706 1499l-862 -1569h-56l863 1569h55z" />
    <glyph glyph-name="questiondown" unicode="&#xbf;" horiz-adv-x="1001" 
d="M524 -471q-73 0 -139.5 14t-124.5 44t-100.5 73t-67 105t-24.5 137q0 58 16.5 109t44.5 90t64 73.5t76.5 64.5t80.5 60t76 62t64 67t44.5 80.5t16.5 97.5q0 40 -4 60h43q10 -54 10 -117q-2 -68 -24 -126t-54.5 -100t-71.5 -81.5t-77.5 -79.5t-70.5 -84t-51.5 -105
t-19.5 -133q0 -116 77 -189t216 -73q157 0 233.5 66t76.5 155q0 15 -18.5 29.5t-37 34t-18.5 45.5q0 39 22.5 62.5t67.5 23.5q36 0 61 -26.5t25 -78.5q0 -164 -103.5 -262t-308.5 -98zM682 895q0 -48 -30.5 -80.5t-82.5 -32.5q-51 0 -80.5 32.5t-29.5 80.5q0 46 29 76t81 30
q54 0 83.5 -30t29.5 -76z" />
    <glyph glyph-name="Agrave" unicode="&#xc0;" horiz-adv-x="1388" 
d="M1104 70l-146 352h-618l-133 -352l145 -41v-29h-372v27l145 43l539 1384h36l584 -1384l146 -43v-27h-472v29zM637 1206l-272 -719h567zM723 1591h-33l-319 344h180z" />
    <glyph glyph-name="Aacute" unicode="&#xc1;" horiz-adv-x="1388" 
d="M1104 70l-146 352h-618l-133 -352l145 -41v-29h-372v27l145 43l539 1384h36l584 -1384l146 -43v-27h-472v29zM637 1206l-272 -719h567zM664 1595h-33l172 344h188z" />
    <glyph glyph-name="Acircumflex" unicode="&#xc2;" horiz-adv-x="1388" 
d="M1104 70l-146 352h-618l-133 -352l145 -41v-29h-372v27l145 43l539 1384h36l584 -1384l146 -43v-27h-472v29zM637 1206l-272 -719h567zM647 1894h74l242 -292l-25 -21l-254 205l-254 -205l-27 21z" />
    <glyph glyph-name="Atilde" unicode="&#xc3;" horiz-adv-x="1388" 
d="M1104 70l-146 352h-618l-133 -352l145 -41v-29h-372v27l145 43l539 1384h36l584 -1384l146 -43v-27h-472v29zM637 1206l-272 -719h567zM903 1839h35q0 -92 -37.5 -154.5t-103.5 -62.5q-40 0 -83 24t-84.5 48t-78.5 24q-43 0 -66.5 -29t-23.5 -69h-35q0 84 42.5 148.5
t121.5 64.5q45 0 91.5 -25.5t86 -51t66.5 -25.5q29 0 49 28t20 80z" />
    <glyph glyph-name="Adieresis" unicode="&#xc4;" horiz-adv-x="1388" 
d="M1104 70l-146 352h-618l-133 -352l145 -41v-29h-372v27l145 43l539 1384h36l584 -1384l146 -43v-27h-472v29zM637 1206l-272 -719h567zM352 1686q0 46 28 77t79 31q50 0 78 -30.5t28 -77.5q0 -45 -27.5 -74t-78.5 -29t-79 29t-28 74zM799 1686q0 47 28 77.5t78 30.5
q51 0 79 -31t28 -77q0 -45 -28 -74t-79 -29t-78.5 29t-27.5 74z" />
    <glyph glyph-name="Aring" unicode="&#xc5;" horiz-adv-x="1388" 
d="M1104 70l-146 352h-618l-133 -352l145 -41v-29h-372v27l145 43l539 1384h36l584 -1384l146 -43v-27h-472v29zM637 1206l-272 -719h567zM932 1774q0 -86 -71 -144.5t-179 -58.5q-106 0 -177 59t-71 144q0 77 71 130.5t177 53.5q108 0 179 -53t71 -131zM567 1774
q0 -72 29 -122t86 -50q59 0 88 50t29 122q0 66 -29 109.5t-88 43.5q-58 0 -86.5 -43.5t-28.5 -109.5z" />
    <glyph glyph-name="AE" unicode="&#xc6;" horiz-adv-x="1982" 
d="M866 27l125 43v303h-594l-182 -303l141 -41v-29h-372v27l141 43l215 362l4 6l594 996h903v-328h-33q-15 62 -26 98.5t-27 71t-32.5 50.5t-44 29t-60.5 17t-82 4h-379v-618l215 2h4q30 3 52 8.5t39 20t26.5 25t21 39t17 46.5t18.5 62h33v-459h-33q-31 110 -59 148t-105 48
h-2l-227 2v-645h361q57 0 97.5 5t71.5 20.5t50.5 32.5t36 52.5t26.5 68.5t25 92h33v-326h-992v27zM991 438v924l-555 -924h555z" />
    <glyph glyph-name="Ccedilla" unicode="&#xc7;" horiz-adv-x="1325" 
d="M664 -223l59 205q-289 13 -448.5 210t-159.5 515q0 179 51.5 323t140.5 235t204.5 139t246.5 48q108 0 195 -30t139.5 -79.5t80 -109.5t27.5 -123q0 -110 -60 -174t-141 -64q-28 0 -53 11q96 83 96 225q0 136 -71.5 213.5t-212.5 77.5q-219 0 -335 -183.5t-116 -515.5
q0 -661 469 -661q333 0 484 260l40 -23q-28 -47 -58.5 -86t-77 -78.5t-100 -67t-128 -45.5t-160.5 -19l-39 -127q27 10 70 10q75 0 124.5 -50t49.5 -126q0 -52 -23 -90t-62 -58t-81 -29.5t-88 -9.5q-97 0 -172 47l20 33q68 -37 138 -37q143 0 143 131q0 61 -30.5 90
t-80.5 29q-35 0 -81 -16z" />
    <glyph glyph-name="Egrave" unicode="&#xc8;" horiz-adv-x="1234" 
d="M252 1364l-125 43v27h967v-328h-33q-18 75 -32 115.5t-33 75.5t-46.5 49.5t-65 22t-96.5 7.5h-372v-618l207 2q27 2 48 8t36 11.5t28 21.5t20.5 26t17 37t14.5 42.5t16 54.5h33v-459h-33q-13 43 -18.5 60t-16.5 45t-20.5 38t-26 24t-37 19.5t-49.5 9.5l-219 2v-645h356
q57 0 97 5t71 20.5t50 32.5t35.5 52.5t26.5 68.5t25 92h33v-326h-983v27l125 43v1294zM690 1591h-33l-319 344h180z" />
    <glyph glyph-name="Eacute" unicode="&#xc9;" horiz-adv-x="1234" 
d="M252 1364l-125 43v27h967v-328h-33q-18 75 -32 115.5t-33 75.5t-46.5 49.5t-65 22t-96.5 7.5h-372v-618l207 2q27 2 48 8t36 11.5t28 21.5t20.5 26t17 37t14.5 42.5t16 54.5h33v-459h-33q-13 43 -18.5 60t-16.5 45t-20.5 38t-26 24t-37 19.5t-49.5 9.5l-219 2v-645h356
q57 0 97 5t71 20.5t50 32.5t35.5 52.5t26.5 68.5t25 92h33v-326h-983v27l125 43v1294zM631 1595h-33l172 344h188z" />
    <glyph glyph-name="Ecircumflex" unicode="&#xca;" horiz-adv-x="1234" 
d="M252 1364l-125 43v27h967v-328h-33q-18 75 -32 115.5t-33 75.5t-46.5 49.5t-65 22t-96.5 7.5h-372v-618l207 2q27 2 48 8t36 11.5t28 21.5t20.5 26t17 37t14.5 42.5t16 54.5h33v-459h-33q-13 43 -18.5 60t-16.5 45t-20.5 38t-26 24t-37 19.5t-49.5 9.5l-219 2v-645h356
q57 0 97 5t71 20.5t50 32.5t35.5 52.5t26.5 68.5t25 92h33v-326h-983v27l125 43v1294zM614 1894h74l242 -292l-25 -21l-254 205l-254 -205l-26 21z" />
    <glyph glyph-name="Edieresis" unicode="&#xcb;" horiz-adv-x="1234" 
d="M252 1364l-125 43v27h967v-328h-33q-18 75 -32 115.5t-33 75.5t-46.5 49.5t-65 22t-96.5 7.5h-372v-618l207 2q27 2 48 8t36 11.5t28 21.5t20.5 26t17 37t14.5 42.5t16 54.5h33v-459h-33q-13 43 -18.5 60t-16.5 45t-20.5 38t-26 24t-37 19.5t-49.5 9.5l-219 2v-645h356
q57 0 97 5t71 20.5t50 32.5t35.5 52.5t26.5 68.5t25 92h33v-326h-983v27l125 43v1294zM319 1686q0 46 28 77t79 31q50 0 78 -30.5t28 -77.5q0 -45 -27.5 -74t-78.5 -29t-79 29t-28 74zM766 1686q0 47 28 77.5t78 30.5q51 0 79 -31t28 -77q0 -45 -28 -74t-79 -29t-78.5 29
t-27.5 74z" />
    <glyph glyph-name="Igrave" unicode="&#xcc;" horiz-adv-x="667" 
d="M252 1364l-125 43v27h414v-29l-125 -41v-1294l125 -41v-29h-414v27l125 43v1294zM379 1591h-33l-319 344h180z" />
    <glyph glyph-name="Iacute" unicode="&#xcd;" horiz-adv-x="667" 
d="M252 1364l-125 43v27h414v-29l-125 -41v-1294l125 -41v-29h-414v27l125 43v1294zM319 1595h-32l172 344h188z" />
    <glyph glyph-name="Icircumflex" unicode="&#xce;" horiz-adv-x="667" 
d="M252 1364l-125 43v27h414v-29l-125 -41v-1294l125 -41v-29h-414v27l125 43v1294zM303 1894h74l241 -292l-24 -21l-254 205l-254 -205l-27 21z" />
    <glyph glyph-name="Idieresis" unicode="&#xcf;" horiz-adv-x="667" 
d="M252 1364l-125 43v27h414v-29l-125 -41v-1294l125 -41v-29h-414v27l125 43v1294zM8 1686q0 46 28 77t79 31q50 0 78 -30.5t28 -77.5q0 -45 -27.5 -74t-78.5 -29t-79 29t-28 74zM455 1686q0 47 28 77.5t78 30.5q51 0 79 -31t28 -77q0 -45 -28 -74t-79 -29t-78.5 29
t-27.5 74z" />
    <glyph glyph-name="Eth" unicode="&#xd0;" horiz-adv-x="1437" 
d="M262 1364l-125 43v27h455q179 0 319 -54t229.5 -151t136 -228t46.5 -288q0 -328 -189.5 -520.5t-541.5 -192.5h-455v27l125 43v596h-135v59h135v639zM739 666h-313v-609h152q158 0 269.5 46t175.5 135.5t92 206t28 272.5q0 123 -16.5 220t-56 180.5t-103.5 139
t-161.5 86.5t-227.5 31h-152v-649h313v-59z" />
    <glyph glyph-name="Ntilde" unicode="&#xd1;" horiz-adv-x="1517" 
d="M1237 -20l-903 1282v-1192l145 -41v-29h-373v27l146 43v1294l-125 43v27h293l776 -1115v1045l-145 43v27h374v-29l-147 -41v-1384h-41zM989 1839h35q0 -92 -37.5 -154.5t-103.5 -62.5q-40 0 -83 24t-84.5 48t-78.5 24q-43 0 -66.5 -29t-23.5 -69h-35q0 84 42.5 148.5
t121.5 64.5q45 0 91.5 -25.5t86 -51t66.5 -25.5q29 0 49 28t20 80z" />
    <glyph glyph-name="Ograve" unicode="&#xd2;" horiz-adv-x="1490" 
d="M1376 715q0 -215 -78.5 -382t-222.5 -260t-330 -93t-329.5 93t-222 260.5t-78.5 383.5t78.5 383t222 259.5t329.5 92.5t330 -93t222.5 -260.5t78.5 -383.5zM309 711q0 -111 14 -207.5t47 -183t82.5 -148t124 -97.5t168.5 -36q117 0 204 54.5t137 150t74 212.5t24 255
q0 139 -24 257t-74 215.5t-137.5 153.5t-203.5 56q-94 0 -169 -37t-124 -100t-82 -151t-47 -185.5t-14 -208.5zM795 1591h-33l-320 344h181z" />
    <glyph glyph-name="Oacute" unicode="&#xd3;" horiz-adv-x="1490" 
d="M1376 715q0 -215 -78.5 -382t-222.5 -260t-330 -93t-329.5 93t-222 260.5t-78.5 383.5t78.5 383t222 259.5t329.5 92.5t330 -93t222.5 -260.5t78.5 -383.5zM309 711q0 -111 14 -207.5t47 -183t82.5 -148t124 -97.5t168.5 -36q117 0 204 54.5t137 150t74 212.5t24 255
q0 139 -24 257t-74 215.5t-137.5 153.5t-203.5 56q-94 0 -169 -37t-124 -100t-82 -151t-47 -185.5t-14 -208.5zM737 1595h-32l172 344h188z" />
    <glyph glyph-name="Ocircumflex" unicode="&#xd4;" horiz-adv-x="1490" 
d="M1376 715q0 -215 -78.5 -382t-222.5 -260t-330 -93t-329.5 93t-222 260.5t-78.5 383.5t78.5 383t222 259.5t329.5 92.5t330 -93t222.5 -260.5t78.5 -383.5zM309 711q0 -111 14 -207.5t47 -183t82.5 -148t124 -97.5t168.5 -36q117 0 204 54.5t137 150t74 212.5t24 255
q0 139 -24 257t-74 215.5t-137.5 153.5t-203.5 56q-94 0 -169 -37t-124 -100t-82 -151t-47 -185.5t-14 -208.5zM721 1894h74l241 -292l-24 -21l-254 205l-254 -205l-27 21z" />
    <glyph glyph-name="Otilde" unicode="&#xd5;" horiz-adv-x="1490" 
d="M1376 715q0 -215 -78.5 -382t-222.5 -260t-330 -93t-329.5 93t-222 260.5t-78.5 383.5t78.5 383t222 259.5t329.5 92.5t330 -93t222.5 -260.5t78.5 -383.5zM309 711q0 -111 14 -207.5t47 -183t82.5 -148t124 -97.5t168.5 -36q117 0 204 54.5t137 150t74 212.5t24 255
q0 139 -24 257t-74 215.5t-137.5 153.5t-203.5 56q-94 0 -169 -37t-124 -100t-82 -151t-47 -185.5t-14 -208.5zM995 1839h35q0 -92 -37.5 -154.5t-103.5 -62.5q-40 0 -83 24t-84.5 48t-78.5 24q-43 0 -66.5 -29t-23.5 -69h-35q0 84 42.5 148.5t121.5 64.5q45 0 91.5 -25.5
t86 -51t66.5 -25.5q29 0 49 28t20 80z" />
    <glyph glyph-name="Odieresis" unicode="&#xd6;" horiz-adv-x="1490" 
d="M1376 715q0 -215 -78.5 -382t-222.5 -260t-330 -93t-329.5 93t-222 260.5t-78.5 383.5t78.5 383t222 259.5t329.5 92.5t330 -93t222.5 -260.5t78.5 -383.5zM309 711q0 -111 14 -207.5t47 -183t82.5 -148t124 -97.5t168.5 -36q117 0 204 54.5t137 150t74 212.5t24 255
q0 139 -24 257t-74 215.5t-137.5 153.5t-203.5 56q-94 0 -169 -37t-124 -100t-82 -151t-47 -185.5t-14 -208.5zM426 1686q0 47 28 77.5t78 30.5q51 0 79 -31t28 -77q0 -45 -28 -74t-79 -29t-78.5 29t-27.5 74zM872 1686q0 46 28 77t79 31q50 0 78 -30.5t28 -77.5
q0 -45 -27.5 -74t-78.5 -29t-79 29t-28 74z" />
    <glyph glyph-name="multiply" unicode="&#xd7;" horiz-adv-x="886" 
d="M190 1030l252 -254l254 254l43 -41l-254 -254l254 -254l-43 -41l-254 252l-252 -252l-40 43l251 252l-251 252z" />
    <glyph glyph-name="Oslash" unicode="&#xd8;" horiz-adv-x="1490" 
d="M309 -94h-82l125 215q-114 98 -175.5 251t-61.5 345q0 216 78.5 383t222 259.5t329.5 92.5q183 0 326 -92l90 158h82l-115 -199q118 -96 183 -252.5t65 -351.5q0 -215 -78.5 -382t-222.5 -260t-330 -93q-191 0 -337 98zM1184 711q0 319 -117 503l-608 -1050
q109 -125 286 -125q117 0 204 54.5t137 150t74 212.5t24 255zM309 711q0 -307 105 -484l606 1047q-109 119 -275 119q-94 0 -169 -37t-124 -100t-82 -151t-47 -185.5t-14 -208.5z" />
    <glyph glyph-name="Ugrave" unicode="&#xd9;" horiz-adv-x="1409" 
d="M1114 1364l-125 43v27h326v-29l-125 -41v-897q0 -229 -125 -358t-354 -129q-80 0 -150 15.5t-133.5 51.5t-109 90.5t-72.5 139t-27 190.5v897l-125 43v27h414v-29l-125 -41v-897q0 -82 19.5 -151t60.5 -126t113 -89.5t169 -32.5q178 0 273.5 106t95.5 293v897zM782 1591
h-32l-320 344h180z" />
    <glyph glyph-name="Uacute" unicode="&#xda;" horiz-adv-x="1409" 
d="M1114 1364l-125 43v27h326v-29l-125 -41v-897q0 -229 -125 -358t-354 -129q-80 0 -150 15.5t-133.5 51.5t-109 90.5t-72.5 139t-27 190.5v897l-125 43v27h414v-29l-125 -41v-897q0 -82 19.5 -151t60.5 -126t113 -89.5t169 -32.5q178 0 273.5 106t95.5 293v897zM723 1595
h-33l172 344h189z" />
    <glyph glyph-name="Ucircumflex" unicode="&#xdb;" horiz-adv-x="1409" 
d="M1114 1364l-125 43v27h326v-29l-125 -41v-897q0 -229 -125 -358t-354 -129q-80 0 -150 15.5t-133.5 51.5t-109 90.5t-72.5 139t-27 190.5v897l-125 43v27h414v-29l-125 -41v-897q0 -82 19.5 -151t60.5 -126t113 -89.5t169 -32.5q178 0 273.5 106t95.5 293v897zM707 1894
h73l242 -292l-25 -21l-254 205l-254 -205l-26 21z" />
    <glyph glyph-name="Udieresis" unicode="&#xdc;" horiz-adv-x="1409" 
d="M1114 1364l-125 43v27h326v-29l-125 -41v-897q0 -229 -125 -358t-354 -129q-80 0 -150 15.5t-133.5 51.5t-109 90.5t-72.5 139t-27 190.5v897l-125 43v27h414v-29l-125 -41v-897q0 -82 19.5 -151t60.5 -126t113 -89.5t169 -32.5q178 0 273.5 106t95.5 293v897zM412 1686
q0 47 28 77.5t78 30.5q51 0 79 -31t28 -77q0 -45 -28 -74t-79 -29t-78.5 29t-27.5 74zM858 1686q0 46 28 77t79 31q50 0 78 -30.5t28 -77.5q0 -45 -27.5 -74t-78.5 -29t-79 29t-28 74z" />
    <glyph glyph-name="Yacute" unicode="&#xdd;" horiz-adv-x="1267" 
d="M436 27l125 43v487l-426 807l-125 43v27h441v-29l-142 -41l369 -715l364 715l-124 41v29h325v-27l-125 -43l-393 -774v-520l125 -41v-29h-414v27zM637 1593h-33l172 344h189z" />
    <glyph glyph-name="Thorn" unicode="&#xde;" horiz-adv-x="1167" 
d="M1161 760q0 -207 -149 -301t-430 -94h-166v-295l125 -41v-29h-414v27l125 43v1294l-125 43v27h414v-29l-125 -41v-197h174q274 0 422.5 -100t148.5 -307zM416 1110v-688h151q222 0 318 75t96 265t-96.5 269t-317.5 79h-151z" />
    <glyph glyph-name="germandbls" unicode="&#xdf;" horiz-adv-x="1200" 
d="M336 1120v-1120h-281v29l125 45v1030q0 207 111.5 319.5t302.5 112.5q82 0 144 -22t98 -60.5t53.5 -86t17.5 -103.5q0 -52 -17.5 -96.5t-42.5 -75t-50 -57t-42.5 -54.5t-17.5 -55q0 -30 20 -56.5t52.5 -49t71 -46t77.5 -55t71.5 -69.5t52.5 -96t20 -128
q0 -211 -178 -318.5t-504 -107.5v35q263 0 382.5 95.5t119.5 289.5q0 75 -16.5 133.5t-42.5 94t-57.5 63t-62.5 47.5t-57 40t-42.5 48t-16.5 65q0 44 22.5 82t55 67t64.5 58.5t54.5 68.5t22.5 85q0 86 -59 141t-179 55q-78 0 -132 -24.5t-84 -72t-43 -108.5t-13 -143z" />
    <glyph glyph-name="agrave" unicode="&#xe0;" horiz-adv-x="1120" 
d="M508 952q-110 0 -159.5 -50t-49.5 -132q0 -85 45 -137q-27 -10 -61 -10q-56 0 -89.5 33t-33.5 100q0 115 98.5 180t249.5 65q58 0 108.5 -10t103 -38.5t89.5 -73.5t60.5 -121t23.5 -176v-392q0 -129 68 -129q38 0 59.5 40.5t21.5 121.5h39q0 -243 -180 -243
q-143 0 -160 151q-134 -154 -352 -154q-141 0 -219 67t-78 202q0 49 11.5 88t43 77t83 63t136.5 40.5t199 15.5h174v52q0 113 -16 188t-48.5 113.5t-71.5 53.5t-95 15zM455 53q72 0 147 32.5t137 102.5v293h-174q-92 0 -155 -17t-95.5 -49t-45.5 -69.5t-13 -87.5
q0 -205 199 -205zM551 1137h-33l-319 344h180z" />
    <glyph glyph-name="aacute" unicode="&#xe1;" horiz-adv-x="1120" 
d="M508 952q-110 0 -159.5 -50t-49.5 -132q0 -85 45 -137q-27 -10 -61 -10q-56 0 -89.5 33t-33.5 100q0 115 98.5 180t249.5 65q58 0 108.5 -10t103 -38.5t89.5 -73.5t60.5 -121t23.5 -176v-392q0 -129 68 -129q38 0 59.5 40.5t21.5 121.5h39q0 -243 -180 -243
q-143 0 -160 151q-134 -154 -352 -154q-141 0 -219 67t-78 202q0 49 11.5 88t43 77t83 63t136.5 40.5t199 15.5h174v52q0 113 -16 188t-48.5 113.5t-71.5 53.5t-95 15zM455 53q72 0 147 32.5t137 102.5v293h-174q-92 0 -155 -17t-95.5 -49t-45.5 -69.5t-13 -87.5
q0 -205 199 -205zM492 1141h-33l172 344h188z" />
    <glyph glyph-name="acircumflex" unicode="&#xe2;" horiz-adv-x="1120" 
d="M508 952q-110 0 -159.5 -50t-49.5 -132q0 -85 45 -137q-27 -10 -61 -10q-56 0 -89.5 33t-33.5 100q0 115 98.5 180t249.5 65q58 0 108.5 -10t103 -38.5t89.5 -73.5t60.5 -121t23.5 -176v-392q0 -129 68 -129q38 0 59.5 40.5t21.5 121.5h39q0 -243 -180 -243
q-143 0 -160 151q-134 -154 -352 -154q-141 0 -219 67t-78 202q0 49 11.5 88t43 77t83 63t136.5 40.5t199 15.5h174v52q0 113 -16 188t-48.5 113.5t-71.5 53.5t-95 15zM455 53q72 0 147 32.5t137 102.5v293h-174q-92 0 -155 -17t-95.5 -49t-45.5 -69.5t-13 -87.5
q0 -205 199 -205zM475 1440h74l242 -293l-25 -21l-254 205l-254 -205l-27 21z" />
    <glyph glyph-name="atilde" unicode="&#xe3;" horiz-adv-x="1120" 
d="M508 952q-110 0 -159.5 -50t-49.5 -132q0 -85 45 -137q-27 -10 -61 -10q-56 0 -89.5 33t-33.5 100q0 115 98.5 180t249.5 65q58 0 108.5 -10t103 -38.5t89.5 -73.5t60.5 -121t23.5 -176v-392q0 -129 68 -129q38 0 59.5 40.5t21.5 121.5h39q0 -243 -180 -243
q-143 0 -160 151q-134 -154 -352 -154q-141 0 -219 67t-78 202q0 49 11.5 88t43 77t83 63t136.5 40.5t199 15.5h174v52q0 113 -16 188t-48.5 113.5t-71.5 53.5t-95 15zM455 53q72 0 147 32.5t137 102.5v293h-174q-92 0 -155 -17t-95.5 -49t-45.5 -69.5t-13 -87.5
q0 -205 199 -205zM731 1384h35q0 -92 -37.5 -154.5t-103.5 -62.5q-32 0 -66 15t-59 33.5t-58 33.5t-63 15q-43 0 -66.5 -29.5t-23.5 -69.5h-35q0 84 42.5 148.5t121.5 64.5q45 0 91.5 -25.5t86 -51t66.5 -25.5q29 0 49 28t20 80z" />
    <glyph glyph-name="adieresis" unicode="&#xe4;" horiz-adv-x="1120" 
d="M508 952q-110 0 -159.5 -50t-49.5 -132q0 -85 45 -137q-27 -10 -61 -10q-56 0 -89.5 33t-33.5 100q0 115 98.5 180t249.5 65q58 0 108.5 -10t103 -38.5t89.5 -73.5t60.5 -121t23.5 -176v-392q0 -129 68 -129q38 0 59.5 40.5t21.5 121.5h39q0 -243 -180 -243
q-143 0 -160 151q-134 -154 -352 -154q-141 0 -219 67t-78 202q0 49 11.5 88t43 77t83 63t136.5 40.5t199 15.5h174v52q0 113 -16 188t-48.5 113.5t-71.5 53.5t-95 15zM455 53q72 0 147 32.5t137 102.5v293h-174q-92 0 -155 -17t-95.5 -49t-45.5 -69.5t-13 -87.5
q0 -205 199 -205zM188 1231q0 46 28 77t79 31q50 0 78 -30.5t28 -77.5q0 -45 -27.5 -74t-78.5 -29t-79 29t-28 74zM635 1231q0 47 28 77.5t78 30.5q51 0 79 -31t28 -77q0 -45 -28 -74t-79 -29t-78.5 29t-27.5 74z" />
    <glyph glyph-name="aring" unicode="&#xe5;" horiz-adv-x="1120" 
d="M508 952q-110 0 -159.5 -50t-49.5 -132q0 -85 45 -137q-27 -10 -61 -10q-56 0 -89.5 33t-33.5 100q0 115 98.5 180t249.5 65q58 0 108.5 -10t103 -38.5t89.5 -73.5t60.5 -121t23.5 -176v-392q0 -129 68 -129q38 0 59.5 40.5t21.5 121.5h39q0 -243 -180 -243
q-143 0 -160 151q-134 -154 -352 -154q-141 0 -219 67t-78 202q0 49 11.5 88t43 77t83 63t136.5 40.5t199 15.5h174v52q0 113 -16 188t-48.5 113.5t-71.5 53.5t-95 15zM455 53q72 0 147 32.5t137 102.5v293h-174q-92 0 -155 -17t-95.5 -49t-45.5 -69.5t-13 -87.5
q0 -205 199 -205zM760 1319q0 -86 -71 -144.5t-179 -58.5q-106 0 -177 59t-71 144q0 77 71 130.5t177 53.5q108 0 179 -53t71 -131zM395 1319q0 -72 29 -122t86 -50q59 0 88 50t29 122q0 66 -29 110t-88 44q-58 0 -86.5 -44t-28.5 -110z" />
    <glyph glyph-name="ae" unicode="&#xe6;" horiz-adv-x="1693" 
d="M1165 1001q192 0 310 -134t118 -363v-29h-696q0 -61 6.5 -115.5t27 -117t54 -107t93.5 -74.5t139 -30q116 0 200.5 51.5t120.5 124.5l35 -21q-115 -206 -375 -206q-282 0 -399 198q-47 -81 -152 -139.5t-241 -58.5q-153 0 -232.5 67.5t-79.5 181.5q0 50 15.5 90.5
t58.5 80t112.5 66.5t183.5 44.5t265 19.5v52q0 111 -16 185.5t-48.5 114t-72 55t-94.5 15.5q-107 0 -156 -50t-49 -132q0 -85 45 -137q-27 -10 -62 -10q-56 0 -89 33t-33 100q0 115 98 180t246 65q238 0 331 -172q60 83 147 127.5t189 44.5zM1165 954q-64 0 -115 -35.5
t-82.5 -96.5t-49 -135t-21.5 -159h533q-2 82 -16 153t-43 135t-82 101t-124 37zM473 66q86 0 160 34t139 127q-45 105 -45 250q-116 -2 -200.5 -15.5t-135 -33.5t-80 -51t-39.5 -62t-10 -73q0 -99 56.5 -137.5t154.5 -38.5z" />
    <glyph glyph-name="ccedilla" unicode="&#xe7;" horiz-adv-x="1054" 
d="M567 -223l60 205q-5 0 -15 -1t-14 -1q-236 0 -366 137.5t-130 361.5q0 235 136.5 378.5t349.5 143.5q151 0 251.5 -65.5t100.5 -179.5q0 -68 -34.5 -103t-92.5 -35q-19 0 -59 9q45 61 45 135q0 84 -54.5 138t-156.5 54q-146 0 -230 -124.5t-84 -352.5q0 -70 9.5 -131.5
t33.5 -120.5t61.5 -101t97.5 -67.5t138 -25.5q125 0 209.5 47t128.5 117l39 -21q-98 -165 -311 -188l-39 -133q27 10 70 10q75 0 124.5 -50t49.5 -126q0 -52 -23 -90t-62 -58t-81 -29.5t-88 -9.5q-97 0 -172 47l20 33q68 -37 137 -37q144 0 144 131q0 61 -30.5 90t-80.5 29
q-36 0 -82 -16z" />
    <glyph glyph-name="egrave" unicode="&#xe8;" horiz-adv-x="1071" 
d="M545 1001q192 0 310 -134t118 -363v-29h-697q0 -61 6.5 -115.5t27 -117t54 -107t93.5 -74.5t139 -30q116 0 201 51.5t121 124.5l34 -21q-115 -206 -374 -206q-232 0 -352 134.5t-120 362.5q0 237 125.5 380.5t313.5 143.5zM545 954q-85 0 -146 -63t-89.5 -155.5
t-33.5 -207.5h533q-2 82 -15.5 153t-42.5 135t-82 101t-124 37zM586 1137h-33l-320 344h181z" />
    <glyph glyph-name="eacute" unicode="&#xe9;" horiz-adv-x="1071" 
d="M545 1001q192 0 310 -134t118 -363v-29h-697q0 -61 6.5 -115.5t27 -117t54 -107t93.5 -74.5t139 -30q116 0 201 51.5t121 124.5l34 -21q-115 -206 -374 -206q-232 0 -352 134.5t-120 362.5q0 237 125.5 380.5t313.5 143.5zM545 954q-85 0 -146 -63t-89.5 -155.5
t-33.5 -207.5h533q-2 82 -15.5 153t-42.5 135t-82 101t-124 37zM526 1141h-32l172 344h188z" />
    <glyph glyph-name="ecircumflex" unicode="&#xea;" horiz-adv-x="1071" 
d="M545 1001q192 0 310 -134t118 -363v-29h-697q0 -61 6.5 -115.5t27 -117t54 -107t93.5 -74.5t139 -30q116 0 201 51.5t121 124.5l34 -21q-115 -206 -374 -206q-232 0 -352 134.5t-120 362.5q0 237 125.5 380.5t313.5 143.5zM545 954q-85 0 -146 -63t-89.5 -155.5
t-33.5 -207.5h533q-2 82 -15.5 153t-42.5 135t-82 101t-124 37zM510 1440h74l241 -293l-24 -21l-254 205l-254 -205l-27 21z" />
    <glyph glyph-name="edieresis" unicode="&#xeb;" horiz-adv-x="1071" 
d="M545 1001q192 0 310 -134t118 -363v-29h-697q0 -61 6.5 -115.5t27 -117t54 -107t93.5 -74.5t139 -30q116 0 201 51.5t121 124.5l34 -21q-115 -206 -374 -206q-232 0 -352 134.5t-120 362.5q0 237 125.5 380.5t313.5 143.5zM545 954q-85 0 -146 -63t-89.5 -155.5
t-33.5 -207.5h533q-2 82 -15.5 153t-42.5 135t-82 101t-124 37zM215 1231q0 46 28 77t79 31q50 0 78 -30.5t28 -77.5q0 -45 -27.5 -74t-78.5 -29t-79 29t-28 74zM662 1231q0 47 28 77.5t78 30.5t78 -30.5t28 -77.5q0 -45 -27.5 -74t-78.5 -29t-78.5 29t-27.5 74z" />
    <glyph glyph-name="igrave" unicode="&#xec;" horiz-adv-x="552" 
d="M80 27l125 43v839l-105 43v27h258v-909l125 -41v-29h-403v27zM317 1137h-32l-320 344h180z" />
    <glyph glyph-name="iacute" unicode="&#xed;" horiz-adv-x="552" 
d="M80 27l125 43v839l-105 43v27h258v-909l125 -41v-29h-403v27zM258 1141h-33l172 344h189z" />
    <glyph glyph-name="icircumflex" unicode="&#xee;" horiz-adv-x="552" 
d="M80 27l125 43v839l-105 43v27h258v-909l125 -41v-29h-403v27zM242 1440h73l242 -293l-25 -21l-253 205l-254 -205l-27 21z" />
    <glyph glyph-name="idieresis" unicode="&#xef;" horiz-adv-x="552" 
d="M80 27l125 43v839l-105 43v27h258v-909l125 -41v-29h-403v27zM-53 1231q0 47 28 77.5t78 30.5q51 0 79 -31t28 -77q0 -45 -28 -74t-79 -29t-78.5 29t-27.5 74zM393 1231q0 46 28 77t79 31q50 0 78 -30.5t28 -77.5q0 -45 -27.5 -74t-78.5 -29t-79 29t-28 74z" />
    <glyph glyph-name="eth" unicode="&#xf0;" horiz-adv-x="1247" 
d="M827 1524l-120 -133q415 -271 415 -809q0 -121 -34.5 -229t-97.5 -191.5t-161 -132.5t-217 -49q-226 0 -366 133.5t-140 349.5q0 127 37.5 220.5t107.5 149t162 81.5t208 26q165 0 303 -80q-62 294 -273 469l-131 -141l-43 41l125 137q-128 91 -297 141l12 41
q185 -41 336 -125l129 140zM950 598q0 68 -10 160q-155 135 -319 135q-88 0 -155.5 -36t-107.5 -98t-59.5 -137.5t-19.5 -162.5q0 -56 11.5 -114t37.5 -115.5t63.5 -102t94.5 -72.5t126 -28q72 0 130 34.5t96 91t64 131.5t37 153.5t11 160.5z" />
    <glyph glyph-name="ntilde" unicode="&#xf1;" horiz-adv-x="1181" 
d="M205 909l-105 43v27h258v-178q20 87 107.5 143.5t202.5 56.5q50 0 95.5 -11.5t88.5 -38t74 -66.5t50 -101.5t19 -138.5v-575l125 -41v-29h-278v627q0 142 -55.5 219.5t-165.5 77.5q-50 0 -95 -15.5t-83.5 -47.5t-61.5 -89.5t-23 -134.5v-567l125 -41v-29h-403v27l125 43
v839zM829 1384h35q0 -92 -37.5 -154.5t-103.5 -62.5q-32 0 -66 15t-59 33.5t-58 33.5t-63 15q-43 0 -66.5 -29.5t-23.5 -69.5h-35q0 84 42.5 148.5t121.5 64.5q45 0 91.5 -25.5t86 -51t66.5 -25.5q29 0 49 28t20 80z" />
    <glyph glyph-name="ograve" unicode="&#xf2;" horiz-adv-x="1175" 
d="M1071 500q0 -237 -134 -378.5t-349 -141.5t-349.5 141.5t-134.5 378.5q0 232 134 366.5t350 134.5t349.5 -134.5t133.5 -366.5zM276 496q0 -102 19 -186.5t56 -148t97.5 -99t139.5 -35.5q104 0 175.5 62.5t103.5 165.5t32 241q0 209 -78 333.5t-233 124.5t-233.5 -124.5
t-78.5 -333.5zM627 1137h-33l-320 344h181z" />
    <glyph glyph-name="oacute" unicode="&#xf3;" horiz-adv-x="1175" 
d="M1071 500q0 -237 -134 -378.5t-349 -141.5t-349.5 141.5t-134.5 378.5q0 232 134 366.5t350 134.5t349.5 -134.5t133.5 -366.5zM276 496q0 -102 19 -186.5t56 -148t97.5 -99t139.5 -35.5q104 0 175.5 62.5t103.5 165.5t32 241q0 209 -78 333.5t-233 124.5t-233.5 -124.5
t-78.5 -333.5zM567 1141h-32l172 344h188z" />
    <glyph glyph-name="ocircumflex" unicode="&#xf4;" horiz-adv-x="1175" 
d="M1071 500q0 -237 -134 -378.5t-349 -141.5t-349.5 141.5t-134.5 378.5q0 232 134 366.5t350 134.5t349.5 -134.5t133.5 -366.5zM276 496q0 -102 19 -186.5t56 -148t97.5 -99t139.5 -35.5q104 0 175.5 62.5t103.5 165.5t32 241q0 209 -78 333.5t-233 124.5t-233.5 -124.5
t-78.5 -333.5zM549 1440h74l241 -293l-24 -21l-254 205l-254 -205l-27 21z" />
    <glyph glyph-name="otilde" unicode="&#xf5;" horiz-adv-x="1175" 
d="M1071 500q0 -237 -134 -378.5t-349 -141.5t-349.5 141.5t-134.5 378.5q0 232 134 366.5t350 134.5t349.5 -134.5t133.5 -366.5zM276 496q0 -102 19 -186.5t56 -148t97.5 -99t139.5 -35.5q104 0 175.5 62.5t103.5 165.5t32 241q0 209 -78 333.5t-233 124.5t-233.5 -124.5
t-78.5 -333.5zM807 1384h35q0 -92 -38 -154.5t-104 -62.5q-32 0 -66 15t-58.5 33.5t-57.5 33.5t-63 15q-43 0 -66.5 -29.5t-23.5 -69.5h-35q0 84 42.5 148.5t121.5 64.5q36 0 73 -16t63 -35t55.5 -35t51.5 -16q29 0 49.5 28t20.5 80z" />
    <glyph glyph-name="odieresis" unicode="&#xf6;" horiz-adv-x="1175" 
d="M1071 500q0 -237 -134 -378.5t-349 -141.5t-349.5 141.5t-134.5 378.5q0 232 134 366.5t350 134.5t349.5 -134.5t133.5 -366.5zM276 496q0 -102 19 -186.5t56 -148t97.5 -99t139.5 -35.5q104 0 175.5 62.5t103.5 165.5t32 241q0 209 -78 333.5t-233 124.5t-233.5 -124.5
t-78.5 -333.5zM256 1231q0 47 28 77.5t78 30.5q51 0 79 -31t28 -77q0 -45 -28 -74t-79 -29t-78.5 29t-27.5 74zM702 1231q0 46 28 77t79 31q50 0 78 -30.5t28 -77.5q0 -45 -27.5 -74t-78.5 -29t-79 29t-28 74z" />
    <glyph glyph-name="divide" unicode="&#xf7;" horiz-adv-x="894" 
d="M840 369h-781v59h781v-59zM328 86q0 48 29 80.5t81 32.5q53 0 83 -32.5t30 -80.5q0 -46 -29.5 -76t-83.5 -30q-52 0 -81 30t-29 76zM328 721q0 48 29 80.5t81 32.5q53 0 83 -32.5t30 -80.5q0 -46 -30 -76.5t-83 -30.5q-52 0 -81 30.5t-29 76.5z" />
    <glyph glyph-name="oslash" unicode="&#xf8;" horiz-adv-x="1175" 
d="M313 -82h-82l80 139q-98 67 -152.5 181t-54.5 262q0 232 134 366.5t350 134.5q135 0 239 -55l66 115h82l-88 -152q88 -64 136 -168.5t48 -240.5q0 -237 -134 -378.5t-349 -141.5q-115 0 -213 45zM276 496q0 -231 86 -353l422 731q-77 80 -196 80q-155 0 -233.5 -124.5
t-78.5 -333.5zM899 496q0 193 -68 317l-419 -725q67 -61 176 -61q104 0 175.5 62.5t103.5 165.5t32 241z" />
    <glyph glyph-name="ugrave" unicode="&#xf9;" 
d="M59 979h279v-639q0 -127 55.5 -199.5t169.5 -72.5q47 0 89.5 13t80.5 42t62 82t26 125v579l-125 41v29h279v-905l104 -43v-27h-258v154q-20 -75 -108.5 -125.5t-202.5 -50.5q-62 0 -118 18.5t-104 56.5t-76 106t-28 159v587l-125 41v29zM600 1137h-33l-319 344h180z" />
    <glyph glyph-name="uacute" unicode="&#xfa;" 
d="M59 979h279v-639q0 -127 55.5 -199.5t169.5 -72.5q47 0 89.5 13t80.5 42t62 82t26 125v579l-125 41v29h279v-905l104 -43v-27h-258v154q-20 -75 -108.5 -125.5t-202.5 -50.5q-62 0 -118 18.5t-104 56.5t-76 106t-28 159v587l-125 41v29zM541 1141h-33l172 344h188z" />
    <glyph glyph-name="ucircumflex" unicode="&#xfb;" 
d="M59 979h279v-639q0 -127 55.5 -199.5t169.5 -72.5q47 0 89.5 13t80.5 42t62 82t26 125v579l-125 41v29h279v-905l104 -43v-27h-258v154q-20 -75 -108.5 -125.5t-202.5 -50.5q-62 0 -118 18.5t-104 56.5t-76 106t-28 159v587l-125 41v29zM524 1440h74l242 -293l-25 -21
l-254 205l-254 -205l-26 21z" />
    <glyph glyph-name="udieresis" unicode="&#xfc;" 
d="M59 979h279v-639q0 -127 55.5 -199.5t169.5 -72.5q47 0 89.5 13t80.5 42t62 82t26 125v579l-125 41v29h279v-905l104 -43v-27h-258v154q-20 -75 -108.5 -125.5t-202.5 -50.5q-62 0 -118 18.5t-104 56.5t-76 106t-28 159v587l-125 41v29zM229 1231q0 46 28 77t79 31
q50 0 78 -30.5t28 -77.5q0 -45 -27.5 -74t-78.5 -29t-79 29t-28 74zM676 1231q0 47 28 77.5t78 30.5q51 0 79 -31t28 -77q0 -45 -28 -74t-79 -29t-78.5 29t-27.5 74z" />
    <glyph glyph-name="yacute" unicode="&#xfd;" horiz-adv-x="1021" 
d="M184 -455q-89 0 -144.5 38.5t-55.5 103.5q0 57 38.5 92t100.5 35q27 0 65 -15q-34 -12 -53.5 -40t-19.5 -66q0 -39 25.5 -62.5t74.5 -23.5q75 0 148.5 72t123.5 231l11 31q11 28 1 43.5t-46 15.5l-330 909l-109 43v27h377v-27l-108 -43l280 -788l273 788l-105 43v27h291
v-27l-117 -43l-356 -1013q-63 -179 -153 -265t-212 -86zM549 1141h-33l172 344h189z" />
    <glyph glyph-name="thorn" unicode="&#xfe;" horiz-adv-x="1202" 
d="M1096 492q0 -114 -28.5 -204.5t-74.5 -147t-107.5 -93.5t-123.5 -52t-127 -15q-121 0 -200.5 38t-119.5 132v-498h-135v1681h135v-563q47 124 134 177.5t210 53.5q195 0 316 -136t121 -373zM315 514v-39q1 -48 6 -92t16 -97.5t32.5 -97t51.5 -80.5t77.5 -58t107.5 -21
q57 0 104 19t77.5 48.5t53 72t34.5 82t19 87t9 79.5t2 66q0 39 -2 73t-9.5 79t-20.5 81t-37 73t-56.5 61.5t-81.5 40.5t-110 16q-55 0 -99 -16t-72 -40t-48.5 -62t-30.5 -70t-15.5 -76t-6.5 -69t-1 -60z" />
    <glyph glyph-name="ydieresis" unicode="&#xff;" horiz-adv-x="1021" 
d="M184 -455q-89 0 -144.5 38.5t-55.5 103.5q0 57 38.5 92t100.5 35q27 0 65 -15q-34 -12 -53.5 -40t-19.5 -66q0 -39 25.5 -62.5t74.5 -23.5q75 0 148.5 72t123.5 231l11 31q11 28 1 43.5t-46 15.5l-330 909l-109 43v27h377v-27l-108 -43l280 -788l273 788l-105 43v27h291
v-27l-117 -43l-356 -1013q-63 -179 -153 -265t-212 -86zM238 1231q0 47 28 77.5t78 30.5q51 0 79 -31t28 -77q0 -45 -28 -74t-79 -29t-78.5 29t-27.5 74zM684 1231q0 46 28 77t79 31q50 0 78 -30.5t28 -77.5q0 -45 -27.5 -74t-78.5 -29t-79 29t-28 74z" />
    <glyph glyph-name="Amacron" unicode="&#x100;" horiz-adv-x="1388" 
d="M1104 70l-146 352h-618l-133 -352l145 -41v-29h-372v27l145 43l539 1384h36l584 -1384l146 -43v-27h-472v29zM637 1206l-272 -719h567zM434 1556v60h494v-60h-494z" />
    <glyph glyph-name="amacron" unicode="&#x101;" horiz-adv-x="1120" 
d="M508 952q-110 0 -159.5 -50t-49.5 -132q0 -85 45 -137q-27 -10 -61 -10q-56 0 -89.5 33t-33.5 100q0 115 98.5 180t249.5 65q58 0 108.5 -10t103 -38.5t89.5 -73.5t60.5 -121t23.5 -176v-392q0 -129 68 -129q38 0 59.5 40.5t21.5 121.5h39q0 -243 -180 -243
q-143 0 -160 151q-134 -154 -352 -154q-141 0 -219 67t-78 202q0 49 11.5 88t43 77t83 63t136.5 40.5t199 15.5h174v52q0 113 -16 188t-48.5 113.5t-71.5 53.5t-95 15zM455 53q72 0 147 32.5t137 102.5v293h-174q-92 0 -155 -17t-95.5 -49t-45.5 -69.5t-13 -87.5
q0 -205 199 -205zM262 1102v59h494v-59h-494z" />
    <glyph glyph-name="Abreve" unicode="&#x102;" horiz-adv-x="1388" 
d="M1104 70l-146 352h-618l-133 -352l145 -41v-29h-372v27l145 43l539 1384h36l584 -1384l146 -43v-27h-472v29zM637 1206l-272 -719h567zM862 1845h31q0 -119 -61.5 -190.5t-172.5 -71.5q-110 0 -171.5 71.5t-61.5 190.5h31q0 -41 18.5 -72t49 -48t64.5 -25t70 -8
q50 0 93.5 13.5t76.5 49.5t33 90z" />
    <glyph glyph-name="abreve" unicode="&#x103;" horiz-adv-x="1120" 
d="M508 952q-110 0 -159.5 -50t-49.5 -132q0 -85 45 -137q-27 -10 -61 -10q-56 0 -89.5 33t-33.5 100q0 115 98.5 180t249.5 65q58 0 108.5 -10t103 -38.5t89.5 -73.5t60.5 -121t23.5 -176v-392q0 -129 68 -129q38 0 59.5 40.5t21.5 121.5h39q0 -243 -180 -243
q-143 0 -160 151q-134 -154 -352 -154q-141 0 -219 67t-78 202q0 49 11.5 88t43 77t83 63t136.5 40.5t199 15.5h174v52q0 113 -16 188t-48.5 113.5t-71.5 53.5t-95 15zM455 53q72 0 147 32.5t137 102.5v293h-174q-92 0 -155 -17t-95.5 -49t-45.5 -69.5t-13 -87.5
q0 -205 199 -205zM713 1391h30q0 -119 -61.5 -191t-171.5 -72q-111 0 -172.5 72t-61.5 191h31q0 -54 33 -90.5t76.5 -50t93.5 -13.5t93.5 13.5t76.5 50t33 90.5z" />
    <glyph glyph-name="Aogonek" unicode="&#x104;" horiz-adv-x="1388" 
d="M1262 -410q-108 0 -165 35t-57 96q0 37 19.5 66.5t48 51t57 42.5t50 51.5t24.5 67.5h-281v29l146 41l-146 352h-618l-133 -352l145 -41v-29h-372v27l145 43l539 1384h36l584 -1384l146 -43v-27h-162v-29q-1 -48 -23.5 -90.5t-44.5 -83t-22 -84.5q0 -43 24.5 -65.5
t59.5 -22.5q37 0 62.5 22t25.5 62q0 51 -37 88q21 8 45 8q46 0 69 -25t23 -61q0 -57 -54 -93t-134 -36zM637 1206l-272 -719h567z" />
    <glyph glyph-name="aogonek" unicode="&#x105;" horiz-adv-x="1120" 
d="M903 -410q-108 0 -164.5 35t-56.5 96q0 35 17.5 63.5t44 49t54 40.5t50 48t29.5 60q-121 10 -136 149q-134 -154 -352 -154q-141 0 -219 67t-78 202q0 49 11.5 88t43 77t83 63t136.5 40.5t199 15.5h174v52q0 113 -16 188t-48.5 113.5t-71.5 53.5t-95 15
q-110 0 -159.5 -50t-49.5 -132q0 -85 45 -137q-27 -10 -61 -10q-56 0 -89.5 33t-33.5 100q0 115 98.5 180t249.5 65q58 0 108.5 -10t103 -38.5t89.5 -73.5t60.5 -121t23.5 -176v-392q0 -129 68 -129q38 0 59.5 40.5t21.5 121.5h39q0 -237 -172 -243v-9q-1 -48 -23.5 -90.5
t-44.5 -83t-22 -84.5q0 -43 24.5 -65.5t59.5 -22.5q37 0 62.5 22t25.5 62q0 51 -37 88q21 8 45 8q46 0 69.5 -25t23.5 -61q0 -57 -54.5 -93t-134.5 -36zM455 53q72 0 147 32.5t137 102.5v293h-174q-92 0 -155 -17t-95.5 -49t-45.5 -69.5t-13 -87.5q0 -205 199 -205z" />
    <glyph glyph-name="Cacute" unicode="&#x106;" horiz-adv-x="1325" 
d="M768 -20q-207 0 -355.5 92.5t-223 255.5t-74.5 379q0 179 51.5 323t140.5 235t204.5 139t246.5 48q108 0 195 -30t139.5 -79.5t80 -109.5t27.5 -123q0 -110 -60 -174t-141 -64q-28 0 -53 11q96 83 96 225q0 136 -71.5 213.5t-212.5 77.5q-219 0 -335 -183.5t-116 -515.5
q0 -661 469 -661q333 0 484 260l40 -23q-28 -47 -58.5 -86t-77.5 -79.5t-101.5 -68t-130.5 -45t-164 -17.5zM741 1593h-32l172 344h188z" />
    <glyph glyph-name="cacute" unicode="&#x107;" horiz-adv-x="1054" 
d="M588 954q-146 0 -230 -124.5t-84 -352.5q0 -70 9.5 -131.5t33.5 -120.5t61.5 -101t97.5 -67.5t138 -25.5q125 0 209.5 47t128.5 117l39 -21q-117 -194 -393 -194q-236 0 -366 137.5t-130 361.5q0 235 136.5 378.5t349.5 143.5q151 0 251.5 -65.5t100.5 -179.5
q0 -68 -34.5 -103t-92.5 -35q-19 0 -59 9q45 61 45 135q0 84 -54.5 138t-156.5 54zM539 1081h-33l172 344h188z" />
    <glyph glyph-name="Ccircumflex" unicode="&#x108;" horiz-adv-x="1325" 
d="M768 -20q-207 0 -355.5 92.5t-223 255.5t-74.5 379q0 179 51.5 323t140.5 235t204.5 139t246.5 48q108 0 195 -30t139.5 -79.5t80 -109.5t27.5 -123q0 -110 -60 -174t-141 -64q-28 0 -53 11q96 83 96 225q0 136 -71.5 213.5t-212.5 77.5q-219 0 -335 -183.5t-116 -515.5
q0 -661 469 -661q333 0 484 260l40 -23q-28 -47 -58.5 -86t-77.5 -79.5t-101.5 -68t-130.5 -45t-164 -17.5zM725 1892h74l241 -293l-24 -20l-254 205l-254 -205l-27 20z" />
    <glyph glyph-name="ccircumflex" unicode="&#x109;" horiz-adv-x="1054" 
d="M588 954q-146 0 -230 -124.5t-84 -352.5q0 -70 9.5 -131.5t33.5 -120.5t61.5 -101t97.5 -67.5t138 -25.5q125 0 209.5 47t128.5 117l39 -21q-117 -194 -393 -194q-236 0 -366 137.5t-130 361.5q0 235 136.5 378.5t349.5 143.5q151 0 251.5 -65.5t100.5 -179.5
q0 -68 -34.5 -103t-92.5 -35q-19 0 -59 9q45 61 45 135q0 84 -54.5 138t-156.5 54zM510 1382h74l241 -292l-24 -21l-254 205l-254 -205l-27 21z" />
    <glyph glyph-name="Cdotaccent" unicode="&#x10a;" horiz-adv-x="1325" 
d="M768 -20q-207 0 -355.5 92.5t-223 255.5t-74.5 379q0 179 51.5 323t140.5 235t204.5 139t246.5 48q108 0 195 -30t139.5 -79.5t80 -109.5t27.5 -123q0 -110 -60 -174t-141 -64q-28 0 -53 11q96 83 96 225q0 136 -71.5 213.5t-212.5 77.5q-219 0 -335 -183.5t-116 -515.5
q0 -661 469 -661q333 0 484 260l40 -23q-28 -47 -58.5 -86t-77.5 -79.5t-101.5 -68t-130.5 -45t-164 -17.5zM649 1794q0 48 29.5 81.5t81.5 33.5t81 -33.5t29 -81.5q0 -46 -29 -75t-81 -29t-81.5 29t-29.5 75z" />
    <glyph glyph-name="cdotaccent" unicode="&#x10b;" horiz-adv-x="1054" 
d="M588 954q-146 0 -230 -124.5t-84 -352.5q0 -70 9.5 -131.5t33.5 -120.5t61.5 -101t97.5 -67.5t138 -25.5q125 0 209.5 47t128.5 117l39 -21q-117 -194 -393 -194q-236 0 -366 137.5t-130 361.5q0 235 136.5 378.5t349.5 143.5q151 0 251.5 -65.5t100.5 -179.5
q0 -68 -34.5 -103t-92.5 -35q-19 0 -59 9q45 61 45 135q0 84 -54.5 138t-156.5 54zM436 1284q0 48 29.5 81.5t81.5 33.5t81 -33.5t29 -81.5q0 -46 -29 -75t-81 -29t-81.5 29t-29.5 75z" />
    <glyph glyph-name="Ccaron" unicode="&#x10c;" horiz-adv-x="1325" 
d="M768 -20q-207 0 -355.5 92.5t-223 255.5t-74.5 379q0 179 51.5 323t140.5 235t204.5 139t246.5 48q108 0 195 -30t139.5 -79.5t80 -109.5t27.5 -123q0 -110 -60 -174t-141 -64q-28 0 -53 11q96 83 96 225q0 136 -71.5 213.5t-212.5 77.5q-219 0 -335 -183.5t-116 -515.5
q0 -661 469 -661q333 0 484 260l40 -23q-28 -47 -58.5 -86t-77.5 -79.5t-101.5 -68t-130.5 -45t-164 -17.5zM797 1591h-74l-244 293l27 21l254 -189l254 189l24 -21z" />
    <glyph glyph-name="ccaron" unicode="&#x10d;" horiz-adv-x="1054" 
d="M588 954q-146 0 -230 -124.5t-84 -352.5q0 -70 9.5 -131.5t33.5 -120.5t61.5 -101t97.5 -67.5t138 -25.5q125 0 209.5 47t128.5 117l39 -21q-117 -194 -393 -194q-236 0 -366 137.5t-130 361.5q0 235 136.5 378.5t349.5 143.5q151 0 251.5 -65.5t100.5 -179.5
q0 -68 -34.5 -103t-92.5 -35q-19 0 -59 9q45 61 45 135q0 84 -54.5 138t-156.5 54zM584 1081h-74l-244 293l27 21l254 -189l254 189l24 -21z" />
    <glyph glyph-name="Dcaron" unicode="&#x10e;" horiz-adv-x="1429" 
d="M252 1364l-125 43v27h455q179 0 319 -54t229.5 -151t136 -228t46.5 -288q0 -328 -189.5 -520.5t-541.5 -192.5h-455v27l125 43v1294zM567 1374h-151v-1317h151q127 0 224.5 31t161.5 86t105 138.5t58 182t17 222.5q0 123 -16.5 220t-56.5 180.5t-103.5 139t-161.5 86.5
t-228 31zM784 1593h-73l-244 293l27 21l254 -189l253 189l25 -21z" />
    <glyph glyph-name="dcaron" unicode="&#x10f;" horiz-adv-x="1263" 
d="M106 483q0 244 124.5 381t316.5 137q237 0 323 -208v673l-122 41v29h274v-1466l125 -41v-29h-277v186q-86 -206 -319 -206q-69 0 -132.5 17.5t-121 56.5t-99.5 96t-67 142.5t-25 190.5zM575 37q65 0 116.5 26t82.5 65t52.5 93.5t31 103t12.5 101.5v123q-3 53 -12 101.5
t-30 104t-51.5 96t-82 67t-116.5 26.5q-144 0 -218.5 -125.5t-74.5 -335.5q0 -219 79 -332.5t211 -113.5zM1145 1448q0 45 29.5 75.5t72.5 30.5q54 0 85.5 -34.5t31.5 -106.5q0 -96 -62.5 -182t-146.5 -146l-16 25q58 51 96.5 118.5t50.5 135.5q-15 -25 -57 -25
q-38 0 -61 27.5t-23 81.5z" />
    <glyph glyph-name="Dcroat" unicode="&#x110;" horiz-adv-x="1431" 
d="M252 1364l-125 43v27h455q179 0 319 -54t229.5 -151t136 -228t46.5 -288q0 -328 -189.5 -520.5t-541.5 -192.5h-455v27l125 43v606h-121v59h121v629zM743 676h-327v-619h151q127 0 224.5 31t161.5 86t105 138.5t58 182t17 222.5q0 123 -16.5 220t-56.5 180.5t-103.5 139
t-161.5 86.5t-228 31h-151v-639h327v-59z" />
    <glyph glyph-name="dcroat" unicode="&#x111;" horiz-adv-x="1218" 
d="M1153 1251h-131v-1181l125 -41v-29h-277v186q-86 -206 -319 -206q-69 0 -132.5 17.5t-121 56.5t-99.5 96t-67 142.5t-25 190.5q0 244 124.5 381t316.5 137q237 0 323 -208v458h-329v60h329v155l-122 41v29h274v-225h131v-60zM575 37q65 0 116.5 26t82.5 65t52.5 93.5
t31 103t12.5 101.5v123q-3 53 -12 101.5t-30 104t-51.5 96t-82 67t-116.5 26.5q-144 0 -218.5 -125.5t-74.5 -335.5q0 -219 79 -332.5t211 -113.5z" />
    <glyph glyph-name="Emacron" unicode="&#x112;" horiz-adv-x="1234" 
d="M252 1364l-125 43v27h967v-328h-33q-18 75 -32 115.5t-33 75.5t-46.5 49.5t-65 22t-96.5 7.5h-372v-618l207 2q27 2 48 8t36 11.5t28 21.5t20.5 26t17 37t14.5 42.5t16 54.5h33v-459h-33q-13 43 -18.5 60t-16.5 45t-20.5 38t-26 24t-37 19.5t-49.5 9.5l-219 2v-645h356
q57 0 97 5t71 20.5t50 32.5t35.5 52.5t26.5 68.5t25 92h33v-326h-983v27l125 43v1294zM401 1556v60h494v-60h-494z" />
    <glyph glyph-name="emacron" unicode="&#x113;" horiz-adv-x="1071" 
d="M545 1001q192 0 310 -134t118 -363v-29h-697q0 -61 6.5 -115.5t27 -117t54 -107t93.5 -74.5t139 -30q116 0 201 51.5t121 124.5l34 -21q-115 -206 -374 -206q-232 0 -352 134.5t-120 362.5q0 237 125.5 380.5t313.5 143.5zM545 954q-85 0 -146 -63t-89.5 -155.5
t-33.5 -207.5h533q-2 82 -15.5 153t-42.5 135t-82 101t-124 37zM297 1102v59h494v-59h-494z" />
    <glyph glyph-name="Ebreve" unicode="&#x114;" horiz-adv-x="1234" 
d="M252 1364l-125 43v27h967v-328h-33q-18 75 -32 115.5t-33 75.5t-46.5 49.5t-65 22t-96.5 7.5h-372v-618l207 2q27 2 48 8t36 11.5t28 21.5t20.5 26t17 37t14.5 42.5t16 54.5h33v-459h-33q-13 43 -18.5 60t-16.5 45t-20.5 38t-26 24t-37 19.5t-49.5 9.5l-219 2v-645h356
q57 0 97 5t71 20.5t50 32.5t35.5 52.5t26.5 68.5t25 92h33v-326h-983v27l125 43v1294zM852 1845h31q0 -119 -61.5 -190.5t-172.5 -71.5q-110 0 -171.5 71.5t-61.5 190.5h30q0 -54 33 -90t76.5 -49.5t93.5 -13.5t93.5 13.5t76.5 49.5t33 90z" />
    <glyph glyph-name="ebreve" unicode="&#x115;" horiz-adv-x="1071" 
d="M545 1001q192 0 310 -134t118 -363v-29h-697q0 -61 6.5 -115.5t27 -117t54 -107t93.5 -74.5t139 -30q116 0 201 51.5t121 124.5l34 -21q-115 -206 -374 -206q-232 0 -352 134.5t-120 362.5q0 237 125.5 380.5t313.5 143.5zM545 954q-85 0 -146 -63t-89.5 -155.5
t-33.5 -207.5h533q-2 82 -15.5 153t-42.5 135t-82 101t-124 37zM748 1391h30q0 -119 -61.5 -191t-171.5 -72q-111 0 -172.5 72t-61.5 191h31q0 -54 33 -90.5t76.5 -50t93.5 -13.5t93.5 13.5t76.5 50t33 90.5z" />
    <glyph glyph-name="Edotaccent" unicode="&#x116;" horiz-adv-x="1234" 
d="M252 1364l-125 43v27h967v-328h-33q-18 75 -32 115.5t-33 75.5t-46.5 49.5t-65 22t-96.5 7.5h-372v-618l207 2q27 2 48 8t36 11.5t28 21.5t20.5 26t17 37t14.5 42.5t16 54.5h33v-459h-33q-13 43 -18.5 60t-16.5 45t-20.5 38t-26 24t-37 19.5t-49.5 9.5l-219 2v-645h356
q57 0 97 5t71 20.5t50 32.5t35.5 52.5t26.5 68.5t25 92h33v-326h-983v27l125 43v1294zM539 1796q0 48 29 81.5t81 33.5t81.5 -33.5t29.5 -81.5q0 -46 -29.5 -75t-81.5 -29t-81 29t-29 75z" />
    <glyph glyph-name="edotaccent" unicode="&#x117;" horiz-adv-x="1071" 
d="M545 1001q192 0 310 -134t118 -363v-29h-697q0 -61 6.5 -115.5t27 -117t54 -107t93.5 -74.5t139 -30q116 0 201 51.5t121 124.5l34 -21q-115 -206 -374 -206q-232 0 -352 134.5t-120 362.5q0 237 125.5 380.5t313.5 143.5zM545 954q-85 0 -146 -63t-89.5 -155.5
t-33.5 -207.5h533q-2 82 -15.5 153t-42.5 135t-82 101t-124 37zM434 1341q0 48 29.5 81.5t81.5 33.5t81 -33.5t29 -81.5q0 -46 -29 -75t-81 -29t-81.5 29t-29.5 75z" />
    <glyph glyph-name="Eogonek" unicode="&#x118;" horiz-adv-x="1234" 
d="M725 -410q-108 0 -164.5 35t-56.5 96q0 37 19.5 66.5t47.5 51t56.5 42.5t50 51.5t24.5 67.5h-575v27l125 43v1294l-125 43v27h967v-328h-33q-18 75 -32 115.5t-33 75.5t-46.5 49.5t-65 22t-96.5 7.5h-372v-618l207 2q27 2 48 8t36 11.5t28 21.5t20.5 26t17 37t14.5 42.5
t16 54.5h33v-459h-33q-13 43 -18.5 60t-16.5 45t-20.5 38t-26 24t-37 19.5t-49.5 9.5l-219 2v-645h356q57 0 97 5t71 20.5t50 32.5t35.5 52.5t26.5 68.5t25 92h33v-326h-379v-29q-1 -48 -23.5 -90.5t-44.5 -83t-22 -84.5q0 -43 24.5 -65.5t59.5 -22.5q37 0 62.5 22t25.5 62
q0 51 -37 88q21 8 45 8q46 0 69 -25t23 -61q0 -57 -54 -93t-134 -36z" />
    <glyph glyph-name="eogonek" unicode="&#x119;" horiz-adv-x="1071" 
d="M580 -410q-108 0 -165 35t-57 96q0 35 17.5 63t44 49t54 40.5t50 47t29.5 59.5q-148 5 -249.5 69.5t-149.5 173t-48 254.5q0 237 125.5 380.5t313.5 143.5q192 0 310 -134t118 -363v-29h-697q0 -61 6.5 -115.5t27 -117t54 -107t93.5 -74.5t139 -30q116 0 201 51.5
t121 124.5l34 -21q-112 -201 -366 -206v-9q-1 -48 -23.5 -90.5t-44.5 -83t-22 -84.5q0 -43 24.5 -65.5t59.5 -22.5q37 0 62.5 22t25.5 62q0 51 -37 88q21 8 45 8q46 0 69 -25t23 -61q0 -57 -54 -93t-134 -36zM545 954q-85 0 -146 -63t-89.5 -155.5t-33.5 -207.5h533
q-2 82 -15.5 153t-42.5 135t-82 101t-124 37z" />
    <glyph glyph-name="Ecaron" unicode="&#x11a;" horiz-adv-x="1234" 
d="M252 1364l-125 43v27h967v-328h-33q-18 75 -32 115.5t-33 75.5t-46.5 49.5t-65 22t-96.5 7.5h-372v-618l207 2q27 2 48 8t36 11.5t28 21.5t20.5 26t17 37t14.5 42.5t16 54.5h33v-459h-33q-13 43 -18.5 60t-16.5 45t-20.5 38t-26 24t-37 19.5t-49.5 9.5l-219 2v-645h356
q57 0 97 5t71 20.5t50 32.5t35.5 52.5t26.5 68.5t25 92h33v-326h-983v27l125 43v1294zM686 1593h-74l-243 293l26 21l254 -189l254 189l25 -21z" />
    <glyph glyph-name="ecaron" unicode="&#x11b;" horiz-adv-x="1071" 
d="M545 1001q192 0 310 -134t118 -363v-29h-697q0 -61 6.5 -115.5t27 -117t54 -107t93.5 -74.5t139 -30q116 0 201 51.5t121 124.5l34 -21q-115 -206 -374 -206q-232 0 -352 134.5t-120 362.5q0 237 125.5 380.5t313.5 143.5zM545 954q-85 0 -146 -63t-89.5 -155.5
t-33.5 -207.5h533q-2 82 -15.5 153t-42.5 135t-82 101t-124 37zM582 1139h-74l-244 293l27 20l254 -188l254 188l24 -20z" />
    <glyph glyph-name="Gcircumflex" unicode="&#x11c;" horiz-adv-x="1413" 
d="M758 1403q-78 0 -143.5 -26t-111 -69.5t-81 -103.5t-57 -123t-35 -133.5t-18.5 -130t-5 -117.5q0 -65 5.5 -127t19.5 -130t35 -127t55.5 -112.5t79 -91.5t106 -60.5t135.5 -22.5q170 0 252 91t82 245v217l-123 43v26h406v-28l-119 -41v-594h-31q-1 6 -4.5 35t-6.5 43
t-9 35t-16 30.5t-23 9.5q-15 0 -38.5 -16.5t-55.5 -40t-73 -47.5t-105 -40.5t-138 -16.5q-152 0 -274 60t-197.5 162t-115 230.5t-39.5 272.5q0 112 22.5 217t73 202t123.5 169.5t182 115.5t242 43q219 0 351 -95.5t132 -240.5q0 -91 -45.5 -140.5t-124.5 -49.5
q-25 0 -63 10q71 68 71 178q0 141 -86 215t-235 74zM737 1894h74l242 -292l-25 -21l-254 205l-254 -205l-26 21z" />
    <glyph glyph-name="gcircumflex" unicode="&#x11d;" horiz-adv-x="1189" 
d="M987 670q0 -149 -121 -246.5t-307 -97.5q-74 0 -143 16q-133 -29 -133 -119q0 -55 47.5 -79.5t152.5 -24.5h222q123 0 210.5 -20t136 -58.5t70 -86.5t21.5 -112q0 -158 -129.5 -227.5t-395.5 -69.5q-66 0 -122 4t-115 13.5t-103.5 28t-81 45t-56 66.5t-19.5 91
q0 168 246 213q-100 13 -151.5 62t-51.5 116q0 130 180 183q-103 43 -163 125.5t-60 181.5q0 142 122.5 234.5t313.5 92.5q107 0 193 -30q14 82 80 138t171 56q71 0 124 -35.5t53 -107.5q0 -61 -36 -95t-95 -34q-33 0 -68 14q70 44 70 115q0 78 -84 78q-57 0 -104 -41
t-58 -111q87 -43 135.5 -115t48.5 -163zM467 -16q-98 -11 -157.5 -58t-59.5 -131q0 -107 96.5 -152.5t282.5 -45.5q108 0 183.5 14.5t119 42.5t62 65.5t18.5 87.5q0 61 -27.5 98t-102 58t-202.5 21h-213zM291 670q0 -58 14 -108t43.5 -92t82.5 -66.5t124 -24.5
q135 0 199.5 83.5t64.5 209.5q0 125 -63 202.5t-199 77.5t-201 -77t-65 -205zM520 1440h74l242 -293l-25 -21l-254 205l-254 -205l-27 21z" />
    <glyph glyph-name="Gbreve" unicode="&#x11e;" horiz-adv-x="1413" 
d="M758 1403q-78 0 -143.5 -26t-111 -69.5t-81 -103.5t-57 -123t-35 -133.5t-18.5 -130t-5 -117.5q0 -65 5.5 -127t19.5 -130t35 -127t55.5 -112.5t79 -91.5t106 -60.5t135.5 -22.5q170 0 252 91t82 245v217l-123 43v26h406v-28l-119 -41v-594h-31q-1 6 -4.5 35t-6.5 43
t-9 35t-16 30.5t-23 9.5q-15 0 -38.5 -16.5t-55.5 -40t-73 -47.5t-105 -40.5t-138 -16.5q-152 0 -274 60t-197.5 162t-115 230.5t-39.5 272.5q0 112 22.5 217t73 202t123.5 169.5t182 115.5t242 43q219 0 351 -95.5t132 -240.5q0 -91 -45.5 -140.5t-124.5 -49.5
q-25 0 -63 10q71 68 71 178q0 141 -86 215t-235 74zM975 1845h31q0 -119 -61.5 -190.5t-172.5 -71.5q-110 0 -171.5 71.5t-61.5 190.5h30q0 -54 33 -90t76.5 -49.5t93.5 -13.5t93.5 13.5t76.5 49.5t33 90z" />
    <glyph glyph-name="gbreve" unicode="&#x11f;" horiz-adv-x="1189" 
d="M987 670q0 -149 -121 -246.5t-307 -97.5q-74 0 -143 16q-133 -29 -133 -119q0 -55 47.5 -79.5t152.5 -24.5h222q123 0 210.5 -20t136 -58.5t70 -86.5t21.5 -112q0 -158 -129.5 -227.5t-395.5 -69.5q-66 0 -122 4t-115 13.5t-103.5 28t-81 45t-56 66.5t-19.5 91
q0 168 246 213q-100 13 -151.5 62t-51.5 116q0 130 180 183q-103 43 -163 125.5t-60 181.5q0 142 122.5 234.5t313.5 92.5q107 0 193 -30q14 82 80 138t171 56q71 0 124 -35.5t53 -107.5q0 -61 -36 -95t-95 -34q-33 0 -68 14q70 44 70 115q0 78 -84 78q-57 0 -104 -41
t-58 -111q87 -43 135.5 -115t48.5 -163zM467 -16q-98 -11 -157.5 -58t-59.5 -131q0 -107 96.5 -152.5t282.5 -45.5q108 0 183.5 14.5t119 42.5t62 65.5t18.5 87.5q0 61 -27.5 98t-102 58t-202.5 21h-213zM291 670q0 -58 14 -108t43.5 -92t82.5 -66.5t124 -24.5
q135 0 199.5 83.5t64.5 209.5q0 125 -63 202.5t-199 77.5t-201 -77t-65 -205zM758 1391h30q0 -119 -61.5 -191t-171.5 -72t-171.5 72t-61.5 191h30q0 -54 33 -90.5t76.5 -50t93.5 -13.5t93.5 13.5t76.5 50t33 90.5z" />
    <glyph glyph-name="Gdotaccent" unicode="&#x120;" horiz-adv-x="1413" 
d="M758 1403q-78 0 -143.5 -26t-111 -69.5t-81 -103.5t-57 -123t-35 -133.5t-18.5 -130t-5 -117.5q0 -65 5.5 -127t19.5 -130t35 -127t55.5 -112.5t79 -91.5t106 -60.5t135.5 -22.5q170 0 252 91t82 245v217l-123 43v26h406v-28l-119 -41v-594h-31q-1 6 -4.5 35t-6.5 43
t-9 35t-16 30.5t-23 9.5q-15 0 -38.5 -16.5t-55.5 -40t-73 -47.5t-105 -40.5t-138 -16.5q-152 0 -274 60t-197.5 162t-115 230.5t-39.5 272.5q0 112 22.5 217t73 202t123.5 169.5t182 115.5t242 43q219 0 351 -95.5t132 -240.5q0 -91 -45.5 -140.5t-124.5 -49.5
q-25 0 -63 10q71 68 71 178q0 141 -86 215t-235 74zM662 1796q0 48 29 81.5t81 33.5t81.5 -33.5t29.5 -81.5q0 -46 -29.5 -75t-81.5 -29t-81 29t-29 75z" />
    <glyph glyph-name="gdotaccent" unicode="&#x121;" horiz-adv-x="1189" 
d="M987 670q0 -149 -121 -246.5t-307 -97.5q-74 0 -143 16q-133 -29 -133 -119q0 -55 47.5 -79.5t152.5 -24.5h222q123 0 210.5 -20t136 -58.5t70 -86.5t21.5 -112q0 -158 -129.5 -227.5t-395.5 -69.5q-66 0 -122 4t-115 13.5t-103.5 28t-81 45t-56 66.5t-19.5 91
q0 168 246 213q-100 13 -151.5 62t-51.5 116q0 130 180 183q-103 43 -163 125.5t-60 181.5q0 142 122.5 234.5t313.5 92.5q107 0 193 -30q14 82 80 138t171 56q71 0 124 -35.5t53 -107.5q0 -61 -36 -95t-95 -34q-33 0 -68 14q70 44 70 115q0 78 -84 78q-57 0 -104 -41
t-58 -111q87 -43 135.5 -115t48.5 -163zM467 -16q-98 -11 -157.5 -58t-59.5 -131q0 -107 96.5 -152.5t282.5 -45.5q108 0 183.5 14.5t119 42.5t62 65.5t18.5 87.5q0 61 -27.5 98t-102 58t-202.5 21h-213zM291 670q0 -58 14 -108t43.5 -92t82.5 -66.5t124 -24.5
q135 0 199.5 83.5t64.5 209.5q0 125 -63 202.5t-199 77.5t-201 -77t-65 -205zM444 1341q0 48 29.5 81.5t81.5 33.5t81.5 -33.5t29.5 -81.5q0 -46 -29.5 -75t-81.5 -29t-81.5 29t-29.5 75z" />
    <glyph glyph-name="Gcommaaccent" unicode="&#x122;" horiz-adv-x="1413" 
d="M758 1403q-78 0 -143.5 -26t-111 -69.5t-81 -103.5t-57 -123t-35 -133.5t-18.5 -130t-5 -117.5q0 -65 5.5 -127t19.5 -130t35 -127t55.5 -112.5t79 -91.5t106 -60.5t135.5 -22.5q170 0 252 91t82 245v217l-123 43v26h406v-28l-119 -41v-594h-31q-1 6 -4.5 35t-6.5 43
t-9 35t-16 30.5t-23 9.5q-15 0 -38.5 -16.5t-55.5 -40t-73 -47.5t-105 -40.5t-138 -16.5q-152 0 -274 60t-197.5 162t-115 230.5t-39.5 272.5q0 112 22.5 217t73 202t123.5 169.5t182 115.5t242 43q219 0 351 -95.5t132 -240.5q0 -91 -45.5 -140.5t-124.5 -49.5
q-25 0 -63 10q71 68 71 178q0 141 -86 215t-235 74z" />
    <glyph glyph-name="gcommaaccent" unicode="&#x123;" horiz-adv-x="1189" 
d="M987 670q0 -149 -121 -246.5t-307 -97.5q-74 0 -143 16q-133 -29 -133 -119q0 -55 47.5 -79.5t152.5 -24.5h222q123 0 210.5 -20t136 -58.5t70 -86.5t21.5 -112q0 -158 -129.5 -227.5t-395.5 -69.5q-66 0 -122 4t-115 13.5t-103.5 28t-81 45t-56 66.5t-19.5 91
q0 168 246 213q-100 13 -151.5 62t-51.5 116q0 130 180 183q-103 43 -163 125.5t-60 181.5q0 142 122.5 234.5t313.5 92.5q107 0 193 -30q14 82 80 138t171 56q71 0 124 -35.5t53 -107.5q0 -61 -36 -95t-95 -34q-33 0 -68 14q70 44 70 115q0 78 -84 78q-57 0 -104 -41
t-58 -111q87 -43 135.5 -115t48.5 -163zM467 -16q-98 -11 -157.5 -58t-59.5 -131q0 -107 96.5 -152.5t282.5 -45.5q108 0 183.5 14.5t119 42.5t62 65.5t18.5 87.5q0 61 -27.5 98t-102 58t-202.5 21h-213zM291 670q0 -58 14 -108t43.5 -92t82.5 -66.5t124 -24.5
q135 0 199.5 83.5t64.5 209.5q0 125 -63 202.5t-199 77.5t-201 -77t-65 -205zM670 1186q0 -45 -30 -76t-73 -31q-54 0 -85 35t-31 107q0 96 62 181.5t146 145.5l17 -24q-59 -51 -97.5 -118.5t-50.5 -135.5q15 24 58 24q38 0 61 -27t23 -81z" />
    <glyph glyph-name="Hcircumflex" unicode="&#x124;" horiz-adv-x="1501" 
d="M961 27l124 43v614h-669v-614l125 -41v-29h-414v27l125 43v1294l-125 43v27h414v-29l-125 -41v-619h669v619l-124 43v27h413v-29l-125 -41v-1294l125 -41v-29h-413v27zM715 1792h73l242 -293l-24 -20l-254 204l-254 -204l-27 20z" />
    <glyph glyph-name="hcircumflex" unicode="&#x125;" horiz-adv-x="1171" 
d="M1110 0h-279v627q0 146 -66 221.5t-171 75.5q-43 0 -84 -15t-77.5 -45.5t-59.5 -85.5t-25 -127v-581l125 -41v-29h-403v27l125 43v1396l-123 41v29h276v-735q21 87 104 143.5t197 56.5q63 0 120.5 -19t107 -59t79 -111.5t29.5 -166.5v-575l125 -41v-29zM231 1905h74
l242 -293l-25 -21l-254 205l-254 -205l-26 21z" />
    <glyph glyph-name="Hbar" unicode="&#x126;" horiz-adv-x="1503" 
d="M203 1102v59h51v203l-125 43v27h414v-29l-125 -41v-203h278v-59h-278v-15h669v277l-124 43v27h413v-29l-125 -41v-277h125v-59h-125v-958l125 -41v-29h-413v27l124 43v614h-669v-614l125 -41v-29h-414v27l125 43v958h-125v59h125v15h-51zM418 745h669v283h-669v-283z" />
    <glyph glyph-name="hbar" unicode="&#x127;" horiz-adv-x="1171" 
d="M70 1202v60h125v204l-123 41v29h276v-274h332v-60h-332v-401q21 87 104 143.5t197 56.5q63 0 120.5 -19t107 -59t79 -111.5t29.5 -166.5v-575l125 -41v-29h-279v627q0 146 -66 221.5t-171 75.5q-43 0 -84 -15t-77.5 -45.5t-59.5 -85.5t-25 -127v-581l125 -41v-29h-403v27
l125 43v1132h-125z" />
    <glyph glyph-name="Itilde" unicode="&#x128;" horiz-adv-x="667" 
d="M252 1364l-125 43v27h414v-29l-125 -41v-1294l125 -41v-29h-414v27l125 43v1294zM559 1839h35q0 -92 -37.5 -154.5t-103.5 -62.5q-40 0 -83 24t-84.5 48t-78.5 24q-43 0 -66.5 -29t-23.5 -69h-35q0 84 42.5 148.5t121.5 64.5q36 0 73 -16t63 -35t55.5 -35t51.5 -16
q29 0 49.5 28t20.5 80z" />
    <glyph glyph-name="itilde" unicode="&#x129;" horiz-adv-x="552" 
d="M80 27l125 43v839l-105 43v27h258v-909l125 -41v-29h-403v27zM498 1384h34q0 -92 -37.5 -154.5t-103.5 -62.5q-32 0 -66 15t-59 33.5t-58 33.5t-63 15q-43 0 -66.5 -29.5t-23.5 -69.5h-35q0 84 42.5 148.5t121.5 64.5q45 0 91.5 -25.5t86 -51t66.5 -25.5q29 0 49.5 28
t20.5 80z" />
    <glyph glyph-name="Imacron" unicode="&#x12a;" horiz-adv-x="667" 
d="M252 1364l-125 43v27h414v-29l-125 -41v-1294l125 -41v-29h-414v27l125 43v1294zM90 1556v60h494v-60h-494z" />
    <glyph glyph-name="imacron" unicode="&#x12b;" horiz-adv-x="552" 
d="M80 27l125 43v839l-105 43v27h258v-909l125 -41v-29h-403v27zM31 1102v59h493v-59h-493z" />
    <glyph glyph-name="Ibreve" unicode="&#x12c;" horiz-adv-x="667" 
d="M252 1364l-125 43v27h414v-29l-125 -41v-1294l125 -41v-29h-414v27l125 43v1294zM541 1845h30q0 -119 -61.5 -190.5t-171.5 -71.5q-111 0 -172.5 71.5t-61.5 190.5h31q0 -54 33 -90t76.5 -49.5t93.5 -13.5t93.5 13.5t76.5 49.5t33 90z" />
    <glyph glyph-name="ibreve" unicode="&#x12d;" horiz-adv-x="552" 
d="M80 27l125 43v839l-105 43v27h258v-909l125 -41v-29h-403v27zM479 1391h31q0 -119 -61.5 -191t-172.5 -72q-110 0 -171.5 72t-61.5 191h31q0 -54 33 -90.5t76 -50t93 -13.5t93.5 13.5t76.5 50t33 90.5z" />
    <glyph glyph-name="Iogonek" unicode="&#x12e;" horiz-adv-x="667" 
d="M348 -410q-108 0 -164.5 35t-56.5 96q0 37 19.5 66.5t48 51t57 42.5t50 51.5t24.5 67.5h-199v27l125 43v1294l-125 43v27h414v-29l-125 -41v-1294l125 -41v-29h-187v-29q-1 -48 -23.5 -90.5t-44.5 -83t-22 -84.5q0 -43 24.5 -65.5t59.5 -22.5q37 0 62.5 22t25.5 62
q0 51 -37 88q21 8 45 8q46 0 69.5 -25t23.5 -61q0 -57 -54.5 -93t-134.5 -36z" />
    <glyph glyph-name="iogonek" unicode="&#x12f;" horiz-adv-x="552" 
d="M293 -410q-108 0 -164.5 35t-56.5 96q0 37 19.5 66.5t47.5 51t56.5 42.5t50 51.5t24.5 67.5h-190v27l125 43v839l-105 43v27h258v-909l125 -41v-29h-184v-29q-1 -48 -23.5 -90.5t-44.5 -83t-22 -84.5q0 -43 24.5 -65.5t59.5 -22.5q37 0 62.5 22t25.5 62q0 51 -37 88
q21 8 45 8q46 0 69 -25t23 -61q0 -57 -54 -93t-134 -36zM168 1335q0 48 29.5 80.5t81.5 32.5q53 0 81.5 -32t28.5 -81q0 -47 -28.5 -76.5t-81.5 -29.5q-52 0 -81.5 30t-29.5 76z" />
    <glyph glyph-name="Idotaccent" unicode="&#x130;" horiz-adv-x="667" 
d="M252 1364l-125 43v27h414v-29l-125 -41v-1294l125 -41v-29h-414v27l125 43v1294zM227 1796q0 48 29.5 81.5t81.5 33.5t81.5 -33.5t29.5 -81.5q0 -46 -29.5 -75t-81.5 -29t-81.5 29t-29.5 75z" />
    <glyph glyph-name="dotlessi" unicode="&#x131;" horiz-adv-x="552" 
d="M80 27l125 43v839l-105 43v27h258v-909l125 -41v-29h-403v27z" />
    <glyph glyph-name="IJ" unicode="&#x132;" horiz-adv-x="1820" 
d="M252 1364l-125 43v27h414v-29l-125 -41v-1294l125 -41v-29h-414v27l125 43v1294zM1147 41q154 0 222.5 119t68.5 340v864l-125 43v27h416v-29l-125 -41v-860q0 -241 -123.5 -376.5t-333.5 -135.5q-194 0 -296.5 80t-102.5 207q0 73 40.5 120t108.5 47q24 0 66 -10
q-62 -74 -62 -162q0 -36 10.5 -72.5t35.5 -74.5t76.5 -62t123.5 -24z" />
    <glyph glyph-name="ij" unicode="&#x133;" horiz-adv-x="1093" 
d="M762 909l-105 43v27h256v-989q0 -124 -23 -212t-66.5 -137.5t-97.5 -71.5t-124 -22q-96 0 -162.5 38.5t-66.5 117.5q0 61 37.5 98t99.5 37q34 0 61 -16q-75 -37 -75 -123q0 -41 27 -75t79 -34t85 29t54 116.5t21 241.5v932zM80 27l125 43v839l-105 43v27h258v-909
l125 -41v-29h-403v27zM172 1335q0 48 29.5 80.5t81.5 32.5q53 0 81.5 -32t28.5 -81q0 -47 -28.5 -76.5t-81.5 -29.5q-52 0 -81.5 30t-29.5 76zM729 1335q0 48 29.5 80.5t81.5 32.5t81 -32.5t29 -80.5q0 -46 -29 -76t-81 -30t-81.5 30t-29.5 76z" />
    <glyph glyph-name="Jcircumflex" unicode="&#x134;" horiz-adv-x="1122" 
d="M449 41q154 0 222 119t68 340v864l-125 43v27h416v-29l-125 -41v-860q0 -242 -123 -377t-333 -135q-194 0 -297 80t-103 207q0 73 41 120t109 47q23 0 65 -10q-61 -73 -61 -162q0 -36 10.5 -72.5t35.5 -74.5t76.5 -62t123.5 -24zM788 1894h74l242 -292l-25 -21l-254 205
l-254 -205l-26 21z" />
    <glyph glyph-name="jcircumflex" unicode="&#x135;" horiz-adv-x="540" 
d="M209 909l-105 43v27h256v-989q0 -124 -22.5 -212t-66 -137.5t-97.5 -71.5t-125 -22q-96 0 -162.5 38.5t-66.5 117.5q0 61 37.5 98t99.5 37q32 0 63 -16q-75 -35 -75 -123q0 -42 26 -75.5t78 -33.5t85 29t54 116.5t21 241.5v932zM246 1382h73l242 -292l-24 -21l-254 205
l-254 -205l-27 21z" />
    <glyph glyph-name="Kcommaaccent" unicode="&#x136;" horiz-adv-x="1329" 
d="M909 1434h406v-27l-182 -43h-3l-464 -508l557 -786l125 -43v-27h-281l-514 733l-137 -149v-514l125 -41v-29h-414v27l125 43v1294l-125 43v27h414v-29l-125 -41v-662l618 670l-125 35v27zM596 -252q0 46 29 77.5t73 31.5q53 0 85 -33.5t32 -97.5q0 -182 -209 -338l-16 22
q59 52 97.5 121t49.5 133q-17 -24 -57 -24q-38 0 -61 27t-23 81z" />
    <glyph glyph-name="kcommaaccent" unicode="&#x137;" horiz-adv-x="1089" 
d="M1057 979v-27l-183 -43l-288 -284l385 -555l153 -43v-27h-282l-361 520l-133 -133v-317l125 -41v-29h-403v27l125 43v1396l-123 41v29h276v-1061l447 438l-144 39v27h406zM457 -252q0 46 29 77.5t73 31.5q53 0 85 -33.5t32 -97.5q0 -182 -209 -338l-16 22q59 52 97.5 121
t49.5 133q-17 -24 -57 -24q-38 0 -61 27t-23 81z" />
    <glyph glyph-name="Lacute" unicode="&#x139;" horiz-adv-x="1189" 
d="M127 0v27l125 43v1294l-125 43v27h414v-29l-125 -41v-1309h348q90 0 147 16.5t93.5 58.5t53 105t23.5 164h33v-399h-987zM311 1595h-32l172 344h188z" />
    <glyph glyph-name="lacute" unicode="&#x13a;" horiz-adv-x="542" 
d="M70 27l125 43v1396l-123 41v29h276v-1466l125 -41v-29h-403v27zM250 1686h-33l172 344h189z" />
    <glyph glyph-name="Lcommaaccent" unicode="&#x13b;" horiz-adv-x="1189" 
d="M127 0v27l125 43v1294l-125 43v27h414v-29l-125 -41v-1309h348q90 0 147 16.5t93.5 58.5t53 105t23.5 164h33v-399h-987zM580 -252q0 46 29 77.5t73 31.5q53 0 85 -33.5t32 -97.5q0 -182 -209 -338l-17 22q59 52 98 121.5t50 132.5q-17 -24 -57 -24q-38 0 -61 27t-23 81z
" />
    <glyph glyph-name="lcommaaccent" unicode="&#x13c;" horiz-adv-x="542" 
d="M70 27l125 43v1396l-123 41v29h276v-1466l125 -41v-29h-403v27zM166 -252q0 46 29 77.5t73 31.5q53 0 85 -33.5t32 -97.5q0 -182 -209 -338l-16 22q59 52 97.5 121t49.5 133q-17 -24 -57 -24q-38 0 -61 27t-23 81z" />
    <glyph glyph-name="Lcaron" unicode="&#x13d;" horiz-adv-x="1212" 
d="M127 0v27l125 43v1294l-125 43v27h414v-29l-125 -41v-1309h348q90 0 147 16.5t93.5 58.5t53 105t23.5 164h33v-399h-987zM825 1346q0 45 30 75.5t73 30.5q54 0 85 -34.5t31 -106.5q0 -96 -62 -182t-146 -146l-17 25q59 51 97.5 118.5t50.5 135.5q-15 -25 -58 -25
q-38 0 -61 27.5t-23 81.5z" />
    <glyph glyph-name="lcaron" unicode="&#x13e;" horiz-adv-x="589" 
d="M70 27l125 43v1396l-123 41v29h276v-1466l125 -41v-29h-403v27zM471 1448q0 45 29.5 75.5t72.5 30.5q54 0 85.5 -34.5t31.5 -106.5q0 -96 -62.5 -182t-146.5 -146l-16 25q58 51 96.5 118.5t50.5 135.5q-15 -25 -57 -25q-38 0 -61 27.5t-23 81.5z" />
    <glyph glyph-name="Ldot" unicode="&#x13f;" horiz-adv-x="1189" 
d="M127 0v27l125 43v1294l-125 43v27h414v-29l-125 -41v-1309h348q90 0 147 16.5t93.5 58.5t53 105t23.5 164h33v-399h-987zM672 682q0 -46 29 -76.5t81 -30.5q53 0 83 30.5t30 76.5q0 48 -30 80.5t-83 32.5q-52 0 -81 -32.5t-29 -80.5z" />
    <glyph glyph-name="ldot" unicode="&#x140;" horiz-adv-x="692" 
d="M70 27l125 43v1396l-123 41v29h276v-1466l125 -41v-29h-403v27zM500 713q0 -46 29 -76.5t81 -30.5q53 0 83 30.5t30 76.5q0 48 -30 80t-83 32q-52 0 -81 -32t-29 -80z" />
    <glyph glyph-name="Lslash" unicode="&#x141;" horiz-adv-x="1202" 
d="M123 336v67l129 84v877l-125 43v27h414v-29l-125 -41v-768l473 309v-69l-473 -310v-471h348q90 0 147 16.5t93.5 58.5t53 105t23.5 164h33v-399h-987v27l125 43v350z" />
    <glyph glyph-name="lslash" unicode="&#x142;" horiz-adv-x="647" 
d="M72 569v66l176 84v747l-123 41v29h276v-743l185 90v-68l-185 -88v-657l125 -41v-29h-403v27l125 43v583z" />
    <glyph glyph-name="Nacute" unicode="&#x143;" horiz-adv-x="1517" 
d="M1237 -20l-903 1282v-1192l145 -41v-29h-373v27l146 43v1294l-125 43v27h293l776 -1115v1045l-145 43v27h374v-29l-147 -41v-1384h-41zM750 1595h-33l172 344h188z" />
    <glyph glyph-name="nacute" unicode="&#x144;" horiz-adv-x="1181" 
d="M205 909l-105 43v27h258v-178q20 87 107.5 143.5t202.5 56.5q50 0 95.5 -11.5t88.5 -38t74 -66.5t50 -101.5t19 -138.5v-575l125 -41v-29h-278v627q0 142 -55.5 219.5t-165.5 77.5q-50 0 -95 -15.5t-83.5 -47.5t-61.5 -89.5t-23 -134.5v-567l125 -41v-29h-403v27l125 43
v839zM590 1141h-33l172 344h189z" />
    <glyph glyph-name="Ncommaaccent" unicode="&#x145;" horiz-adv-x="1517" 
d="M1237 -20l-903 1282v-1192l145 -41v-29h-373v27l146 43v1294l-125 43v27h293l776 -1115v1045l-145 43v27h374v-29l-147 -41v-1384h-41zM655 -252q0 46 29.5 77.5t73.5 31.5q53 0 84.5 -33.5t31.5 -97.5q0 -183 -208 -338l-17 22q59 52 98 121.5t50 132.5q-17 -24 -58 -24
q-38 0 -61 27t-23 81z" />
    <glyph glyph-name="ncommaaccent" unicode="&#x146;" horiz-adv-x="1181" 
d="M205 909l-105 43v27h258v-178q20 87 107.5 143.5t202.5 56.5q50 0 95.5 -11.5t88.5 -38t74 -66.5t50 -101.5t19 -138.5v-575l125 -41v-29h-278v627q0 142 -55.5 219.5t-165.5 77.5q-50 0 -95 -15.5t-83.5 -47.5t-61.5 -89.5t-23 -134.5v-567l125 -41v-29h-403v27l125 43
v839zM475 -252q0 46 29.5 77.5t73.5 31.5q53 0 84.5 -33.5t31.5 -97.5q0 -182 -209 -338l-16 22q59 52 97.5 121t49.5 133q-17 -24 -57 -24q-38 0 -61 27t-23 81z" />
    <glyph glyph-name="Ncaron" unicode="&#x147;" horiz-adv-x="1517" 
d="M1237 -20l-903 1282v-1192l145 -41v-29h-373v27l146 43v1294l-125 43v27h293l776 -1115v1045l-145 43v27h374v-29l-147 -41v-1384h-41zM805 1593h-74l-244 293l27 21l254 -189l254 189l25 -21z" />
    <glyph glyph-name="ncaron" unicode="&#x148;" horiz-adv-x="1181" 
d="M205 909l-105 43v27h258v-178q20 87 107.5 143.5t202.5 56.5q50 0 95.5 -11.5t88.5 -38t74 -66.5t50 -101.5t19 -138.5v-575l125 -41v-29h-278v627q0 142 -55.5 219.5t-165.5 77.5q-50 0 -95 -15.5t-83.5 -47.5t-61.5 -89.5t-23 -134.5v-567l125 -41v-29h-403v27l125 43
v839zM645 1139h-74l-243 293l26 20l254 -188l254 188l25 -20z" />
    <glyph glyph-name="napostrophe" unicode="&#x149;" horiz-adv-x="1218" 
d="M242 909l-105 43v27h258v-178q20 87 107.5 143.5t202.5 56.5q50 0 95.5 -11.5t88.5 -38t74 -66.5t50 -101.5t19 -138.5v-575l125 -41v-29h-278v627q0 142 -55.5 219.5t-166.5 77.5q-50 0 -95 -15.5t-83.5 -47.5t-61 -89.5t-22.5 -134.5v-567l125 -41v-29h-403v27l125 43
v839zM-39 1425q0 46 29 77.5t73 31.5q53 0 85 -33.5t32 -97.5q0 -182 -209 -338l-16 22q59 52 97.5 121t49.5 133q-17 -24 -57 -24q-38 0 -61 27t-23 81z" />
    <glyph glyph-name="Eng" unicode="&#x14a;" horiz-adv-x="1517" 
d="M887 -465v53q159 0 235 105t76 293v49l-864 1227v-1192l145 -41v-29h-373v27l146 43v1294l-125 43v27h293l776 -1115v1045l-145 43v27h374v-29l-147 -41v-444h2v-930q0 -215 -106 -335t-287 -120zM887 -412v-53q-160 0 -244 65.5t-84 172.5q0 81 36 132.5t97 51.5
q24 0 66 -10q-33 -41 -47.5 -81t-14.5 -97q0 -29 8 -57t27 -57.5t59.5 -48t96.5 -18.5z" />
    <glyph glyph-name="eng" unicode="&#x14b;" horiz-adv-x="1153" 
d="M80 27l125 43v839l-105 43v27h258v-178q20 87 107.5 143.5t202.5 56.5q50 0 95.5 -11.5t88.5 -38t74 -66.5t50 -101.5t19 -138.5v-692q0 -406 -315 -406q-99 0 -168.5 38t-69.5 114q0 63 39.5 101t102.5 38q42 0 65 -16q-76 -39 -76 -125q0 -42 26.5 -73.5t80.5 -31.5
q50 0 83.5 25.5t56 103.5t22.5 211v695q0 142 -55.5 219.5t-165.5 77.5q-49 0 -93.5 -15t-82.5 -45.5t-61.5 -85.5t-25.5 -127v-581l125 -41v-29h-403v27z" />
    <glyph glyph-name="Omacron" unicode="&#x14c;" horiz-adv-x="1490" 
d="M1376 715q0 -215 -78.5 -382t-222.5 -260t-330 -93t-329.5 93t-222 260.5t-78.5 383.5t78.5 383t222 259.5t329.5 92.5t330 -93t222.5 -260.5t78.5 -383.5zM309 711q0 -111 14 -207.5t47 -183t82.5 -148t124 -97.5t168.5 -36q117 0 204 54.5t137 150t74 212.5t24 255
q0 139 -24 257t-74 215.5t-137.5 153.5t-203.5 56q-94 0 -169 -37t-124 -100t-82 -151t-47 -185.5t-14 -208.5zM508 1556v60h493v-60h-493z" />
    <glyph glyph-name="omacron" unicode="&#x14d;" horiz-adv-x="1175" 
d="M1071 500q0 -237 -134 -378.5t-349 -141.5t-349.5 141.5t-134.5 378.5q0 232 134 366.5t350 134.5t349.5 -134.5t133.5 -366.5zM276 496q0 -102 19 -186.5t56 -148t97.5 -99t139.5 -35.5q104 0 175.5 62.5t103.5 165.5t32 241q0 209 -78 333.5t-233 124.5t-233.5 -124.5
t-78.5 -333.5zM338 1102v59h493v-59h-493z" />
    <glyph glyph-name="Obreve" unicode="&#x14e;" horiz-adv-x="1490" 
d="M1376 715q0 -215 -78.5 -382t-222.5 -260t-330 -93t-329.5 93t-222 260.5t-78.5 383.5t78.5 383t222 259.5t329.5 92.5t330 -93t222.5 -260.5t78.5 -383.5zM309 711q0 -111 14 -207.5t47 -183t82.5 -148t124 -97.5t168.5 -36q117 0 204 54.5t137 150t74 212.5t24 255
q0 139 -24 257t-74 215.5t-137.5 153.5t-203.5 56q-94 0 -169 -37t-124 -100t-82 -151t-47 -185.5t-14 -208.5zM958 1845h31q0 -119 -61.5 -190.5t-171.5 -71.5q-111 0 -172.5 71.5t-61.5 190.5h31q0 -54 33 -90t76.5 -49.5t93.5 -13.5q36 0 70 8t64.5 25t49 48t18.5 72z
" />
    <glyph glyph-name="obreve" unicode="&#x14f;" horiz-adv-x="1175" 
d="M1071 500q0 -237 -134 -378.5t-349 -141.5t-349.5 141.5t-134.5 378.5q0 232 134 366.5t350 134.5t349.5 -134.5t133.5 -366.5zM276 496q0 -102 19 -186.5t56 -148t97.5 -99t139.5 -35.5q104 0 175.5 62.5t103.5 165.5t32 241q0 209 -78 333.5t-233 124.5t-233.5 -124.5
t-78.5 -333.5zM786 1391h31q0 -119 -61.5 -191t-171.5 -72q-111 0 -172.5 72t-61.5 191h31q0 -54 33 -90.5t76.5 -50t93.5 -13.5t93 13.5t76 50t33 90.5z" />
    <glyph glyph-name="Ohungarumlaut" unicode="&#x150;" horiz-adv-x="1490" 
d="M1376 715q0 -215 -78.5 -382t-222.5 -260t-330 -93t-329.5 93t-222 260.5t-78.5 383.5t78.5 383t222 259.5t329.5 92.5t330 -93t222.5 -260.5t78.5 -383.5zM309 711q0 -111 14 -207.5t47 -183t82.5 -148t124 -97.5t168.5 -36q117 0 204 54.5t137 150t74 212.5t24 255
q0 139 -24 257t-74 215.5t-137.5 153.5t-203.5 56q-94 0 -169 -37t-124 -100t-82 -151t-47 -185.5t-14 -208.5zM580 1593h-33l155 303h181zM883 1593h-33l156 303h180z" />
    <glyph glyph-name="ohungarumlaut" unicode="&#x151;" horiz-adv-x="1175" 
d="M1071 500q0 -237 -134 -378.5t-349 -141.5t-349.5 141.5t-134.5 378.5q0 232 134 366.5t350 134.5t349.5 -134.5t133.5 -366.5zM276 496q0 -102 19 -186.5t56 -148t97.5 -99t139.5 -35.5q104 0 175.5 62.5t103.5 165.5t32 241q0 209 -78 333.5t-233 124.5t-233.5 -124.5
t-78.5 -333.5zM412 1139h-33l156 303h180zM715 1139h-33l156 303h180z" />
    <glyph glyph-name="OE" unicode="&#x152;" horiz-adv-x="2091" 
d="M1106 0v76q-164 -96 -367 -96q-180 0 -325 102.5t-224 271.5t-79 367q0 193 79 360t224.5 269t324.5 102q196 0 365 -96v78h846v-328h-33q-15 62 -26 98.5t-27 71t-32.5 50.5t-44 29t-60.5 17t-82 4h-373v-618l207 2q27 2 48 8t36 11.5t28 21.5t20.5 26t17 37t14.5 42.5
t16 54.5h33v-459h-33q-13 43 -18.5 60t-16.5 45t-20.5 38t-26 24t-37 19.5t-49.5 9.5l-219 2v-645h356q57 0 97 5t71 20.5t50 32.5t35.5 52.5t26.5 68.5t25 92h33v-326h-860zM303 721q0 -68 10 -141t30.5 -151.5t55.5 -147.5t81.5 -125t113.5 -88.5t145 -32.5q54 0 98.5 11
t77.5 28.5t59 46t43 57t29 68.5t18.5 72t10 77t4 75t0.5 73v356q0 55 -1.5 92.5t-8.5 94t-20 95.5t-38 83t-60 70.5t-89.5 44.5t-122.5 18q-78 0 -145 -32.5t-113.5 -87.5t-81.5 -123.5t-55.5 -145.5t-30.5 -149t-10 -138z" />
    <glyph glyph-name="oe" unicode="&#x153;" horiz-adv-x="1867" 
d="M1339 1001q192 0 310 -134t118 -363v-29h-696q0 -61 6.5 -115.5t27 -117t54 -107t93.5 -74.5t139 -30q116 0 200.5 51.5t120.5 124.5l35 -21q-115 -206 -375 -206q-277 0 -395 190q-65 -91 -165 -140.5t-224 -49.5q-215 0 -349.5 141.5t-134.5 378.5q0 232 134 366.5
t350 134.5q129 0 232.5 -50.5t166.5 -145.5q60 94 151.5 145t200.5 51zM276 496q0 -102 19 -186.5t56 -148t97.5 -99t139.5 -35.5q104 0 175.5 62.5t103.5 165.5t32 241q0 209 -78 333.5t-233 124.5t-233.5 -124.5t-78.5 -333.5zM1339 954q-64 0 -115 -35.5t-82.5 -96.5
t-49 -135t-21.5 -159h533q-2 82 -16 153t-43 135t-82 101t-124 37z" />
    <glyph glyph-name="Racute" unicode="&#x154;" horiz-adv-x="1335" 
d="M250 1364l-123 43v27h498q526 0 526 -402q0 -186 -111 -276.5t-333 -102.5q85 -59 157 -59l322 -524l143 -43v-27h-287l-395 651h-231v-581l123 -41v-29h-412v27l123 43v1294zM606 1376h-190v-671h190q193 0 282 79t89 248q0 171 -90 257.5t-281 86.5zM623 1595h-33
l172 344h188z" />
    <glyph glyph-name="racute" unicode="&#x155;" horiz-adv-x="907" 
d="M600 930q-30 0 -60.5 -13t-63 -44.5t-58 -79t-42.5 -124t-18 -171.5v-428l125 -41v-29h-403v27l125 43v839l-105 43v27h258v-240q21 119 97 190.5t190 71.5q91 0 154 -48t63 -136q0 -65 -33.5 -102t-89.5 -37q-30 0 -55 10q37 50 37 117q0 56 -30 90.5t-91 34.5z
M475 1141h-33l172 344h189z" />
    <glyph glyph-name="Rcommaaccent" unicode="&#x156;" horiz-adv-x="1335" 
d="M250 1364l-123 43v27h498q526 0 526 -402q0 -186 -111 -276.5t-333 -102.5q85 -59 157 -59l322 -524l143 -43v-27h-287l-395 651h-231v-581l123 -41v-29h-412v27l123 43v1294zM606 1376h-190v-671h190q193 0 282 79t89 248q0 171 -90 257.5t-281 86.5zM637 -252
q0 46 29 77.5t73 31.5q53 0 85 -33.5t32 -97.5q0 -182 -209 -338l-16 22q59 52 97.5 121t49.5 133q-17 -24 -57 -24q-38 0 -61 27t-23 81z" />
    <glyph glyph-name="rcommaaccent" unicode="&#x157;" horiz-adv-x="907" 
d="M600 930q-30 0 -60.5 -13t-63 -44.5t-58 -79t-42.5 -124t-18 -171.5v-428l125 -41v-29h-403v27l125 43v839l-105 43v27h258v-240q21 119 97 190.5t190 71.5q91 0 154 -48t63 -136q0 -65 -33.5 -102t-89.5 -37q-30 0 -55 10q37 50 37 117q0 56 -30 90.5t-91 34.5z
M182 -244q0 46 29.5 77.5t73.5 31.5q53 0 84.5 -33.5t31.5 -97.5q0 -183 -208 -338l-17 22q59 52 98 121.5t50 132.5q-17 -24 -58 -24q-38 0 -61 27t-23 81z" />
    <glyph glyph-name="Rcaron" unicode="&#x158;" horiz-adv-x="1335" 
d="M250 1364l-123 43v27h498q526 0 526 -402q0 -186 -111 -276.5t-333 -102.5q85 -59 157 -59l322 -524l143 -43v-27h-287l-395 651h-231v-581l123 -41v-29h-412v27l123 43v1294zM606 1376h-190v-671h190q193 0 282 79t89 248q0 171 -90 257.5t-281 86.5zM678 1593h-74
l-244 293l27 21l254 -189l254 189l25 -21z" />
    <glyph glyph-name="rcaron" unicode="&#x159;" horiz-adv-x="907" 
d="M600 930q-30 0 -60.5 -13t-63 -44.5t-58 -79t-42.5 -124t-18 -171.5v-428l125 -41v-29h-403v27l125 43v839l-105 43v27h258v-240q21 119 97 190.5t190 71.5q91 0 154 -48t63 -136q0 -65 -33.5 -102t-89.5 -37q-30 0 -55 10q37 50 37 117q0 56 -30 90.5t-91 34.5z
M530 1139h-73l-244 293l27 20l254 -188l254 188l24 -20z" />
    <glyph glyph-name="Sacute" unicode="&#x15a;" horiz-adv-x="1144" 
d="M575 1403q-131 0 -206.5 -73t-75.5 -189q0 -64 25.5 -115.5t68.5 -86.5t98.5 -64.5t117.5 -55.5t123.5 -53t117 -63t98.5 -80.5t68.5 -110t25.5 -147.5q0 -98 -36 -173t-100.5 -120.5t-149 -68.5t-187.5 -23q-196 0 -327.5 79.5t-131.5 202.5q0 77 44 132t108 55
q29 0 59 -9q-35 -25 -58.5 -67.5t-23.5 -93.5q0 -116 88.5 -182t241.5 -66q157 0 247.5 70t90.5 202q0 69 -25.5 124t-68.5 93t-98.5 69.5t-117.5 58t-123.5 54t-117 62.5t-98.5 77.5t-68.5 105t-25.5 140.5q0 173 116 270t306 97q178 0 291.5 -82t113.5 -207
q0 -69 -39 -116.5t-102 -47.5q-28 0 -60 11q76 50 76 151q0 107 -75.5 173.5t-209.5 66.5zM565 1595h-33l173 344h188z" />
    <glyph glyph-name="sacute" unicode="&#x15b;" horiz-adv-x="911" 
d="M461 952q-101 0 -155 -43.5t-54 -111.5q0 -50 31 -88t80 -62.5t109 -47t119.5 -49.5t108.5 -61t80 -90.5t31 -130.5q0 -136 -104 -212t-271 -76q-150 0 -243 54t-93 163q0 65 33.5 95t85.5 30q28 0 60 -11q-54 -39 -54 -116q0 -80 53 -123t158 -43q117 0 178.5 46.5
t61.5 133.5q0 54 -23.5 96.5t-62 69t-88 51t-101 42t-101 43.5t-88 54.5t-62 74.5t-23.5 105q0 116 93 186t241 70q82 0 150 -21.5t113.5 -70t45.5 -116.5q0 -60 -34.5 -93.5t-84.5 -33.5q-33 0 -55 12q47 47 47 110q0 164 -182 164zM442 1141h-32l172 344h188z" />
    <glyph glyph-name="Scircumflex" unicode="&#x15c;" horiz-adv-x="1144" 
d="M575 1403q-131 0 -206.5 -73t-75.5 -189q0 -64 25.5 -115.5t68.5 -86.5t98.5 -64.5t117.5 -55.5t123.5 -53t117 -63t98.5 -80.5t68.5 -110t25.5 -147.5q0 -98 -36 -173t-100.5 -120.5t-149 -68.5t-187.5 -23q-196 0 -327.5 79.5t-131.5 202.5q0 77 44 132t108 55
q29 0 59 -9q-35 -25 -58.5 -67.5t-23.5 -93.5q0 -116 88.5 -182t241.5 -66q157 0 247.5 70t90.5 202q0 69 -25.5 124t-68.5 93t-98.5 69.5t-117.5 58t-123.5 54t-117 62.5t-98.5 77.5t-68.5 105t-25.5 140.5q0 173 116 270t306 97q178 0 291.5 -82t113.5 -207
q0 -69 -39 -116.5t-102 -47.5q-28 0 -60 11q76 50 76 151q0 107 -75.5 173.5t-209.5 66.5zM551 1894h74l241 -292l-24 -21l-254 205l-254 -205l-27 21z" />
    <glyph glyph-name="scircumflex" unicode="&#x15d;" horiz-adv-x="911" 
d="M461 952q-101 0 -155 -43.5t-54 -111.5q0 -50 31 -88t80 -62.5t109 -47t119.5 -49.5t108.5 -61t80 -90.5t31 -130.5q0 -136 -104 -212t-271 -76q-150 0 -243 54t-93 163q0 65 33.5 95t85.5 30q28 0 60 -11q-54 -39 -54 -116q0 -80 53 -123t158 -43q117 0 178.5 46.5
t61.5 133.5q0 54 -23.5 96.5t-62 69t-88 51t-101 42t-101 43.5t-88 54.5t-62 74.5t-23.5 105q0 116 93 186t241 70q82 0 150 -21.5t113.5 -70t45.5 -116.5q0 -60 -34.5 -93.5t-84.5 -33.5q-33 0 -55 12q47 47 47 110q0 164 -182 164zM426 1440h74l241 -293l-24 -21l-254 205
l-254 -205l-27 21z" />
    <glyph glyph-name="Scedilla" unicode="&#x15e;" horiz-adv-x="1144" 
d="M459 -223l59 205q-180 9 -297 86t-117 194q0 77 44 132t108 55q29 0 59 -9q-35 -25 -58.5 -67.5t-23.5 -93.5q0 -116 88.5 -182t241.5 -66q157 0 247.5 70t90.5 202q0 69 -25.5 124t-68.5 93t-98.5 69.5t-117.5 58t-123.5 54t-117 62.5t-98.5 77.5t-68.5 105t-25.5 140.5
q0 173 116 270t306 97q178 0 291.5 -82t113.5 -207q0 -69 -39 -116.5t-102 -47.5q-28 0 -60 11q76 50 76 151q0 107 -75.5 173.5t-209.5 66.5q-131 0 -206.5 -73t-75.5 -189q0 -64 25.5 -115.5t68.5 -86.5t98.5 -64.5t117.5 -55.5t123.5 -53t117 -63t98.5 -80.5t68.5 -110
t25.5 -147.5q0 -97 -35 -171.5t-98.5 -120.5t-147 -69t-184.5 -24l-39 -127q27 10 70 10q75 0 124.5 -50t49.5 -126q0 -52 -23 -90t-62 -58t-81 -29.5t-88 -9.5q-97 0 -172 47l21 33q68 -37 137 -37q143 0 143 131q0 61 -30.5 90t-79.5 29q-36 0 -82 -16z" />
    <glyph glyph-name="scedilla" unicode="&#x15f;" horiz-adv-x="911" 
d="M350 -223l60 203q-140 5 -225 59t-85 158q0 65 33.5 95t85.5 30q28 0 60 -11q-54 -39 -54 -116q0 -80 53 -123t158 -43q117 0 178.5 46.5t61.5 133.5q0 54 -23.5 96.5t-62 69t-88 51t-101 42t-101 43.5t-88 54.5t-62 74.5t-23.5 105q0 116 93 186t241 70q82 0 150 -21.5
t113.5 -70t45.5 -116.5q0 -60 -34.5 -93.5t-84.5 -33.5q-33 0 -55 12q47 47 47 110q0 164 -182 164q-101 0 -155 -43.5t-54 -111.5q0 -50 31 -88t80 -62.5t109 -47t119.5 -49.5t108.5 -61t80 -90.5t31 -130.5q0 -131 -95.5 -205.5t-252.5 -80.5l-39 -129q27 10 70 10
q75 0 124.5 -50t49.5 -126q0 -52 -23 -90t-62 -58t-81 -29.5t-88 -9.5q-97 0 -172 47l20 33q68 -37 137 -37q144 0 144 131q0 61 -30.5 90t-80.5 29q-36 0 -82 -16z" />
    <glyph glyph-name="Scaron" unicode="&#x160;" horiz-adv-x="1144" 
d="M575 1403q-131 0 -206.5 -73t-75.5 -189q0 -64 25.5 -115.5t68.5 -86.5t98.5 -64.5t117.5 -55.5t123.5 -53t117 -63t98.5 -80.5t68.5 -110t25.5 -147.5q0 -98 -36 -173t-100.5 -120.5t-149 -68.5t-187.5 -23q-196 0 -327.5 79.5t-131.5 202.5q0 77 44 132t108 55
q29 0 59 -9q-35 -25 -58.5 -67.5t-23.5 -93.5q0 -116 88.5 -182t241.5 -66q157 0 247.5 70t90.5 202q0 69 -25.5 124t-68.5 93t-98.5 69.5t-117.5 58t-123.5 54t-117 62.5t-98.5 77.5t-68.5 105t-25.5 140.5q0 173 116 270t306 97q178 0 291.5 -82t113.5 -207
q0 -69 -39 -116.5t-102 -47.5q-28 0 -60 11q76 50 76 151q0 107 -75.5 173.5t-209.5 66.5zM621 1593h-74l-244 293l27 21l254 -189l254 189l24 -21z" />
    <glyph glyph-name="scaron" unicode="&#x161;" horiz-adv-x="911" 
d="M461 952q-101 0 -155 -43.5t-54 -111.5q0 -50 31 -88t80 -62.5t109 -47t119.5 -49.5t108.5 -61t80 -90.5t31 -130.5q0 -136 -104 -212t-271 -76q-150 0 -243 54t-93 163q0 65 33.5 95t85.5 30q28 0 60 -11q-54 -39 -54 -116q0 -80 53 -123t158 -43q117 0 178.5 46.5
t61.5 133.5q0 54 -23.5 96.5t-62 69t-88 51t-101 42t-101 43.5t-88 54.5t-62 74.5t-23.5 105q0 116 93 186t241 70q82 0 150 -21.5t113.5 -70t45.5 -116.5q0 -60 -34.5 -93.5t-84.5 -33.5q-33 0 -55 12q47 47 47 110q0 164 -182 164zM498 1139h-74l-244 293l27 20l254 -188
l254 188l24 -20z" />
    <glyph glyph-name="Tcommaaccent" unicode="&#x162;" horiz-adv-x="1239" 
d="M389 1368q-48 0 -82.5 -4.5t-61.5 -18.5t-44 -30.5t-33 -49t-26.5 -65.5t-24.5 -88h-33v322h1073v-322h-33q-21 82 -37.5 124.5t-47 76t-74 44.5t-115.5 11h-148v-1298l125 -41v-29h-413v27l125 43v1298h-150zM516 -252q0 46 29 77.5t73 31.5q53 0 85 -33.5t32 -97.5
q0 -182 -209 -338l-16 22q59 52 97.5 121t49.5 133q-17 -24 -57 -24q-38 0 -61 27t-23 81z" />
    <glyph glyph-name="tcommaaccent" unicode="&#x163;" horiz-adv-x="702" 
d="M348 1331v-352h262v-53h-262v-629q0 -97 16 -154t39.5 -75.5t59.5 -18.5q63 0 101 60.5t38 187.5h39q0 -160 -53.5 -238.5t-169.5 -78.5q-110 0 -165.5 74.5t-55.5 248.5v623h-125v53h125q101 0 114 352h37zM258 -252q0 46 29 77.5t73 31.5q53 0 85 -33.5t32 -97.5
q0 -182 -209 -338l-16 22q59 52 97.5 121t49.5 133q-17 -24 -57 -24q-38 0 -61 27t-23 81z" />
    <glyph glyph-name="Tcaron" unicode="&#x164;" horiz-adv-x="1239" 
d="M389 1368q-48 0 -82.5 -4.5t-61.5 -18.5t-44 -30.5t-33 -49t-26.5 -65.5t-24.5 -88h-33v322h1073v-322h-33q-21 82 -37.5 124.5t-47 76t-74 44.5t-115.5 11h-148v-1298l125 -41v-29h-413v27l125 43v1298h-150zM657 1491h-73l-244 293l27 20l254 -188l253 188l25 -20z" />
    <glyph glyph-name="tcaron" unicode="&#x165;" horiz-adv-x="753" 
d="M348 1331v-352h262v-53h-262v-629q0 -97 16 -154t39.5 -75.5t59.5 -18.5q63 0 101 60.5t38 187.5h39q0 -160 -53.5 -238.5t-169.5 -78.5q-110 0 -165.5 74.5t-55.5 248.5v623h-125v53h125q101 0 114 352h37zM584 1427q0 46 29.5 76.5t72.5 30.5q54 0 85.5 -34.5
t31.5 -106.5q0 -96 -62.5 -182t-146.5 -146l-16 25q58 51 96.5 118t50.5 135q-15 -24 -57 -24q-38 0 -61 27t-23 81z" />
    <glyph glyph-name="Tbar" unicode="&#x166;" horiz-adv-x="1239" 
d="M389 1368q-48 0 -82.5 -4.5t-61.5 -18.5t-44 -30.5t-33 -49t-26.5 -65.5t-24.5 -88h-33v322h1073v-322h-33q-21 82 -37.5 124.5t-47 76t-74 44.5t-115.5 11h-148v-424h185v-59h-185v-815l125 -41v-29h-413v27l125 43v815h-187v59h187v424h-150z" />
    <glyph glyph-name="tbar" unicode="&#x167;" horiz-adv-x="702" 
d="M348 1331v-352h262v-53h-262v-129h258v-60h-258v-440q0 -97 16 -154t39.5 -75.5t59.5 -18.5q63 0 101 60.5t38 187.5h39q0 -160 -53.5 -238.5t-169.5 -78.5q-110 0 -165.5 74.5t-55.5 248.5v434h-127v60h127v129h-125v53h125q101 0 114 352h37z" />
    <glyph glyph-name="Utilde" unicode="&#x168;" horiz-adv-x="1409" 
d="M1114 1364l-125 43v27h326v-29l-125 -41v-897q0 -229 -125 -358t-354 -129q-80 0 -150 15.5t-133.5 51.5t-109 90.5t-72.5 139t-27 190.5v897l-125 43v27h414v-29l-125 -41v-897q0 -82 19.5 -151t60.5 -126t113 -89.5t169 -32.5q178 0 273.5 106t95.5 293v897zM963 1839
h34q0 -92 -37.5 -154.5t-103.5 -62.5q-40 0 -83 24t-84.5 48t-78.5 24q-43 0 -66.5 -29t-23.5 -69h-35q0 84 42.5 148.5t121.5 64.5q45 0 91.5 -25.5t86 -51t66.5 -25.5q29 0 49.5 28t20.5 80z" />
    <glyph glyph-name="utilde" unicode="&#x169;" 
d="M59 979h279v-639q0 -127 55.5 -199.5t169.5 -72.5q47 0 89.5 13t80.5 42t62 82t26 125v579l-125 41v29h279v-905l104 -43v-27h-258v154q-20 -75 -108.5 -125.5t-202.5 -50.5q-62 0 -118 18.5t-104 56.5t-76 106t-28 159v587l-125 41v29zM780 1384h35q0 -92 -37.5 -154.5
t-103.5 -62.5q-32 0 -66 15t-59 33.5t-58 33.5t-63 15q-43 0 -66.5 -29.5t-23.5 -69.5h-35q0 84 42.5 148.5t121.5 64.5q45 0 91.5 -25.5t86 -51t66.5 -25.5q29 0 49 28t20 80z" />
    <glyph glyph-name="Umacron" unicode="&#x16a;" horiz-adv-x="1409" 
d="M1114 1364l-125 43v27h326v-29l-125 -41v-897q0 -229 -125 -358t-354 -129q-80 0 -150 15.5t-133.5 51.5t-109 90.5t-72.5 139t-27 190.5v897l-125 43v27h414v-29l-125 -41v-897q0 -82 19.5 -151t60.5 -126t113 -89.5t169 -32.5q178 0 273.5 106t95.5 293v897zM494 1556
v60h493v-60h-493z" />
    <glyph glyph-name="umacron" unicode="&#x16b;" 
d="M59 979h279v-639q0 -127 55.5 -199.5t169.5 -72.5q47 0 89.5 13t80.5 42t62 82t26 125v579l-125 41v29h279v-905l104 -43v-27h-258v154q-20 -75 -108.5 -125.5t-202.5 -50.5q-62 0 -118 18.5t-104 56.5t-76 106t-28 159v587l-125 41v29zM313 1102v59h494v-59h-494z" />
    <glyph glyph-name="Ubreve" unicode="&#x16c;" horiz-adv-x="1409" 
d="M1114 1364l-125 43v27h326v-29l-125 -41v-897q0 -229 -125 -358t-354 -129q-80 0 -150 15.5t-133.5 51.5t-109 90.5t-72.5 139t-27 190.5v897l-125 43v27h414v-29l-125 -41v-897q0 -82 19.5 -151t60.5 -126t113 -89.5t169 -32.5q178 0 273.5 106t95.5 293v897zM944 1845
h31q0 -119 -61.5 -190.5t-172.5 -71.5q-110 0 -171.5 71.5t-61.5 190.5h31q0 -41 18.5 -72t49 -48t64.5 -25t70 -8q50 0 93.5 13.5t76.5 49.5t33 90z" />
    <glyph glyph-name="ubreve" unicode="&#x16d;" 
d="M59 979h279v-639q0 -127 55.5 -199.5t169.5 -72.5q47 0 89.5 13t80.5 42t62 82t26 125v579l-125 41v29h279v-905l104 -43v-27h-258v154q-20 -75 -108.5 -125.5t-202.5 -50.5q-62 0 -118 18.5t-104 56.5t-76 106t-28 159v587l-125 41v29zM762 1391h31q0 -119 -61.5 -191
t-172.5 -72q-110 0 -171.5 72t-61.5 191h30q0 -54 33 -90.5t76.5 -50t93.5 -13.5t93.5 13.5t76.5 50t33 90.5z" />
    <glyph glyph-name="Uring" unicode="&#x16e;" horiz-adv-x="1409" 
d="M1114 1364l-125 43v27h326v-29l-125 -41v-897q0 -229 -125 -358t-354 -129q-80 0 -150 15.5t-133.5 51.5t-109 90.5t-72.5 139t-27 190.5v897l-125 43v27h414v-29l-125 -41v-897q0 -82 19.5 -151t60.5 -126t113 -89.5t169 -32.5q178 0 273.5 106t95.5 293v897zM991 1774
q0 -86 -71 -144.5t-179 -58.5q-106 0 -176.5 58.5t-70.5 144.5q0 77 70.5 130.5t176.5 53.5q108 0 179 -53t71 -131zM627 1774q0 -72 28.5 -122t85.5 -50q59 0 88 50t29 122q0 66 -29 109.5t-88 43.5q-58 0 -86 -43.5t-28 -109.5z" />
    <glyph glyph-name="uring" unicode="&#x16f;" 
d="M59 979h279v-639q0 -127 55.5 -199.5t169.5 -72.5q47 0 89.5 13t80.5 42t62 82t26 125v579l-125 41v29h279v-905l104 -43v-27h-258v154q-20 -75 -108.5 -125.5t-202.5 -50.5q-62 0 -118 18.5t-104 56.5t-76 106t-28 159v587l-125 41v29zM809 1319q0 -86 -71 -144.5
t-179 -58.5q-106 0 -177 59t-71 144q0 77 71 130.5t177 53.5q108 0 179 -53t71 -131zM444 1319q0 -72 29 -122t86 -50q59 0 88 50t29 122q0 66 -29 110t-88 44q-58 0 -86.5 -44t-28.5 -110z" />
    <glyph glyph-name="Uhungarumlaut" unicode="&#x170;" horiz-adv-x="1409" 
d="M1114 1364l-125 43v27h326v-29l-125 -41v-897q0 -229 -125 -358t-354 -129q-80 0 -150 15.5t-133.5 51.5t-109 90.5t-72.5 139t-27 190.5v897l-125 43v27h414v-29l-125 -41v-897q0 -82 19.5 -151t60.5 -126t113 -89.5t169 -32.5q178 0 273.5 106t95.5 293v897zM567 1593
h-32l155 303h180zM870 1593h-32l155 303h181z" />
    <glyph glyph-name="uhungarumlaut" unicode="&#x171;" 
d="M59 979h279v-639q0 -127 55.5 -199.5t169.5 -72.5q47 0 89.5 13t80.5 42t62 82t26 125v579l-125 41v29h279v-905l104 -43v-27h-258v154q-20 -75 -108.5 -125.5t-202.5 -50.5q-62 0 -118 18.5t-104 56.5t-76 106t-28 159v587l-125 41v29zM385 1139h-33l156 303h180z
M688 1139h-33l156 303h180z" />
    <glyph glyph-name="Uogonek" unicode="&#x172;" horiz-adv-x="1409" 
d="M725 -410q-108 0 -164.5 35t-56.5 96q0 35 17.5 63t44 49t53.5 40.5t49.5 47t29.5 59.5q-79 1 -147 17t-130 52.5t-106 91.5t-70 138t-26 188v897l-125 43v27h414v-29l-125 -41v-897q0 -82 19.5 -151t60.5 -126t113 -89.5t169 -32.5q178 0 273.5 106t95.5 293v897
l-125 43v27h326v-29l-125 -41v-897q0 -224 -120 -352.5t-339 -134.5v-9q-1 -48 -23.5 -90.5t-44.5 -83t-22 -84.5q0 -43 24.5 -65.5t59.5 -22.5q37 0 62.5 22t25.5 62q0 51 -37 88q21 8 45 8q46 0 69 -25t23 -61q0 -57 -54 -93t-134 -36z" />
    <glyph glyph-name="uogonek" unicode="&#x173;" 
d="M891 -410q-108 0 -164.5 35t-56.5 96q0 37 20 66.5t48.5 51t57 43.5t49.5 53t23 69h-47v154q-20 -75 -108.5 -125.5t-202.5 -50.5q-62 0 -118 18.5t-104 56.5t-76 106t-28 159v587l-125 41v29h279v-639q0 -127 55.5 -199.5t169.5 -72.5q47 0 89.5 13t80.5 42t62 82
t26 125v579l-125 41v29h279v-905l104 -43v-27h-182v-33q-1 -48 -23.5 -90.5t-44.5 -83t-22 -84.5q0 -43 24.5 -65.5t59.5 -22.5q37 0 62.5 22t25.5 62q0 51 -37 88q21 8 45 8q46 0 69 -25t23 -61q0 -57 -54 -93t-134 -36z" />
    <glyph glyph-name="Wcircumflex" unicode="&#x174;" horiz-adv-x="1959" 
d="M1053 1450l397 -1169l332 1083l-131 41v29h338v-27l-136 -43l-434 -1384h-26l-410 1181l-391 -1181h-39l-408 1384l-131 43v27h437v-29l-134 -41l306 -1092l391 1178h39zM952 1894h74l242 -292l-25 -21l-254 205l-254 -205l-26 21z" />
    <glyph glyph-name="wcircumflex" unicode="&#x175;" horiz-adv-x="1689" 
d="M311 909l256 -710l260 667l-16 43l-145 43v27h456v-29l-145 -41l248 -702l239 702l-145 41v29h373v-27l-162 -43l-338 -934h-37l-299 811l-324 -811h-30l-352 934l-146 43v27h453v-29zM823 1440h74l242 -293l-25 -21l-254 205l-254 -205l-26 21z" />
    <glyph glyph-name="Ycircumflex" unicode="&#x176;" horiz-adv-x="1267" 
d="M436 27l125 43v487l-426 807l-125 43v27h441v-29l-142 -41l369 -715l364 715l-124 41v29h325v-27l-125 -43l-393 -774v-520l125 -41v-29h-414v27zM621 1892h73l242 -293l-25 -20l-254 205l-254 -205l-26 20z" />
    <glyph glyph-name="ycircumflex" unicode="&#x177;" horiz-adv-x="1021" 
d="M184 -455q-89 0 -144.5 38.5t-55.5 103.5q0 57 38.5 92t100.5 35q27 0 65 -15q-34 -12 -53.5 -40t-19.5 -66q0 -39 25.5 -62.5t74.5 -23.5q75 0 148.5 72t123.5 231l11 31q11 28 1 43.5t-46 15.5l-330 909l-109 43v27h377v-27l-108 -43l280 -788l273 788l-105 43v27h291
v-27l-117 -43l-356 -1013q-63 -179 -153 -265t-212 -86zM532 1440h74l242 -293l-25 -21l-254 205l-254 -205l-26 21z" />
    <glyph glyph-name="Ydieresis" unicode="&#x178;" horiz-adv-x="1267" 
d="M436 27l125 43v487l-426 807l-125 43v27h441v-29l-142 -41l369 -715l364 715l-124 41v29h325v-27l-125 -43l-393 -774v-520l125 -41v-29h-414v27zM326 1683q0 47 28 78t78 31t78.5 -31t28.5 -78q0 -45 -28 -73.5t-79 -28.5t-78.5 28.5t-27.5 73.5zM772 1683q0 47 28.5 78
t78.5 31t78 -31t28 -78q0 -45 -27.5 -73.5t-78.5 -28.5t-79 28.5t-28 73.5z" />
    <glyph glyph-name="Zacute" unicode="&#x179;" horiz-adv-x="1193" 
d="M90 27l797 1349h-475q-43 0 -73 -4.5t-54.5 -18t-40 -30.5t-30 -51t-25 -70.5t-23.5 -95.5h-33v328h959v-31l-799 -1346h491q29 0 52 1.5t43.5 6t35.5 9t29.5 15.5t24.5 20t21 28t18 34t17 43t17 51t19 61h31v-326h-1002v27zM627 1595h-33l172 344h188z" />
    <glyph glyph-name="zacute" unicode="&#x17a;" horiz-adv-x="1009" 
d="M86 41l614 883h-323q-57 0 -89.5 -8t-56.5 -36t-37.5 -64t-33.5 -109h-31v272h758v-41l-621 -883h334q75 0 120.5 9.5t76 37.5t47.5 65t35 105h30v-272h-823v41zM492 1141h-33l172 344h188z" />
    <glyph glyph-name="Zdotaccent" unicode="&#x17b;" horiz-adv-x="1193" 
d="M90 27l797 1349h-475q-43 0 -73 -4.5t-54.5 -18t-40 -30.5t-30 -51t-25 -70.5t-23.5 -95.5h-33v328h959v-31l-799 -1346h491q29 0 52 1.5t43.5 6t35.5 9t29.5 15.5t24.5 20t21 28t18 34t17 43t17 51t19 61h31v-326h-1002v27zM535 1796q0 48 29 81.5t81 33.5t81.5 -33.5
t29.5 -81.5q0 -46 -29.5 -75t-81.5 -29t-81 29t-29 75z" />
    <glyph glyph-name="zdotaccent" unicode="&#x17c;" horiz-adv-x="1009" 
d="M86 41l614 883h-323q-57 0 -89.5 -8t-56.5 -36t-37.5 -64t-33.5 -109h-31v272h758v-41l-621 -883h334q75 0 120.5 9.5t76 37.5t47.5 65t35 105h30v-272h-823v41zM399 1341q0 48 29.5 81.5t81.5 33.5t81.5 -33.5t29.5 -81.5q0 -46 -29.5 -75t-81.5 -29t-81.5 29t-29.5 75z
" />
    <glyph glyph-name="Zcaron" unicode="&#x17d;" horiz-adv-x="1193" 
d="M90 27l797 1349h-475q-43 0 -73 -4.5t-54.5 -18t-40 -30.5t-30 -51t-25 -70.5t-23.5 -95.5h-33v328h959v-31l-799 -1346h491q29 0 52 1.5t43.5 6t35.5 9t29.5 15.5t24.5 20t21 28t18 34t17 43t17 51t19 61h31v-326h-1002v27zM682 1593h-74l-243 293l26 21l254 -189
l254 189l25 -21z" />
    <glyph glyph-name="zcaron" unicode="&#x17e;" horiz-adv-x="1009" 
d="M86 41l614 883h-323q-57 0 -89.5 -8t-56.5 -36t-37.5 -64t-33.5 -109h-31v272h758v-41l-621 -883h334q75 0 120.5 9.5t76 37.5t47.5 65t35 105h30v-272h-823v41zM547 1139h-74l-244 293l27 20l254 -188l254 188l24 -20z" />
    <glyph glyph-name="florin" unicode="&#x192;" horiz-adv-x="905" 
d="M8 -276h55q0 -59 29.5 -87t77.5 -28q31 0 53 10t40.5 36.5t28 78.5t9.5 129v1067h-125v53h125v213q0 167 72.5 253.5t214.5 86.5q119 0 189.5 -62t70.5 -159q0 -96 -86 -96q-43 0 -65.5 20t-22.5 53q0 29 20.5 57.5t20.5 47.5q0 32 -31.5 61t-95.5 29q-133 0 -133 -287
v-217h229v-53h-229v-1063q0 -150 -75 -228.5t-210 -78.5q-69 0 -115.5 43t-46.5 121z" />
    <glyph glyph-name="AEacute" unicode="&#x1fc;" horiz-adv-x="1982" 
d="M866 27l125 43v303h-594l-182 -303l141 -41v-29h-372v27l141 43l215 362l4 6l594 996h903v-328h-33q-15 62 -26 98.5t-27 71t-32.5 50.5t-44 29t-60.5 17t-82 4h-379v-618l215 2h4q30 3 52 8.5t39 20t26.5 25t21 39t17 46.5t18.5 62h33v-459h-33q-31 110 -59 148t-105 48
h-2l-227 2v-645h361q57 0 97.5 5t71.5 20.5t50.5 32.5t36 52.5t26.5 68.5t25 92h33v-326h-992v27zM991 438v924l-555 -924h555zM1114 1491h-33l172 344h189z" />
    <glyph glyph-name="aeacute" unicode="&#x1fd;" horiz-adv-x="1693" 
d="M1165 1001q192 0 310 -134t118 -363v-29h-696q0 -61 6.5 -115.5t27 -117t54 -107t93.5 -74.5t139 -30q116 0 200.5 51.5t120.5 124.5l35 -21q-115 -206 -375 -206q-282 0 -399 198q-47 -81 -152 -139.5t-241 -58.5q-153 0 -232.5 67.5t-79.5 181.5q0 50 15.5 90.5
t58.5 80t112.5 66.5t183.5 44.5t265 19.5v52q0 111 -16 185.5t-48.5 114t-72 55t-94.5 15.5q-107 0 -156 -50t-49 -132q0 -85 45 -137q-27 -10 -62 -10q-56 0 -89 33t-33 100q0 115 98 180t246 65q238 0 331 -172q60 83 147 127.5t189 44.5zM1165 954q-64 0 -115 -35.5
t-82.5 -96.5t-49 -135t-21.5 -159h533q-2 82 -16 153t-43 135t-82 101t-124 37zM473 66q86 0 160 34t139 127q-45 105 -45 250q-116 -2 -200.5 -15.5t-135 -33.5t-80 -51t-39.5 -62t-10 -73q0 -99 56.5 -137.5t154.5 -38.5zM813 1081h-33l172 344h189z" />
    <glyph glyph-name="Oslashacute" unicode="&#x1fe;" horiz-adv-x="1490" 
d="M309 -94h-82l125 215q-114 98 -175.5 251t-61.5 345q0 216 78.5 383t222 259.5t329.5 92.5q183 0 326 -92l90 158h82l-115 -199q118 -96 183 -252.5t65 -351.5q0 -215 -78.5 -382t-222.5 -260t-330 -93q-191 0 -337 98zM1184 711q0 319 -117 503l-608 -1050
q109 -125 286 -125q117 0 204 54.5t137 150t74 212.5t24 255zM309 711q0 -307 105 -484l606 1047q-109 119 -275 119q-94 0 -169 -37t-124 -100t-82 -151t-47 -185.5t-14 -208.5zM707 1595h-33l172 344h188z" />
    <glyph glyph-name="oslashacute" unicode="&#x1ff;" horiz-adv-x="1175" 
d="M313 -82h-82l80 139q-98 67 -152.5 181t-54.5 262q0 232 134 366.5t350 134.5q135 0 239 -55l66 115h82l-88 -152q88 -64 136 -168.5t48 -240.5q0 -237 -134 -378.5t-349 -141.5q-115 0 -213 45zM276 496q0 -231 86 -353l422 731q-77 80 -196 80q-155 0 -233.5 -124.5
t-78.5 -333.5zM899 496q0 193 -68 317l-419 -725q67 -61 176 -61q104 0 175.5 62.5t103.5 165.5t32 241zM604 1141h-33l172 344h189z" />
    <glyph glyph-name="Scommaaccent" unicode="&#x218;" horiz-adv-x="1144" 
d="M575 1403q-131 0 -206.5 -73t-75.5 -189q0 -64 25.5 -115.5t68.5 -86.5t98.5 -64.5t117.5 -55.5t123.5 -53t117 -63t98.5 -80.5t68.5 -110t25.5 -147.5q0 -98 -36 -173t-100.5 -120.5t-149 -68.5t-187.5 -23q-196 0 -327.5 79.5t-131.5 202.5q0 77 44 132t108 55
q29 0 59 -9q-35 -25 -58.5 -67.5t-23.5 -93.5q0 -116 88.5 -182t241.5 -66q157 0 247.5 70t90.5 202q0 69 -25.5 124t-68.5 93t-98.5 69.5t-117.5 58t-123.5 54t-117 62.5t-98.5 77.5t-68.5 105t-25.5 140.5q0 173 116 270t306 97q178 0 291.5 -82t113.5 -207
q0 -69 -39 -116.5t-102 -47.5q-28 0 -60 11q76 50 76 151q0 107 -75.5 173.5t-209.5 66.5z" />
    <glyph glyph-name="scommaaccent" unicode="&#x219;" horiz-adv-x="911" 
d="M461 952q-101 0 -155 -43.5t-54 -111.5q0 -50 31 -88t80 -62.5t109 -47t119.5 -49.5t108.5 -61t80 -90.5t31 -130.5q0 -136 -104 -212t-271 -76q-150 0 -243 54t-93 163q0 65 33.5 95t85.5 30q28 0 60 -11q-54 -39 -54 -116q0 -80 53 -123t158 -43q117 0 178.5 46.5
t61.5 133.5q0 54 -23.5 96.5t-62 69t-88 51t-101 42t-101 43.5t-88 54.5t-62 74.5t-23.5 105q0 116 93 186t241 70q82 0 150 -21.5t113.5 -70t45.5 -116.5q0 -60 -34.5 -93.5t-84.5 -33.5q-33 0 -55 12q47 47 47 110q0 164 -182 164zM350 -252q0 46 29.5 77.5t73.5 31.5
q53 0 84.5 -33.5t31.5 -97.5q0 -182 -209 -338l-16 22q59 52 98 121.5t50 132.5q-17 -24 -58 -24q-38 0 -61 27t-23 81z" />
    <glyph glyph-name="dotlessj" unicode="&#x237;" horiz-adv-x="540" 
d="M209 909l-105 43v27h256v-989q0 -124 -22.5 -212t-66 -137.5t-97.5 -71.5t-125 -22q-96 0 -162.5 38.5t-66.5 117.5q0 61 37.5 98t99.5 37q32 0 63 -16q-75 -35 -75 -123q0 -42 26 -75.5t78 -33.5t85 29t54 116.5t21 241.5v932z" />
    <glyph glyph-name="circumflex" unicode="&#x2c6;" horiz-adv-x="1705" 
d="M530 1382h74l242 -292l-25 -21l-254 205l-254 -205l-26 21z" />
    <glyph glyph-name="caron" unicode="&#x2c7;" horiz-adv-x="1705" 
d="M604 1081h-74l-243 293l26 21l254 -189l254 189l25 -21z" />
    <glyph glyph-name="breve" unicode="&#x2d8;" 
d="M772 1335h31q0 -119 -61.5 -190.5t-172.5 -71.5q-110 0 -171.5 71.5t-61.5 190.5h31q0 -41 18.5 -72t49 -48t64.5 -25t70 -8q50 0 93.5 13.5t76.5 49.5t33 90z" />
    <glyph glyph-name="dotaccent" unicode="&#x2d9;" horiz-adv-x="626" 
d="M195 1284q0 48 29 81.5t81 33.5t81.5 -33.5t29.5 -81.5q0 -46 -29.5 -75t-81.5 -29t-81 29t-29 75z" />
    <glyph glyph-name="ring" unicode="&#x2da;" horiz-adv-x="927" 
d="M715 1262q0 -86 -71 -144.5t-179 -58.5q-106 0 -177 59t-71 144q0 77 71 130.5t177 53.5q108 0 179 -53t71 -131zM350 1262q0 -72 29 -122t86 -50q59 0 88 50t29 122q0 66 -29 109.5t-88 43.5q-58 0 -86.5 -43.5t-28.5 -109.5z" />
    <glyph glyph-name="ogonek" unicode="&#x2db;" horiz-adv-x="630" 
d="M307 -410q-108 0 -164.5 35t-56.5 96q0 37 20.5 67t50 52t58.5 44t49.5 54t20.5 72h28v-39q-1 -48 -23.5 -90.5t-44.5 -83t-22 -84.5q0 -43 24.5 -65.5t59.5 -22.5q37 0 62.5 22t25.5 62q0 51 -37 88q21 8 45 8q46 0 69.5 -25t23.5 -61q0 -57 -54.5 -93t-134.5 -36z" />
    <glyph glyph-name="tilde" unicode="&#x2dc;" horiz-adv-x="1013" 
d="M705 1327h34q0 -92 -37.5 -154.5t-103.5 -62.5q-40 0 -83 24t-84.5 48t-78.5 24q-43 0 -66.5 -29t-23.5 -69h-35q0 84 42.5 148.5t121.5 64.5q45 0 91.5 -25.5t86 -51t66.5 -25.5q29 0 49.5 28t20.5 80z" />
    <glyph glyph-name="hungarumlaut" unicode="&#x2dd;" horiz-adv-x="962" 
d="M229 1081h-32l155 303h180zM532 1081h-32l155 303h181z" />
    <glyph glyph-name="Wgrave" unicode="&#x1e80;" horiz-adv-x="1959" 
d="M1053 1450l397 -1169l332 1083l-131 41v29h338v-27l-136 -43l-434 -1384h-26l-410 1181l-391 -1181h-39l-408 1384l-131 43v27h437v-29l-134 -41l306 -1092l391 1178h39zM1028 1591h-33l-319 344h180z" />
    <glyph glyph-name="wgrave" unicode="&#x1e81;" horiz-adv-x="1689" 
d="M311 909l256 -710l260 667l-16 43l-145 43v27h456v-29l-145 -41l248 -702l239 702l-145 41v29h373v-27l-162 -43l-338 -934h-37l-299 811l-324 -811h-30l-352 934l-146 43v27h453v-29zM899 1137h-33l-319 344h180z" />
    <glyph glyph-name="Wacute" unicode="&#x1e82;" horiz-adv-x="1959" 
d="M1053 1450l397 -1169l332 1083l-131 41v29h338v-27l-136 -43l-434 -1384h-26l-410 1181l-391 -1181h-39l-408 1384l-131 43v27h437v-29l-134 -41l306 -1092l391 1178h39zM969 1595h-33l172 344h188z" />
    <glyph glyph-name="wacute" unicode="&#x1e83;" horiz-adv-x="1689" 
d="M311 909l256 -710l260 667l-16 43l-145 43v27h456v-29l-145 -41l248 -702l239 702l-145 41v29h373v-27l-162 -43l-338 -934h-37l-299 811l-324 -811h-30l-352 934l-146 43v27h453v-29zM840 1141h-33l172 344h188z" />
    <glyph glyph-name="Wdieresis" unicode="&#x1e84;" horiz-adv-x="1959" 
d="M1053 1450l397 -1169l332 1083l-131 41v29h338v-27l-136 -43l-434 -1384h-26l-410 1181l-391 -1181h-39l-408 1384l-131 43v27h437v-29l-134 -41l306 -1092l391 1178h39zM657 1686q0 46 28 77t79 31q50 0 78 -30.5t28 -77.5q0 -45 -27.5 -74t-78.5 -29t-79 29t-28 74z
M1104 1686q0 47 28 77.5t78 30.5q51 0 79 -31t28 -77q0 -45 -28 -74t-79 -29t-78.5 29t-27.5 74z" />
    <glyph glyph-name="wdieresis" unicode="&#x1e85;" horiz-adv-x="1689" 
d="M311 909l256 -710l260 667l-16 43l-145 43v27h456v-29l-145 -41l248 -702l239 702l-145 41v29h373v-27l-162 -43l-338 -934h-37l-299 811l-324 -811h-30l-352 934l-146 43v27h453v-29zM528 1231q0 46 28 77t79 31q50 0 78 -30.5t28 -77.5q0 -45 -27.5 -74t-78.5 -29
t-79 29t-28 74zM975 1231q0 47 28 77.5t78 30.5q51 0 79 -31t28 -77q0 -45 -28 -74t-79 -29t-78.5 29t-27.5 74z" />
    <glyph glyph-name="Ygrave" unicode="&#x1ef2;" horiz-adv-x="1267" 
d="M436 27l125 43v487l-426 807l-125 43v27h441v-29l-142 -41l369 -715l364 715l-124 41v29h325v-27l-125 -43l-393 -774v-520l125 -41v-29h-414v27zM694 1589h-32l-320 344h180z" />
    <glyph glyph-name="ygrave" unicode="&#x1ef3;" horiz-adv-x="1021" 
d="M184 -455q-89 0 -144.5 38.5t-55.5 103.5q0 57 38.5 92t100.5 35q27 0 65 -15q-34 -12 -53.5 -40t-19.5 -66q0 -39 25.5 -62.5t74.5 -23.5q75 0 148.5 72t123.5 231l11 31q11 28 1 43.5t-46 15.5l-330 909l-109 43v27h377v-27l-108 -43l280 -788l273 788l-105 43v27h291
v-27l-117 -43l-356 -1013q-63 -179 -153 -265t-212 -86zM608 1137h-33l-319 344h180z" />
    <glyph glyph-name="thinspace" unicode="&#x2009;" horiz-adv-x="546" 
 />
    <glyph glyph-name="endash" unicode="&#x2013;" horiz-adv-x="915" 
d="M764 584h-612v59h612v-59z" />
    <glyph glyph-name="emdash" unicode="&#x2014;" horiz-adv-x="1335" 
d="M1157 526h-979v60h979v-60z" />
    <glyph glyph-name="quoteleft" unicode="&#x2018;" horiz-adv-x="466" 
d="M336 1174q0 -45 -30 -76t-73 -31q-54 0 -85 34.5t-31 106.5q0 96 62.5 182t146.5 146l16 -25q-58 -51 -96.5 -118.5t-50.5 -135.5q15 25 57 25q38 0 61 -27t23 -81z" />
    <glyph glyph-name="quoteright" unicode="&#x2019;" horiz-adv-x="462" 
d="M147 1427q0 45 30 76t73 31q54 0 85.5 -34.5t31.5 -106.5q0 -96 -62.5 -182t-146.5 -146l-17 25q59 51 97.5 118t50.5 135q-15 -24 -58 -24q-38 0 -61 27t-23 81z" />
    <glyph glyph-name="quotesinglbase" unicode="&#x201a;" horiz-adv-x="522" 
d="M152 88q0 46 29.5 76.5t72.5 30.5q54 0 85.5 -35t31.5 -107q0 -96 -62.5 -181t-146.5 -146l-17 24q59 51 97.5 118.5t50.5 135.5q-15 -24 -57 -24q-38 0 -61 27t-23 81z" />
    <glyph glyph-name="quotedblleft" unicode="&#x201c;" horiz-adv-x="837" 
d="M336 1174q0 -45 -30 -76t-73 -31q-54 0 -85 34.5t-31 106.5q0 96 62.5 182t146.5 146l16 -25q-58 -51 -96.5 -118.5t-50.5 -135.5q15 25 57 25q38 0 61 -27t23 -81zM705 1174q0 -45 -30 -76t-73 -31q-54 0 -85.5 34.5t-31.5 106.5q0 96 62.5 182t146.5 146l17 -25
q-59 -51 -97.5 -118.5t-50.5 -135.5q15 25 58 25q38 0 61 -27t23 -81z" />
    <glyph glyph-name="quotedblright" unicode="&#x201d;" horiz-adv-x="851" 
d="M147 1427q0 45 30 76t73 31q54 0 85.5 -34.5t31.5 -106.5q0 -96 -62.5 -182t-146.5 -146l-17 25q59 51 97.5 118t50.5 135q-15 -24 -58 -24q-38 0 -61 27t-23 81zM537 1427q0 46 29.5 76.5t72.5 30.5q54 0 85.5 -34.5t31.5 -106.5q0 -96 -62.5 -182t-146.5 -146l-17 25
q59 51 97.5 118t50.5 135q-15 -24 -57 -24q-38 0 -61 27t-23 81z" />
    <glyph glyph-name="quotedblbase" unicode="&#x201e;" horiz-adv-x="890" 
d="M152 88q0 46 29.5 76.5t72.5 30.5q54 0 85.5 -35t31.5 -107q0 -96 -62.5 -181t-146.5 -146l-17 24q59 51 97.5 118.5t50.5 135.5q-15 -24 -57 -24q-38 0 -61 27t-23 81zM520 88q0 45 30 76t73 31q54 0 85 -35t31 -107q0 -96 -62.5 -181t-146.5 -146l-16 24
q59 51 97.5 118.5t50.5 135.5q-15 -24 -58 -24q-38 0 -61 27t-23 81z" />
    <glyph glyph-name="dagger" unicode="&#x2020;" horiz-adv-x="1462" 
d="M707 893h2q-6 133 -37 297t-31 285q0 59 23 97t67 38q90 0 90 -123q0 -112 -31 -282t-36 -312h2v-4q100 7 240.5 41.5t240.5 34.5q50 0 84.5 -24.5t34.5 -66.5q0 -90 -107 -90q-93 0 -239.5 32.5t-253.5 39.5q1 -276 33 -704.5t32 -557.5q0 -106 -90 -106q-43 0 -66.5 34
t-23.5 85q0 145 32 562.5t34 686.5q-109 -7 -255.5 -39.5t-238.5 -32.5q-107 0 -107 90q0 43 33.5 67t85.5 24q97 0 237.5 -34t244.5 -42v4z" />
    <glyph glyph-name="daggerdbl" unicode="&#x2021;" horiz-adv-x="1462" 
d="M1249 784q-94 0 -240.5 32.5t-254.5 39.5v-696q106 8 253.5 40.5t241.5 32.5q107 0 107 -90q0 -43 -33.5 -66.5t-85.5 -23.5q-98 0 -238.5 33.5t-246.5 40.5q5 -136 37 -299.5t32 -284.5q0 -59 -23 -97t-67 -38q-90 0 -90 123q0 112 31.5 282.5t36.5 313.5
q-103 -7 -244.5 -40.5t-239.5 -33.5q-52 0 -85.5 23.5t-33.5 66.5q0 90 107 90q92 0 239 -33t257 -40v696q-111 -7 -257.5 -39.5t-238.5 -32.5q-107 0 -107 90q0 43 33.5 67t85.5 24q97 0 238 -34t246 -42q-5 138 -36.5 302t-31.5 284q0 59 23 97t67 38q90 0 90 -123
q0 -112 -31 -282.5t-36 -315.5q100 7 241.5 41.5t241.5 34.5q50 0 84.5 -24.5t34.5 -66.5q0 -90 -107 -90z" />
    <glyph glyph-name="bullet" unicode="&#x2022;" horiz-adv-x="675" 
d="M188 719q0 63 40.5 107t109.5 44t109 -44t40 -107t-39.5 -103.5t-109.5 -40.5t-110 40.5t-40 103.5z" />
    <glyph glyph-name="ellipsis" unicode="&#x2026;" horiz-adv-x="1624" 
d="M147 86q0 48 29.5 80.5t81.5 32.5q53 0 83 -32.5t30 -80.5q0 -46 -29.5 -76t-83.5 -30q-52 0 -81.5 30t-29.5 76zM700 86q0 48 29.5 80.5t81.5 32.5q53 0 83 -32.5t30 -80.5q0 -46 -29.5 -76t-83.5 -30q-52 0 -81.5 30t-29.5 76zM1253 86q0 48 29.5 80.5t81.5 32.5
q53 0 83 -32.5t30 -80.5q0 -46 -29.5 -76t-83.5 -30q-52 0 -81.5 30t-29.5 76z" />
    <glyph glyph-name="perthousand" unicode="&#x2030;" horiz-adv-x="2848" 
d="M766 1094q0 -151 -97.5 -257t-246.5 -106q-152 0 -251 106t-99 257q0 140 99 241t251 101q149 0 246.5 -101t97.5 -241zM201 1094q0 -30 2 -57.5t9 -68t22.5 -72.5t38 -61.5t61.5 -46t88 -16.5q42 0 76.5 13t56.5 33.5t38.5 50.5t25 57.5t13.5 62t6 57t1 48.5
q0 29 -2 54.5t-8.5 64t-21.5 68.5t-37.5 58.5t-60.5 44t-87 15.5q-59 0 -102 -24t-65.5 -56.5t-35 -79t-15.5 -78.5t-3 -67zM508 -123h-70l826 1639h69zM1862 362q0 -151 -97 -256.5t-247 -105.5q-153 0 -252 105.5t-99 256.5q0 140 99.5 241.5t251.5 101.5
q149 0 246.5 -101.5t97.5 -241.5zM1296 362q0 -30 2.5 -57.5t9 -67.5t22 -72t38.5 -61.5t62 -46t88 -16.5q217 0 217 321q0 29 -2 54.5t-8.5 64t-21.5 69t-37.5 58.5t-60.5 44t-87 16q-59 0 -102.5 -24t-65.5 -57t-35 -79.5t-16 -78.5t-3 -67zM2781 362q0 -151 -97 -256.5
t-247 -105.5q-152 0 -251 105.5t-99 256.5q0 140 99 241.5t251 101.5q149 0 246.5 -101.5t97.5 -241.5zM2216 362q0 -38 3 -71.5t15.5 -82t35 -83t65.5 -59.5t102 -25q217 0 217 321q0 29 -2 54.5t-8.5 64t-21.5 69t-37.5 58.5t-60.5 44t-87 16q-59 0 -102 -24t-65.5 -57
t-35 -79.5t-15.5 -78.5t-3 -67z" />
    <glyph glyph-name="guilsinglleft" unicode="&#x2039;" horiz-adv-x="563" 
d="M119 483v58l278 405l41 -35l-272 -399l272 -422l-41 -35z" />
    <glyph glyph-name="guilsinglright" unicode="&#x203a;" horiz-adv-x="563" 
d="M444 541v-58l-278 -428l-41 35l272 422l-272 399l41 35z" />
    <glyph glyph-name="fraction" unicode="&#x2044;" horiz-adv-x="425" 
d="M672 1499l-862 -1569h-56l862 1569h56z" />
    <glyph glyph-name="zerosuperior" unicode="&#x2070;" horiz-adv-x="1058" 
d="M965 958q0 -139 -51.5 -256.5t-152.5 -191.5t-231 -74t-231.5 74t-153 191.5t-51.5 256.5q0 100 30.5 191.5t85.5 162t138.5 112.5t181.5 42q130 0 231 -72t152.5 -186.5t51.5 -249.5zM270 958q0 -66 6.5 -128t24.5 -128.5t46 -115t75 -80t108 -31.5q74 0 127 45.5
t80 121.5t39 153.5t12 162.5q0 64 -6.5 125t-25 125t-46 111t-74 77.5t-106.5 30.5q-61 0 -108 -30t-75 -77t-46 -111.5t-24.5 -125t-6.5 -125.5z" />
    <glyph glyph-name="foursuperior" unicode="&#x2074;" horiz-adv-x="845" 
d="M37 637v31l493 786h156l-479 -772h321v162h156v-162h94v-45h-94v-137l94 -29v-20h-344v18l94 31v137h-491z" />
    <glyph glyph-name="fivesuperior" unicode="&#x2075;" horiz-adv-x="874" 
d="M414 471q209 0 209 268q0 148 -64.5 208.5t-193.5 60.5q-79 0 -207 -33l41 479h14q71 -4 205 -26.5t176 -22.5t65 9.5t23 37.5q0 18 -23 53l15 8q36 -41 51.5 -68.5t15.5 -58.5q0 -54 -38 -84t-109 -30q-89 0 -187 29t-180 71l-28 -334q111 29 211 29q79 0 145.5 -17.5
t121 -54.5t85.5 -102.5t31 -153.5q0 -150 -102.5 -226.5t-276.5 -76.5q-164 0 -253 52.5t-89 154.5q0 61 33.5 100t91.5 39q29 0 65 -10q-53 -58 -53 -131q0 -75 49.5 -122.5t155.5 -47.5z" />
    <glyph glyph-name="sixsuperior" unicode="&#x2076;" horiz-adv-x="942" 
d="M508 1434q-76 0 -124.5 -39.5t-79 -142.5t-38.5 -279q97 92 242 92q51 0 98 -9.5t91.5 -32t77 -56t52 -85t19.5 -114.5q0 -150 -97.5 -241t-261.5 -91q-88 0 -156.5 24t-122 78t-82 148.5t-28.5 226.5q0 123 25.5 221t66 159t95.5 101t110 56t113 16q135 0 216 -52.5
t81 -141.5q0 -60 -33 -99.5t-92 -39.5q-31 0 -51 10q45 51 45 131q0 72 -38.5 116t-127.5 44zM264 827q0 -358 219 -358q60 0 102 29.5t61.5 77.5t27.5 92.5t8 91.5q0 38 -5 72.5t-19.5 70.5t-37 62.5t-60 43.5t-85.5 17q-110 0 -211 -96v-103z" />
    <glyph glyph-name="sevensuperior" unicode="&#x2077;" horiz-adv-x="798" 
d="M111 1204l-23 -10q-37 53 -37 115q0 66 42 111.5t132 45.5q57 0 117 -24t123.5 -48t128.5 -24q60 0 86.5 24t40.5 70h27v-61q0 -83 -20 -153t-52.5 -121t-72 -98t-78.5 -96t-71.5 -104t-52.5 -132.5t-20 -170.5q0 -42 -22.5 -63t-57.5 -21q-34 0 -57 20t-23 60
q0 99 24.5 179.5t64.5 135t89 101t99.5 88.5t94.5 86t76.5 105t41.5 135q-30 -45 -81 -73t-118 -28q-52 0 -113 24t-118 48.5t-99 24.5q-47 0 -67.5 -24.5t-20.5 -59.5q0 -28 17 -62z" />
    <glyph glyph-name="eightsuperior" unicode="&#x2078;" horiz-adv-x="944" 
d="M793 1235q0 -90 -52.5 -147t-144.5 -80q258 -45 258 -291q0 -140 -103 -210.5t-278 -70.5t-279 71.5t-104 209.5q0 250 260 291q-94 22 -146 79.5t-52 147.5q0 110 88.5 171.5t232.5 61.5q143 0 231.5 -61.5t88.5 -171.5zM256 717q0 -109 53 -178.5t164 -69.5
q110 0 163.5 69.5t53.5 178.5q0 55 -12.5 102.5t-37.5 86t-68 61t-99 22.5q-75 0 -125.5 -39.5t-71 -98.5t-20.5 -134zM301 1235q0 -213 172 -213q170 0 170 213q0 201 -170 201q-172 0 -172 -201z" />
    <glyph glyph-name="ninesuperior" unicode="&#x2079;" horiz-adv-x="935" 
d="M420 471q129 0 186.5 99t61.5 331q-106 -63 -224 -63q-70 0 -130 16t-109 48.5t-77 90t-28 133.5q0 150 99 245t270 95q367 0 367 -495q0 -140 -32 -245t-90 -167.5t-131.5 -92.5t-162.5 -30q-144 0 -223.5 46t-79.5 136q0 59 33.5 96.5t91.5 37.5q2 0 63 -9
q-41 -51 -41 -118q0 -63 37 -108.5t119 -45.5zM670 961q0 243 -46.5 358t-158.5 115q-46 0 -82.5 -20.5t-57.5 -51.5t-34.5 -72t-18 -78t-4.5 -75q0 -121 50 -193t145 -72q116 0 207 70v19z" />
    <glyph glyph-name="zeroinferior" unicode="&#x2080;" horiz-adv-x="1058" 
d="M965 57q0 -139 -51.5 -256.5t-152.5 -191.5t-231 -74t-231.5 74t-153 191.5t-51.5 256.5q0 100 30.5 191.5t85.5 162t138.5 112.5t181.5 42q130 0 231 -72t152.5 -186.5t51.5 -249.5zM270 57q0 -66 6.5 -128t24.5 -128.5t46 -115t75 -80t108 -31.5q74 0 127 45.5
t80 121.5t39 153.5t12 162.5q0 64 -6.5 125t-25 125t-46 111t-74 77.5t-106.5 30.5q-61 0 -108 -30t-75 -77t-46 -111.5t-24.5 -125t-6.5 -125.5z" />
    <glyph glyph-name="oneinferior" unicode="&#x2081;" horiz-adv-x="593" 
d="M100 426l-4 25l256 116h31v-948l166 -39v-31h-496v29l174 41v823z" />
    <glyph glyph-name="twoinferior" unicode="&#x2082;" horiz-adv-x="901" 
d="M444 565q150 0 245 -70t95 -208q0 -74 -28.5 -131t-72.5 -91t-105.5 -66t-119.5 -54.5t-122.5 -56.5t-106.5 -72q-34 -33 -51 -53.5t-33.5 -58.5t-21.5 -87q31 47 87.5 78t125.5 31q65 0 174 -35t158 -35q53 0 77.5 24.5t24.5 59.5q0 27 -16 59l22 8q35 -59 35 -110
q0 -70 -44 -118t-136 -48q-58 0 -118.5 22t-124.5 44t-130 22q-65 0 -92 -20.5t-43 -63.5h-29q-8 46 -8 72q0 66 19 121t51.5 95t74 74.5t88 63t92.5 57t87.5 60.5t74 67.5t51.5 85t19 107.5q0 194 -199 194q-100 0 -150 -51.5t-50 -140.5q0 -94 80 -152q-19 -8 -54 -8
q-71 0 -113 39.5t-42 118.5q0 113 92.5 170t236.5 57z" />
    <glyph glyph-name="threeinferior" unicode="&#x2083;" horiz-adv-x="901" 
d="M432 565q159 0 240.5 -65.5t81.5 -175.5q0 -95 -54 -155.5t-139 -72.5q248 -32 248 -266q0 -295 -383 -295q-157 0 -250.5 53.5t-93.5 159.5q0 70 42.5 109t113.5 39q20 0 57 -9q-57 -61 -57 -141q0 -84 49.5 -130t142.5 -46q207 0 207 260q0 137 -57 190.5t-185 53.5
h-53v35h53q201 0 201 217q0 206 -164 206q-86 0 -127 -48t-41 -115q0 -70 60 -127q-33 -13 -64 -13q-66 0 -101.5 33.5t-35.5 95.5q0 96 84 151.5t225 55.5z" />
    <glyph glyph-name="fourinferior" unicode="&#x2084;" horiz-adv-x="845" 
d="M37 -264v31l493 786h156l-479 -772h321v162h156v-162h94v-45h-94v-137l94 -29v-21h-344v19l94 31v137h-491z" />
    <glyph glyph-name="fiveinferior" unicode="&#x2085;" horiz-adv-x="874" 
d="M414 -430q209 0 209 268q0 148 -64.5 208t-193.5 60q-83 0 -207 -32l41 479h14q71 -4 205 -26.5t176 -22.5t65 9.5t23 37.5q0 19 -23 53l15 8q36 -41 51.5 -68.5t15.5 -58.5q0 -54 -38 -84t-109 -30q-89 0 -187 29t-180 71l-28 -334q111 29 211 29q79 0 145.5 -17.5
t121 -54.5t85.5 -102.5t31 -153.5q0 -150 -102.5 -226.5t-276.5 -76.5q-164 0 -253 52.5t-89 154.5q0 61 33.5 100t91.5 39q29 0 65 -10q-53 -58 -53 -131q0 -75 49.5 -122.5t155.5 -47.5z" />
    <glyph glyph-name="sixinferior" unicode="&#x2086;" horiz-adv-x="942" 
d="M508 532q-76 0 -124.5 -39t-79 -142t-38.5 -279q97 92 242 92q51 0 98 -9.5t91.5 -32t77 -56t52 -85t19.5 -114.5q0 -150 -97.5 -241t-261.5 -91q-88 0 -156.5 24t-122 78t-82 148.5t-28.5 226.5q0 123 25.5 221t66 159t95.5 101t110 56t113 16q135 0 216 -52.5
t81 -141.5q0 -60 -33 -100t-92 -40q-29 0 -51 11q45 51 45 131q0 159 -166 159zM264 -74q0 -358 219 -358q60 0 102 29.5t61.5 77.5t27.5 92.5t8 91.5q0 38 -5 72.5t-19.5 70.5t-37 62.5t-60 43.5t-85.5 17q-110 0 -211 -96v-103z" />
    <glyph glyph-name="seveninferior" unicode="&#x2087;" horiz-adv-x="798" 
d="M111 303l-23 -10q-37 53 -37 115q0 66 42 111.5t132 45.5q57 0 117 -24t123.5 -48t128.5 -24q60 0 86.5 24t40.5 70h27v-61q0 -83 -20 -153t-52.5 -121t-72 -98t-78.5 -96t-71.5 -104t-52.5 -132.5t-20 -170.5q0 -42 -22.5 -63t-57.5 -21q-34 0 -57 20t-23 60
q0 99 24.5 179.5t64.5 135t89 101t99.5 88.5t94.5 86t76.5 105t41.5 135q-30 -45 -81 -73t-118 -28q-52 0 -113 24t-118 48.5t-99 24.5q-47 0 -67.5 -24.5t-20.5 -59.5q0 -28 17 -62z" />
    <glyph glyph-name="eightinferior" unicode="&#x2088;" horiz-adv-x="944" 
d="M793 334q0 -90 -52.5 -148t-144.5 -80q258 -45 258 -290q0 -140 -103 -210.5t-278 -70.5t-279 71.5t-104 209.5q0 249 260 290q-93 22 -145.5 80t-52.5 148q0 110 88.5 171.5t232.5 61.5q143 0 231.5 -61.5t88.5 -171.5zM256 -184q0 -109 53 -178.5t164 -69.5
q110 0 163.5 69.5t53.5 178.5q0 55 -12.5 102.5t-37.5 86t-68 61t-99 22.5q-75 0 -125.5 -39.5t-71 -98.5t-20.5 -134zM301 334q0 -213 172 -213q170 0 170 213q0 201 -170 201q-172 0 -172 -201z" />
    <glyph glyph-name="nineinferior" unicode="&#x2089;" horiz-adv-x="935" 
d="M420 -430q129 0 186.5 99t61.5 331q-106 -63 -224 -63q-70 0 -130 16t-109 48.5t-77 90t-28 133.5q0 150 99 245t270 95q367 0 367 -495q0 -140 -32 -245t-90 -167.5t-131.5 -92.5t-162.5 -30q-144 0 -223.5 46t-79.5 136q0 59 33.5 96t91.5 37q9 0 63 -8
q-41 -51 -41 -118q0 -63 37 -108.5t119 -45.5zM670 59q0 243 -46.5 358t-158.5 115q-57 0 -98.5 -29.5t-61.5 -77.5t-28.5 -94.5t-8.5 -94.5q0 -121 50 -193t145 -72q116 0 207 70v18z" />
    <glyph glyph-name="Euro" unicode="&#x20ac;" horiz-adv-x="1486" 
d="M850 -20q-268 0 -431.5 157t-201.5 426h-117v60h113q-4 58 -4 90q0 50 2 75h-111v60h117q23 192 112.5 330t224.5 206t304 68q90 0 164.5 -20t111.5 -43.5t68.5 -43.5t46.5 -20q21 0 35 21t14 63h29v-455h-37q-9 213 -127.5 331t-300.5 118q-111 0 -196 -43t-137.5 -121
t-82 -174.5t-40.5 -216.5h307v-60h-310q-2 -25 -2 -73q0 -63 2 -92h310v-60h-305q11 -120 41.5 -214.5t82.5 -167.5t132.5 -112.5t185.5 -39.5q189 0 311 119.5t137 304.5h29v-443h-29q-4 51 -19.5 76t-31.5 25q-17 0 -48.5 -20.5t-68.5 -45t-112 -45t-168 -20.5z" />
    <glyph glyph-name="trademark" unicode="&#x2122;" horiz-adv-x="1652" 
d="M1438 1391v-600l59 -21v-25h-225v25l59 21v466l-192 -512l-4 11v-11h-64l-201 564v-518l60 -21v-25h-168v25l59 21v600l-59 20v23h180l193 -539l204 539h158v-25zM281 770l61 21v602h-29q-82 0 -119 -31.5t-57 -126.5h-26v199h569v-199h-27q-20 95 -57.5 126.5
t-120.5 31.5h-26v-602l59 -21v-25h-227v25z" />
    <glyph glyph-name="minus" unicode="&#x2212;" horiz-adv-x="917" 
d="M766 584h-612v59h612v-59z" />
    <glyph glyph-name="commaaccent" unicode="&#xf6c3;" horiz-adv-x="512" 
d="M154 -252q0 46 29 77.5t73 31.5q53 0 85 -33.5t32 -97.5q0 -182 -209 -338l-17 22q59 52 98 121.5t50 132.5q-17 -24 -57 -24q-38 0 -61 27t-23 81z" />
    <glyph glyph-name="zerooldstyle" unicode="&#xf730;" horiz-adv-x="1275" 
d="M1171 500q0 -102 -36.5 -194.5t-103 -164t-169 -113.5t-225.5 -42t-225 42t-168.5 113.5t-103 164t-36.5 194.5q0 100 36.5 190t103 159.5t168.5 110.5t225 41t225.5 -41t169 -110.5t103 -159.5t36.5 -190zM291 500q0 -61 10 -122.5t35 -126.5t63 -114t99.5 -80.5
t138.5 -31.5q78 0 139.5 31t100 80t63.5 113.5t35 126.5t10 124q0 61 -10 121t-35 123.5t-63.5 111.5t-100 78.5t-139.5 30.5q-77 0 -138.5 -30.5t-99.5 -78t-63 -111t-35 -124t-10 -121.5z" />
    <glyph glyph-name="oneoldstyle" unicode="&#xf731;" horiz-adv-x="628" 
d="M74 852l-6 33l301 116h37v-938l180 -36v-27h-527v25l181 38v828z" />
    <glyph glyph-name="twooldstyle" unicode="&#xf732;" horiz-adv-x="1009" 
d="M494 1006q110 0 194.5 -28t137.5 -92.5t53 -158.5q0 -70 -33.5 -126.5t-85 -92t-121 -68t-134.5 -55t-133.5 -53.5t-109.5 -62q-59 -44 -88 -85t-37 -113q31 50 92 80t144 30q70 0 196.5 -35.5t180.5 -35.5q58 0 86 22t28 51q0 12 -3 23.5t-9.5 26t-7.5 16.5l22 10
q23 -35 33 -60.5t10 -60.5q0 -64 -47 -110.5t-155 -46.5q-64 0 -134 21t-145.5 42t-153.5 21q-65 0 -101.5 -22.5t-39.5 -57.5h-29q-10 38 -10 71q0 81 35 146.5t90.5 109.5t123 82.5t134.5 75.5t122.5 77.5t90.5 99.5t35 132q0 193 -231 193q-118 0 -174 -50.5t-56 -138.5
q0 -55 22 -88.5t64 -62.5q-15 -10 -55 -10q-74 0 -122 40.5t-48 116.5q0 103 103 164.5t266 61.5z" />
    <glyph glyph-name="threeoldstyle" unicode="&#xf733;" horiz-adv-x="1046" 
d="M496 1001q184 0 281 -87.5t97 -221.5q0 -121 -66 -199.5t-177 -93.5q60 -7 111.5 -28t99.5 -59.5t76 -106.5t28 -158q0 -186 -118 -278.5t-328 -92.5q-200 0 -305 72.5t-105 200.5q0 84 47.5 133t126.5 49q33 0 60 -8q-68 -68 -68 -176q0 -106 62 -166t182 -60
q129 0 197.5 82t68.5 248q0 172 -76.5 245t-245.5 73h-61v45h61q134 0 196 68t62 216q0 132 -50 196t-156 64t-157.5 -56.5t-51.5 -141.5q0 -52 16.5 -87.5t58.5 -70.5q-31 -10 -71 -10q-71 0 -113.5 41.5t-42.5 111.5q0 110 95 183t266 73z" />
    <glyph glyph-name="fouroldstyle" unicode="&#xf734;" horiz-adv-x="950" 
d="M37 0v20l700 1035h33v-998h168v-57h-168v-190l148 -37v-27h-459v25l145 39v190h-567zM129 57h475v697z" />
    <glyph glyph-name="fiveoldstyle" unicode="&#xf735;" horiz-adv-x="1009" 
d="M469 -262q270 0 270 346q0 192 -78 270t-233 78q-121 0 -248 -43l47 612h17q42 -5 209.5 -36t236.5 -31q98 0 98 55q0 26 -26 72l16 14q48 -59 65 -95t17 -77q0 -119 -147 -119q-93 0 -242.5 38t-208.5 69l-35 -424q133 37 246 37q74 0 138 -13.5t122 -44t98.5 -76.5
t64.5 -116t24 -158q0 -194 -125.5 -298.5t-327.5 -104.5q-181 0 -285 68t-104 194q0 73 37.5 120.5t101.5 47.5q27 0 66 -10q-60 -65 -60 -156q0 -93 61 -156t185 -63z" />
    <glyph glyph-name="sixoldstyle" unicode="&#xf736;" horiz-adv-x="1095" 
d="M594 1264q-55 0 -97.5 -16t-80.5 -56.5t-64 -107.5t-42.5 -172.5t-20.5 -247.5q65 67 137 97t164 30q77 0 145.5 -21t127.5 -64t93.5 -119.5t34.5 -178.5q0 -193 -114.5 -309.5t-313.5 -116.5q-109 0 -190 32t-141 102t-90.5 188.5t-30.5 285.5q0 159 26.5 284t71 205
t107.5 132.5t131.5 74t146.5 21.5q156 0 251 -66t95 -180q0 -76 -36 -125t-105 -49q-31 0 -51 10q51 54 51 172q0 195 -205 195zM287 547q0 -103 8 -181.5t27.5 -144.5t51.5 -108t80 -65t113 -23q71 0 121 32t76 88t37.5 117.5t11.5 134.5q0 75 -12.5 135t-40 108.5
t-76 75.5t-115.5 27q-86 0 -151 -32t-131 -103v-61z" />
    <glyph glyph-name="sevenoldstyle" unicode="&#xf737;" horiz-adv-x="917" 
d="M121 743l-25 -12q-45 71 -45 146q0 36 10.5 68t32.5 59.5t62 44t94 16.5q56 0 115.5 -19t103 -42.5t106 -42.5t125.5 -19q35 0 59 9t39 28t23 36.5t17 47.5h28v-82q0 -105 -24 -193t-63 -152t-85.5 -124.5t-93 -125.5t-85.5 -139t-63 -181t-24 -236q0 -47 -24 -68.5
t-62 -21.5q-80 0 -80 84q0 105 17.5 193.5t48 152.5t70 119.5t84 101t89.5 88t87.5 89t77 97t59 118.5t32.5 147q-33 -54 -88.5 -87.5t-126.5 -33.5q-50 0 -109 19t-104 42.5t-99 42.5t-95 19q-55 0 -80 -32t-25 -79q0 -30 21 -78z" />
    <glyph glyph-name="eightoldstyle" unicode="&#xf738;" horiz-adv-x="1091" 
d="M920 1008q0 -115 -61 -188.5t-169 -102.5q303 -55 303 -375q0 -179 -121 -269.5t-325 -90.5q-205 0 -327 91.5t-122 268.5q0 320 305 375q-109 29 -170 102.5t-61 188.5q0 142 103.5 221.5t271.5 79.5q167 0 270 -79t103 -222zM274 342q0 -139 68 -228t205 -89
q135 0 202.5 89t67.5 228q0 96 -27 173t-89.5 127t-153.5 50q-136 0 -204.5 -100t-68.5 -250zM332 1008q0 -39 5 -74.5t19 -73.5t37 -65t62.5 -44.5t91.5 -17.5t91 17.5t62 44.5t37 65t18.5 73t4.5 75q0 48 -8.5 89t-30 81.5t-66 64t-108.5 23.5q-52 0 -91.5 -16.5
t-62.5 -41.5t-37 -60.5t-19 -69t-5 -70.5z" />
    <glyph glyph-name="nineoldstyle" unicode="&#xf739;" horiz-adv-x="1062" 
d="M483 -279q97 0 157.5 51.5t94.5 173t39 324.5q-72 -43 -128.5 -60t-125.5 -17q-120 0 -209.5 39t-143.5 127t-54 219q0 190 109 306.5t296 116.5q206 0 320 -154.5t114 -484.5q0 -183 -36 -318t-101 -214t-147.5 -116.5t-184.5 -37.5q-166 0 -259 62t-93 174q0 72 37 117
t100 45q33 0 66 -8q-43 -58 -43 -146q0 -40 9.5 -73.5t30 -63t59.5 -46t93 -16.5zM776 362q0 315 -59 455.5t-197 140.5q-67 0 -113.5 -30t-70 -85t-33.5 -117t-10 -142q0 -178 51.5 -263t177.5 -85q137 0 254 92v34z" />
    <glyph glyph-name="G.s" horiz-adv-x="1439" 
d="M1098 582l-125 43v26h409v-28l-120 -41v-594h-29q-1 6 -3.5 25t-4 29t-5 28t-8 28t-10 21.5t-13.5 16.5t-18 5q-14 0 -36.5 -16.5t-54 -40t-73.5 -47.5t-111 -40.5t-151 -16.5q-134 0 -242 39.5t-179 106t-118.5 159.5t-68 195.5t-20.5 217.5q0 118 21.5 224.5
t70.5 204.5t122.5 169t184.5 113.5t248 42.5q93 0 169.5 -20t114.5 -43.5t69.5 -43.5t45.5 -20q23 0 35 18.5t12 65.5h29v-455h-35q-9 211 -127 330t-311 119q-73 0 -134.5 -18t-106 -46t-79.5 -73t-57 -87t-38.5 -100.5t-24 -102t-12 -102.5t-5 -90t-0.5 -77
q0 -71 1.5 -116.5t10 -124t24.5 -131t48 -115.5t77 -101t115.5 -64t159.5 -26q103 0 174.5 27t109.5 77.5t53.5 109t15.5 134.5v205z" />
    <glyph glyph-name="S.s" horiz-adv-x="1169" 
d="M590 1403q-126 0 -201.5 -74.5t-75.5 -185.5q0 -64 25 -115.5t68 -87t98.5 -65t116.5 -55.5t122 -53.5t116.5 -63.5t98.5 -80t68 -109.5t25 -146.5q0 -80 -24 -145.5t-66 -109.5t-99 -74.5t-121.5 -44t-136.5 -13.5q-87 0 -159.5 20.5t-109 45t-67.5 45t-47 20.5
q-39 0 -61 -117h-31v508h27q26 -126 72.5 -219t106 -147t126.5 -79.5t143 -25.5q143 0 221 75t78 195q0 69 -25 124.5t-68 94t-98 71t-116.5 60.5t-122.5 56t-116 63t-98 77t-68 103.5t-25 136.5q0 172 118.5 268.5t305.5 96.5q73 0 133.5 -17t92 -37.5t60.5 -37.5t46 -17
q41 0 53 84h26v-454h-32q-12 114 -47.5 199.5t-88 134.5t-113.5 72.5t-130 23.5z" />
    <glyph glyph-name="a.b" horiz-adv-x="1128" 
d="M160 748q0 111 98.5 182t263.5 71q56 0 106.5 -10.5t101 -38t87 -70t59.5 -111.5t23 -157v-442q0 -59 20.5 -85t49.5 -26q37 0 59.5 41t22.5 121h39q0 -123 -42 -183t-130 -60q-146 0 -166 151q-132 -151 -349 -151q-157 0 -234 71.5t-77 196.5q0 48 11.5 87t44.5 76.5
t86 62.5t141 40.5t205 15.5h168v84q0 184 -60.5 261t-173.5 77q-125 0 -181.5 -39t-56.5 -84q0 -19 27 -46.5t27 -55.5q0 -35 -21.5 -55.5t-62.5 -20.5q-86 0 -86 97zM748 186v295h-168q-96 0 -161.5 -17t-99 -49t-47.5 -69.5t-14 -87.5q0 -203 205 -203q167 0 285 131z" />
    <glyph glyph-name="r.b" horiz-adv-x="876" 
d="M205 909l-105 43v27h258v-178q18 89 83.5 144.5t172.5 55.5q94 0 154.5 -54t60.5 -152q0 -59 -25.5 -88t-68.5 -29q-38 0 -61 22t-23 60q0 30 27 59t27 47q0 33 -31 53.5t-82 20.5q-97 0 -164 -79t-70 -253v-538l125 -41v-29h-403v27l125 43v839z" />
    <glyph glyph-name="g.b" horiz-adv-x="1114" 
d="M961 670q0 -149 -118.5 -246.5t-299.5 -97.5q-71 0 -137 16q-125 -28 -125 -119q0 -57 46 -84.5t144 -27.5h213q119 0 203 -19t131 -56t67.5 -84t20.5 -110q0 -158 -124.5 -227.5t-385.5 -69.5q-475 0 -475 254q0 80 50 133.5t169 81.5q-88 14 -133 60.5t-45 109.5
q0 128 176 181q-101 45 -159 127t-58 182q0 142 118.5 234.5t303.5 92.5q112 0 196 -34q9 99 71 158t161 59q68 0 108.5 -30t40.5 -89q0 -47 -26.5 -71.5t-65.5 -24.5t-67.5 22.5t-28.5 65.5q0 31 22 73q-66 0 -111.5 -51.5t-45.5 -138.5q77 -45 120.5 -114.5t43.5 -155.5z
M455 -16q-94 -11 -150.5 -58t-56.5 -131q0 -198 348 -198q145 0 230.5 25.5t118 71t32.5 118.5q0 88 -70.5 130t-247.5 42h-204zM289 672q0 -56 13 -106t41 -93t78 -68.5t118 -25.5t119 25t79 68.5t41 93t13 106.5t-13 104.5t-40.5 88.5t-77.5 64t-119 23q-129 0 -190.5 -79
t-61.5 -201z" />
    <glyph glyph-name="j.b" horiz-adv-x="538" 
d="M207 -41v961l-113 32v27h266v-999q0 -205 -76 -305.5t-235 -100.5q-112 0 -173.5 56t-61.5 149q0 45 20.5 70.5t56.5 25.5q43 0 64.5 -20.5t21.5 -55.5q0 -28 -24.5 -55.5t-24.5 -46.5q0 -28 29 -51t92 -23q98 0 128 72.5t30 263.5zM168 1315q0 48 29.5 80t81.5 32
q53 0 82.5 -32t29.5 -80q0 -46 -29.5 -76.5t-82.5 -30.5q-52 0 -81.5 30.5t-29.5 76.5z" />
    <glyph glyph-name="f.b" horiz-adv-x="663" 
d="M520 1487q-74 0 -117 -69.5t-43 -217.5v-217h246v-53h-246v-860l166 -41v-29h-442v27l125 43v860h-125v53h125v213q0 167 78.5 253.5t232.5 86.5q107 0 163 -57t56 -144q0 -108 -84 -108q-39 0 -61.5 22.5t-22.5 59.5q0 30 30 57.5t30 48.5q0 30 -30 51t-81 21z" />
    <glyph glyph-name="c.b" horiz-adv-x="1077" 
d="M614 954q-112 0 -190 -64.5t-114 -169.5t-36 -241q0 -71 9.5 -132.5t34.5 -121t64 -101.5t101.5 -67.5t143.5 -25.5q226 0 321 166l43 -23q-113 -194 -368 -194q-251 0 -386 136t-135 367q0 230 144 374t368 144q161 0 252.5 -72.5t91.5 -195.5q0 -102 -84 -102
q-39 0 -60 20.5t-21 55.5q0 26 20.5 52.5t20.5 49.5q0 58 -59 101.5t-161 43.5z" />
    <glyph glyph-name="y.b" horiz-adv-x="1038" 
d="M1038 979v-27l-120 -43l-324 -909q-21 -58 -36 -96.5t-39 -91t-46.5 -87t-55 -71.5t-67.5 -59t-81 -36t-99 -14q-154 0 -154 117q0 48 26.5 74t66.5 26t65 -24t25 -68q0 -40 -21 -61q52 0 91.5 14.5t78.5 51.5t75.5 102t76.5 166q5 27 -6 42t-45 15l-324 909l-111 43v27
h381v-27l-108 -43l278 -788l283 788l-109 43v27h299z" />
    <glyph glyph-name="s.s" horiz-adv-x="888" 
d="M451 950q-95 0 -142 -41t-47 -102q0 -46 28.5 -85t74 -68t100.5 -57t110 -59t100.5 -67t74 -89t28.5 -116q0 -119 -90.5 -202.5t-245.5 -83.5q-61 0 -111.5 14.5t-75.5 32.5t-48 32.5t-37 14.5q-13 0 -19 -16t-14 -64h-20v340h28q13 -141 99 -220t200 -79q34 0 65.5 7.5
t63.5 24.5t51 51t19 81q0 58 -28 103.5t-73 76.5t-99 58.5t-108 56.5t-99 62t-73 83t-28 113q0 114 86.5 181.5t224.5 67.5q58 0 107.5 -14t75 -31t44.5 -31t23 -14q16 0 31 64h21v-307h-29q-16 147 -87.5 214.5t-180.5 67.5z" />
    <glyph glyph-name="s.b" horiz-adv-x="903" 
d="M434 29q114 0 175 49t61 143q0 64 -29.5 112t-77 78t-104.5 55t-114.5 49t-105 53.5t-77 76.5t-29.5 109q0 116 90.5 181.5t235.5 65.5q134 0 217.5 -59t83.5 -151q0 -91 -84 -91q-37 0 -58.5 18.5t-21.5 53.5q0 28 18.5 53.5t18.5 38.5q0 34 -48 61t-126 27
q-98 0 -149.5 -39t-51.5 -108q0 -42 23.5 -76t61.5 -55.5t87 -44t100.5 -41t100.5 -46.5t87 -60.5t61.5 -84.5t23.5 -116q0 -144 -105.5 -222.5t-263.5 -78.5q-153 0 -246.5 57.5t-93.5 152.5q0 45 22.5 68t61.5 23q36 0 58 -19t22 -53q0 -28 -18.5 -53.5t-18.5 -38.5
q0 -35 55.5 -61.5t157.5 -26.5z" />
    <glyph glyph-name="A.alt" horiz-adv-x="1345" 
d="M1051 70l-140 385h-581l-140 -385l125 -41v-29h-331v27l125 43l493 1364h139l496 -1364l141 -43v-27h-469v29zM621 1257l-269 -737h535z" />
    <glyph glyph-name="C.s" horiz-adv-x="1378" 
d="M758 -20q-203 0 -349 94t-219 258t-73 381q0 176 49 317.5t136.5 233t205.5 140t258 48.5q90 0 164.5 -20t111.5 -43.5t68.5 -43.5t46.5 -20q21 0 35 21t14 63h29v-455h-37q-9 213 -127.5 331t-300.5 118q-102 0 -182 -37t-132 -99.5t-85.5 -152t-47.5 -187.5t-14 -212
q0 -149 24 -269.5t75.5 -216t140 -148t209.5 -52.5q189 0 311 119.5t137 304.5h29v-443h-29q-4 51 -19.5 76t-31.5 25q-17 0 -48.5 -20.5t-68.5 -45t-112 -45t-168 -20.5z" />
    <glyph glyph-name="J.b" horiz-adv-x="1075" 
d="M694 455v909l-125 43v27h414v-29l-125 -41v-905q0 -228 -123.5 -347.5t-339.5 -119.5q-163 0 -252.5 93.5t-89.5 246.5q0 106 88 106q38 0 61 -22t23 -54q0 -26 -12.5 -46t-27.5 -30t-27.5 -24.5t-12.5 -30.5q0 -73 65.5 -131.5t184.5 -58.5q299 0 299 414z" />
    <glyph glyph-name="J.s" horiz-adv-x="1153" 
d="M178 100q-22 0 -34 -17t-33 -67h-21v492h29q38 -223 128.5 -345t231.5 -122q291 0 291 459v864l-125 43v27h416v-29l-125 -41v-860q0 -241 -123.5 -376.5t-333.5 -135.5q-65 0 -120.5 17t-85.5 37t-56 37t-39 17z" />
    <glyph glyph-name="V.a" horiz-adv-x="1361" 
d="M610 0l-493 1364l-125 43v27h436v-29l-123 -41l426 -1186l432 1186l-125 41v29h332v-27l-125 -43l-495 -1364h-140z" />
    <glyph glyph-name="v.a" horiz-adv-x="1028" 
d="M1022 979v-27l-121 -43l-313 -909h-150l-311 909l-121 43v27h404v-27l-121 -43l272 -805l279 805l-135 43v27h317z" />
    <glyph glyph-name="w.a" horiz-adv-x="1568" 
d="M410 0l-281 909l-121 43v27h414v-27l-131 -41l239 -794l226 762l-8 30l-125 43v27h403v-27l-121 -43h-4l234 -790l231 794l-123 39v27h318v-27l-121 -43l-277 -909h-145l-232 780l-227 -780h-149z" />
    <glyph glyph-name="two.b" horiz-adv-x="1185" 
d="M571 1452q138 0 244 -44.5t167.5 -135.5t61.5 -217q0 -89 -28.5 -159t-77.5 -118t-112.5 -87t-135 -71t-143.5 -65t-139.5 -76t-122 -95.5t-91.5 -131t-47 -176.5q30 65 105.5 109t179.5 44q67 0 151 -26t163 -52t135 -26q73 0 108 37t35 88q0 36 -25 88l31 8
q53 -79 53 -156q0 -41 -13 -78t-40 -69t-76 -51t-114 -19q-62 0 -127.5 19t-114 41.5t-119.5 41.5t-143 19q-49 0 -82 -7.5t-54 -25.5t-31.5 -34.5t-23.5 -46.5h-34q-13 50 -13 100q0 96 27 176.5t73 138.5t105.5 108t125 90.5t131.5 79.5t125.5 82t105.5 91.5t73 115
t27 144.5q0 297 -320 297q-88 0 -154.5 -20t-102 -52.5t-52 -67t-16.5 -71.5q0 -31 34.5 -64.5t34.5 -68.5q0 -41 -23 -65.5t-67 -24.5q-86 0 -86 114q0 76 24 140.5t73.5 117t135 82t199.5 29.5z" />
    <glyph glyph-name="two.s" horiz-adv-x="1003" 
d="M51 0q-8 62 -8 104q0 101 27 185t73 143t106 108.5t126 89t131.5 77t125.5 79.5t106 90t73 114.5t27 146.5q0 126 -67.5 197t-201.5 71q-109 0 -205 -44.5t-163 -137.5t-78 -219h-29v442h21q22 -62 39.5 -89.5t35.5 -27.5q14 0 45.5 20.5t69 45t109 45t155.5 20.5
q66 0 126.5 -12t117 -41t98 -71.5t66 -108.5t24.5 -148q0 -87 -27.5 -156.5t-74.5 -117t-108 -87t-130.5 -72.5t-140.5 -66t-138.5 -74.5t-123 -91.5t-97 -123.5t-57.5 -163.5h648q114 0 171 64t68 233h33v-424h-973z" />
    <glyph glyph-name="five.b" horiz-adv-x="1103" 
d="M485 29q340 0 340 383q0 171 -90 281t-252 110q-140 0 -286 -49l53 680h18q60 -4 236 -41t246 -37q54 0 84 13t30 50q0 26 -33 78l19 16q52 -58 73 -92.5t21 -77.5q0 -63 -45.5 -102t-130.5 -39q-195 0 -479 137l-39 -516q143 41 278 41q215 0 347.5 -117t132.5 -327
q0 -213 -137 -326.5t-375 -113.5q-193 0 -302.5 92.5t-109.5 242.5q0 142 98 142q44 0 66 -24t22 -64q0 -29 -14.5 -50.5t-31.5 -32t-31.5 -28t-14.5 -39.5q0 -69 84 -129.5t223 -60.5z" />
    <glyph glyph-name="six.b" horiz-adv-x="1204" 
d="M664 1403q-65 0 -113.5 -16t-93.5 -60t-74.5 -118.5t-50 -194t-27.5 -283.5q161 148 367 148q68 0 128.5 -14t116 -46t95 -80t63 -121t23.5 -165q0 -214 -131.5 -343.5t-354.5 -129.5q-491 0 -491 682q0 126 16.5 233.5t45 187.5t69 143.5t87.5 105t102 69t109.5 39.5
t113.5 12q175 0 273.5 -77t98.5 -204q0 -118 -94 -118q-39 0 -58.5 21t-19.5 54q0 24 10 41t22 25.5t22 22t10 30.5q0 57 -70.5 106.5t-193.5 49.5zM303 551q0 -52 1.5 -90.5t8 -97t19 -100.5t36 -89.5t56.5 -77t84 -49.5t115 -20q70 0 124 28t85.5 70.5t51.5 101t27 112
t7 110.5q0 56 -7 106.5t-26 101.5t-49 87.5t-80 59.5t-115 23q-173 0 -338 -155v-121z" />
    <glyph glyph-name="nine.b" horiz-adv-x="1167" 
d="M489 29q179 0 267 149.5t102 462.5q-153 -88 -291 -88q-94 0 -172.5 22.5t-142.5 69.5t-100.5 128.5t-36.5 189.5q0 221 126 355t324 134q109 0 193.5 -35.5t149.5 -113t99.5 -211.5t34.5 -320q0 -208 -40.5 -363t-115 -247.5t-173.5 -137t-224 -44.5q-162 0 -255 71.5
t-93 184.5q0 48 26.5 76t68.5 28q36 0 56.5 -22.5t20.5 -55.5q0 -23 -17.5 -41.5t-34.5 -31.5t-17 -23q0 -56 65.5 -96.5t179.5 -40.5zM862 782q0 43 -0.5 71.5t-3 82.5t-7.5 92t-15.5 90.5t-24.5 89.5t-36.5 76.5t-51 64t-68 40.5t-86.5 16q-54 0 -97 -18t-70 -45.5
t-47.5 -68.5t-30 -76.5t-15.5 -81t-7 -71.5t-1 -57q0 -46 1 -75.5t6.5 -74.5t16 -74.5t30.5 -63t48.5 -53t72 -33t99.5 -13.5q68 0 144.5 28.5t140.5 80.5q2 23 2 73z" />
    <glyph glyph-name="question.b" horiz-adv-x="980" 
d="M465 1452q92 0 173 -23t145 -67t101.5 -117t37.5 -166q0 -74 -26.5 -136.5t-69.5 -107t-94.5 -84.5t-103 -78.5t-94.5 -79.5t-69.5 -96.5t-26.5 -121.5q0 -40 4 -60h-43q-10 54 -10 117q2 68 24 126t54.5 100t71.5 81.5t77.5 79.5t70.5 84t51.5 105t19.5 133
q0 116 -77 189t-216 73q-81 0 -143 -19.5t-97 -52.5t-52 -70.5t-17 -78.5q0 -15 18 -29.5t36.5 -34t18.5 -45.5q0 -39 -22.5 -62.5t-67.5 -23.5q-36 0 -61 26.5t-25 78.5q0 164 103.5 262t308.5 98zM307 86q0 -46 29.5 -76t83.5 -30q52 0 81 30t29 76q0 48 -29.5 80.5
t-80.5 32.5q-52 0 -82.5 -32.5t-30.5 -80.5z" />
    <glyph glyph-name="ampersand.a" horiz-adv-x="1484" 
d="M1253 551q0 -119 -47.5 -225.5t-138.5 -184.5q85 -73 156 -73q48 0 81.5 10.5t61.5 44.5l27 -23q-39 -62 -86.5 -91t-120.5 -29q-115 0 -234 83q-160 -83 -377 -83q-84 0 -156.5 13.5t-136.5 44t-109 76t-71 113t-26 150.5q0 186 116.5 295t311.5 133q-31 133 -31 254
q0 200 79 297.5t212 97.5q117 0 180.5 -70.5t63.5 -189.5q0 -41 -8.5 -82t-32 -89t-60 -90.5t-97 -85t-138.5 -73.5q60 -167 155 -327t195 -261q170 147 170 365v14l-156 43v27h373v-29l-156 -41v-14zM897 106q-123 106 -224.5 280t-154.5 366q-127 -31 -195.5 -123
t-68.5 -236q0 -161 93 -254.5t269 -93.5q159 0 281 61zM598 1126q0 -132 55 -303q79 28 135.5 76.5t84 104t39.5 103t12 91.5q0 86 -39.5 143.5t-110.5 57.5q-86 0 -131 -78.5t-45 -194.5z" />
    <glyph glyph-name="sterling.b" horiz-adv-x="1153" 
d="M641 1452q177 0 283 -81.5t106 -209.5q0 -110 -90 -110q-41 0 -60.5 21t-19.5 52q0 20 11 36t24 25t24 22.5t11 29.5q0 58 -80.5 112t-208.5 54q-281 0 -281 -252q0 -72 23 -147.5t52 -151t38 -127.5h297v-59h-291q-1 -84 -40 -177.5t-81 -154t-104 -137.5q77 39 172 39
q57 0 128 -21t126 -46t116 -46t101 -21q46 0 67 22t21 56q0 36 -24 86l26 13q55 -63 55 -148q0 -21 -3.5 -41t-14.5 -42t-28.5 -38t-47.5 -26.5t-69 -10.5q-62 0 -130.5 21t-121.5 45.5t-126.5 45.5t-144.5 21q-85 0 -150 -26.5t-87 -79.5h-33q0 54 24.5 114t59.5 117
t70 118.5t59.5 139.5t24.5 158v19h-168v59h159q-10 47 -39 107t-50 120.5t-21 130.5q0 76 24 138.5t65.5 104.5t97.5 71t118.5 42t130.5 13z" />
    <glyph glyph-name="three.b" horiz-adv-x="1171" 
d="M522 29q102 0 171.5 24.5t109.5 74t57 116t17 159.5q0 89 -16 150.5t-55 107.5t-109 67.5t-175 21.5h-80v49h82q291 0 291 299q0 145 -72 225t-217 80q-120 0 -195 -55.5t-75 -114.5q0 -19 9 -31.5t20.5 -18t20.5 -20t9 -37.5q0 -36 -23 -59t-65 -23q-77 0 -77 105
q0 127 102 215t274 88q231 0 349 -98t118 -262q0 -131 -71.5 -214.5t-184.5 -99.5q62 -7 117 -31.5t103 -66.5t76 -111t28 -155q0 -213 -142 -323.5t-397 -110.5q-190 0 -306 92.5t-116 240.5q0 61 23 88t70 27q81 0 81 -78q0 -23 -10 -40.5t-22.5 -26.5t-22.5 -24t-10 -34
q0 -72 88.5 -134t224.5 -62z" />
    <glyph glyph-name="A.SC" horiz-adv-x="1210" 
d="M936 55l-123 275h-520l-113 -275l127 -32v-23h-319v20l123 35l467 1108h34l506 -1108l123 -35v-20h-428v23zM545 936l-230 -553h476z" />
    <glyph glyph-name="B.SC" horiz-adv-x="1210" 
d="M236 1092l-107 34v21h496q207 0 308 -75.5t101 -197.5q0 -110 -66 -173.5t-173 -82.5q58 -6 108.5 -23.5t97 -50.5t74 -91t27.5 -134q0 -319 -477 -319h-496v20l107 35v1037zM604 592h-205v-543h211q161 0 237.5 61t76.5 209q0 150 -79 211.5t-241 61.5zM598 1098h-199
v-459h213q120 0 185 63t65 177q0 99 -70.5 159t-193.5 60z" />
    <glyph glyph-name="C.SC" horiz-adv-x="1173" 
d="M682 -16q-267 0 -418 159.5t-151 423.5q0 139 43.5 252t119.5 187.5t179.5 114.5t224.5 40q163 0 269 -71t106 -199q0 -91 -57 -142t-130 -51q-15 0 -51 9q86 67 86 186q0 105 -58.5 167t-174.5 62q-179 0 -273 -145.5t-94 -413.5q0 -262 95 -399t302 -137
q145 0 248.5 62t153.5 151l35 -17q-30 -48 -65 -86t-88.5 -75t-130.5 -57.5t-171 -20.5z" />
    <glyph glyph-name="D.SC" horiz-adv-x="1277" 
d="M236 1092l-107 34v21h412q299 0 462.5 -158t163.5 -420q0 -264 -163.5 -416.5t-462.5 -152.5h-412v20l107 35v1037zM526 1098h-127v-1051h127q129 0 220 36t143 106.5t75 163t23 218.5t-21.5 218t-72.5 164t-142.5 108.5t-224.5 36.5z" />
    <glyph glyph-name="E.SC" horiz-adv-x="1114" 
d="M236 1092l-107 34v21h848v-289h-29q-21 79 -37 119.5t-44.5 71.5t-67.5 41t-105 10h-295v-496h152q36 2 61.5 11t41 19t30 35.5t21.5 45t22 63.5h29v-389h-29q-17 51 -26 73t-27.5 47t-44 34.5t-66.5 13.5h-164v-512h283q60 0 101.5 9t69 24.5t47.5 48t32.5 66.5t28.5 94
h28v-287h-860v20l107 35v1037z" />
    <glyph glyph-name="F.SC" horiz-adv-x="1042" 
d="M129 20l107 35v1037l-107 34v21h838v-289h-29q-22 79 -38 119t-44 71.5t-67 41.5t-105 10h-285v-496h146q88 6 120 40.5t64 133.5h27v-389h-27q-17 51 -27.5 74t-29.5 47t-45 33.5t-68 13.5h-160v-502l107 -32v-23h-377v20z" />
    <glyph glyph-name="G.SC" horiz-adv-x="1253" 
d="M672 1122q-75 0 -135.5 -28t-99.5 -77t-66.5 -106t-41.5 -123.5t-20 -120.5t-6 -106q0 -73 8.5 -141.5t32.5 -143t62 -128.5t103 -89.5t150 -35.5q140 0 205.5 71.5t65.5 190.5v186l-105 33v22h369v-22l-102 -33v-483h-25q-1 5 -3.5 20.5t-4 24t-5 23t-7.5 23t-9.5 17.5
t-13.5 13t-18 4q-18 0 -49 -20t-64.5 -44.5t-97.5 -44.5t-140 -20q-129 0 -233.5 48t-171 129.5t-102 185.5t-35.5 220q0 88 19.5 171.5t63.5 160.5t107.5 135t158.5 92.5t210 34.5q195 0 307.5 -77.5t112.5 -186.5q0 -74 -41.5 -115t-116.5 -41q-25 0 -62 11q60 60 60 145
q0 108 -70 166.5t-190 58.5z" />
    <glyph glyph-name="H.SC" horiz-adv-x="1345" 
d="M838 20l106 35v494h-545v-494l107 -32v-23h-377v20l107 35v1037l-107 34v21h377v-23l-107 -32v-496h545v496l-106 34v21h379v-23l-107 -32v-1037l107 -32v-23h-379v20z" />
    <glyph glyph-name="I.SC" horiz-adv-x="634" 
d="M236 1092l-107 34v21h377v-23l-107 -32v-1037l107 -32v-23h-377v20l107 35v1037z" />
    <glyph glyph-name="J.SC" horiz-adv-x="1017" 
d="M408 -6v39q243 0 243 379v680l-106 34v21h377v-23l-109 -32v-676q0 -199 -109 -310.5t-296 -111.5zM408 33v-39q-170 0 -261.5 62.5t-91.5 172.5q0 62 39 103t103 41q19 0 65 -11q-55 -61 -55 -143q0 -31 9 -60t29.5 -59t62.5 -48.5t100 -18.5z" />
    <glyph glyph-name="K.SC" horiz-adv-x="1202" 
d="M823 1147h344v-21l-153 -34l-393 -402l471 -635l106 -35v-20h-266l-426 573l-107 -108v-410l107 -32v-23h-377v20l107 35v1037l-107 34v21h377v-23l-107 -32v-533l531 539l-107 28v21z" />
    <glyph glyph-name="L.SC" horiz-adv-x="1071" 
d="M129 0v20l107 35v1037l-107 34v21h377v-23l-107 -32v-1047h273q154 0 215 65t80 230h26v-340h-864z" />
    <glyph glyph-name="M.SC" horiz-adv-x="1638" 
d="M1116 20l121 35v926l-414 -981h-114l-410 987v-932l121 -32v-23h-305v20l121 35v1037l-121 34v21h295l417 -995l416 995h281v-23l-121 -32v-1037l121 -32v-23h-408v20z" />
    <glyph glyph-name="N.SC" horiz-adv-x="1341" 
d="M1085 -16l-780 999v-928l127 -32v-23h-319v20l123 35v1037l-105 34v21h260l660 -846v791l-125 34v21h315v-23l-123 -32v-1108h-33z" />
    <glyph glyph-name="O.SC" horiz-adv-x="1318" 
d="M1206 578q0 -260 -150.5 -427t-387.5 -167q-245 0 -400 167t-155 427q0 167 70 299.5t197 208t288 75.5q156 0 279 -75.5t191 -208.5t68 -299zM303 578q0 -107 19.5 -201t60.5 -173.5t114 -126t171 -46.5q92 0 161.5 46.5t109 126t58.5 173.5t19 201q0 78 -11.5 152
t-38 144.5t-65.5 123t-99 84.5t-134 32q-79 0 -142 -32t-104 -84.5t-68.5 -123t-39 -144.5t-11.5 -152z" />
    <glyph glyph-name="P.SC" horiz-adv-x="1105" 
d="M236 1092l-107 34v21h416q239 0 366 -81t127 -245q0 -317 -503 -317h-136v-449l107 -32v-23h-377v20l107 35v1037zM518 1100h-119v-549h119q187 0 264.5 59t77.5 213q0 153 -77.5 215t-264.5 62z" />
    <glyph glyph-name="Q.SC" horiz-adv-x="1318" 
d="M1151 -76l23 6q30 -55 30 -110q0 -32 -8 -60t-26.5 -54t-53 -41t-82.5 -15q-50 0 -95.5 22t-81 53t-70.5 62.5t-77.5 53.5t-86.5 22q-42 0 -68.5 -22t-26.5 -56q0 -29 35 -64l-22 -10q-17 17 -25 26.5t-16 28.5t-8 41q0 74 48 122t124 48q49 0 94.5 -21t81 -50.5t70 -59
t76.5 -50.5t85 -21q49 0 74.5 21.5t25.5 58.5q0 36 -20 69zM1206 578q0 -260 -150.5 -427t-387.5 -167q-245 0 -400 167t-155 427q0 167 70 299.5t197 208t288 75.5q156 0 279 -75.5t191 -208.5t68 -299zM303 578q0 -86 11 -162t37.5 -148.5t67 -124t104.5 -83t145 -31.5
q95 0 165 46.5t108.5 127t56.5 174t18 201.5q0 79 -10.5 152.5t-36 145t-64.5 124.5t-100 85.5t-137 32.5q-81 0 -145 -32.5t-104.5 -85t-67 -124.5t-37.5 -145.5t-11 -152.5z" />
    <glyph glyph-name="R.SC" horiz-adv-x="1208" 
d="M236 1092l-107 34v21h449q464 0 464 -322q0 -131 -75.5 -202t-225.5 -93l336 -475l107 -35v-20h-254l-365 520h-166v-465l107 -32v-23h-377v20l107 35v1037zM553 1100h-154v-533h154q163 0 237 61t74 197q0 139 -75.5 207t-235.5 68z" />
    <glyph glyph-name="S.SC" horiz-adv-x="1032" 
d="M520 1122q-110 0 -171.5 -56t-61.5 -144q0 -51 22 -91.5t59 -68.5t85 -51.5t101 -44t105.5 -42.5t100.5 -51.5t85 -65.5t59 -89.5t22 -120.5q0 -103 -56.5 -175t-148 -105t-209.5 -33q-113 0 -204 23t-150.5 76.5t-59.5 131.5q0 68 40.5 112t107.5 44q31 0 55 -9
q-51 -54 -51 -143q0 -97 67.5 -145.5t194.5 -48.5q130 0 204.5 53.5t74.5 154.5q0 53 -22 96t-59 73t-85 55t-100.5 46.5t-105.5 44t-101 51t-85 64t-59 87t-22 114.5q0 142 101.5 220.5t266.5 78.5q100 0 178.5 -22t130.5 -74t52 -129q0 -64 -33 -102.5t-94 -38.5
q-31 0 -60 10q66 48 66 135t-60.5 133.5t-179.5 46.5z" />
    <glyph glyph-name="T.SC" horiz-adv-x="1107" 
d="M367 20l106 35v1039h-102q-65 0 -106 -11.5t-69 -43t-43.5 -68t-35.5 -105.5h-29v281h932v-281h-29q-20 68 -36 105t-44 68.5t-69 43t-105 11.5h-102v-1039l106 -32v-23h-374v20z" />
    <glyph glyph-name="U.SC" horiz-adv-x="1253" 
d="M985 1092l-106 34v21h276v-23l-106 -32v-711q0 -188 -105.5 -292.5t-308.5 -104.5q-69 0 -130.5 12.5t-117 42.5t-95.5 74.5t-63.5 113t-23.5 154.5v711l-107 34v21h375v-23l-106 -32v-711q0 -140 75 -232t230 -92q150 0 231.5 90t81.5 234v711z" />
    <glyph glyph-name="V.SC" horiz-adv-x="1183" 
d="M291 1092l354 -875l350 875l-125 32v23h318v-21l-123 -34l-459 -1115h-24l-469 1115l-121 34v21h424v-23z" />
    <glyph glyph-name="W.SC" horiz-adv-x="1679" 
d="M901 1161l326 -911l282 842l-110 32v23h282v-21l-112 -34l-373 -1108h-27l-335 919l-330 -919h-33l-352 1108l-111 34v21h391v-23l-110 -32l252 -848l327 917h33z" />
    <glyph glyph-name="X.SC" horiz-adv-x="1177" 
d="M356 0h-344v20l150 33l348 522l-360 517l-107 34v21h399v-23l-104 -32l289 -416l272 418l-108 32v21h331v-21l-143 -34h-2l-313 -469l399 -568l104 -35v-20h-399v23l106 32l-327 467l-305 -469l114 -33v-20z" />
    <glyph glyph-name="Y.SC" horiz-adv-x="1116" 
d="M381 20l106 35v371l-370 666l-107 34v21h406v-23l-119 -32l313 -572l305 572l-104 32v23h279v-21l-107 -34l-332 -621v-416l105 -32v-23h-375v20z" />
    <glyph glyph-name="Z.SC" horiz-adv-x="1075" 
d="M94 20l672 1080h-383q-60 0 -97 -10.5t-64 -42t-43 -72t-38 -117.5h-28v289h854v-27l-672 -1073h383q45 0 76 4t56.5 17.5t41.5 28t33 46.5t28 61t29 83h25v-287h-873v20z" />
    <glyph glyph-name="A.titl" horiz-adv-x="1300" 
d="M1018 63l-131 314h-568l-122 -314l133 -36v-27h-342v25l135 38l498 1246h38l541 -1246l133 -38v-25h-448v27zM594 1071l-252 -637h520z" />
    <glyph glyph-name="B.titl" horiz-adv-x="1280" 
d="M244 1227l-115 39v24h530q219 0 328 -84.5t109 -220.5q0 -124 -70.5 -195.5t-185.5 -93.5q49 -6 92 -18.5t87.5 -38t76 -61.5t51.5 -92t20 -126q0 -360 -508 -360h-530v25l115 38v1164zM641 668h-231v-615h239q173 0 255.5 70t82.5 235q0 167 -86 238.5t-260 71.5z
M635 1237h-225v-518h241q129 0 199 72t70 198q0 112 -76.5 180t-208.5 68z" />
    <glyph glyph-name="C.titl" horiz-adv-x="1249" 
d="M723 -18q-287 0 -447.5 179t-160.5 476q0 128 30.5 236.5t86 188t131 135t165.5 83t191 27.5q79 0 151 -19.5t129 -56.5t91 -96.5t34 -133.5q0 -100 -58.5 -157.5t-133.5 -57.5q-20 0 -53 11q90 74 90 207q0 120 -64.5 190t-191.5 70q-197 0 -301.5 -165.5t-104.5 -465.5
q0 -602 432 -602q161 0 273 69.5t162 169.5l40 -20q-25 -43 -53 -78t-71 -71.5t-93.5 -61.5t-121 -41t-152.5 -16z" />
    <glyph glyph-name="D.titl" horiz-adv-x="1349" 
d="M244 1227l-115 39v24h432q325 0 500.5 -178t175.5 -471q0 -297 -176 -469t-500 -172h-432v25l115 38v1164zM547 1237h-137v-1184h137q115 0 202.5 27.5t145.5 76.5t94 124t51 163t15 201q0 111 -14.5 198t-50 162.5t-92.5 125.5t-145.5 78t-205.5 28z" />
    <glyph glyph-name="E.titl" horiz-adv-x="1173" 
d="M244 1227l-115 39v24h903v-305h-28q-15 57 -26 90.5t-26.5 65.5t-32 47.5t-43 28t-58.5 16.5t-79 4h-329v-555h165q33 2 57 6.5t42.5 17.5t29.5 23t23 36.5t18 44.5t19 60h31v-426h-31q-12 39 -17.5 54t-16 41t-19.5 36t-23.5 23.5t-33.5 19.5t-44 9h-6l-194 2v-578h317
q53 0 91 5t67 19.5t47.5 30.5t34.5 49t26 64.5t25 85.5h29v-305h-918v25l115 38v1164z" />
    <glyph glyph-name="F.titl" horiz-adv-x="1093" 
d="M129 25l115 38v1164l-115 39v24h895v-305h-31q-18 69 -31.5 106t-32.5 70t-45 47t-62.5 21.5t-92.5 7.5h-319v-555h170q40 2 67.5 11t44.5 20t31.5 38t22.5 49t22 70h31v-426h-31q-31 101 -58.5 137t-101.5 46l-198 2v-566l114 -36v-27h-395v25z" />
    <glyph glyph-name="G.titl" horiz-adv-x="1329" 
d="M713 1264q-71 0 -130 -24t-100 -63.5t-73 -94t-51 -111t-31 -120.5t-16.5 -116.5t-4.5 -103.5q0 -68 7 -132.5t22.5 -135.5t45 -129t71.5 -106t105 -74.5t142 -26.5q151 0 225 81t74 216v202l-112 39v23h383v-25l-107 -37v-538h-28q-1 5 -3.5 22.5t-4 27t-5 25.5
t-7.5 25.5t-9.5 19.5t-13.5 14.5t-17 4.5q-15 0 -37.5 -15t-52 -36t-67 -42.5t-96.5 -36.5t-128 -15q-139 0 -251.5 54t-182.5 145.5t-107.5 207.5t-37.5 246q0 101 21 195.5t68 182t115 152t169.5 103.5t224.5 39q207 0 328.5 -86t121.5 -215q0 -83 -43.5 -127.5
t-120.5 -44.5q-25 0 -63 10q65 62 65 162q0 125 -77.5 191.5t-210.5 66.5z" />
    <glyph glyph-name="H.titl" horiz-adv-x="1421" 
d="M897 25l115 38v555h-602v-555l114 -36v-27h-395v25l115 38v1164l-115 39v24h395v-26l-114 -37v-555h602v555l-115 39v24h395v-26l-114 -37v-1164l114 -36v-27h-395v25z" />
    <glyph glyph-name="I.titl" horiz-adv-x="653" 
d="M244 1227l-115 39v24h395v-26l-114 -37v-1164l114 -36v-27h-395v25l115 38v1164z" />
    <glyph glyph-name="J.titl" horiz-adv-x="1067" 
d="M430 37q140 0 202 108.5t62 311.5v770l-114 39v24h393v-26l-115 -37v-768q0 -219 -116 -343t-312 -124q-182 0 -279.5 71.5t-97.5 190.5q0 67 40 111.5t106 44.5q19 0 65 -11q-59 -71 -59 -151q0 -33 10 -66.5t33.5 -67.5t70.5 -55.5t111 -21.5z" />
    <glyph glyph-name="K.titl" horiz-adv-x="1267" 
d="M866 1290h373v-24l-168 -39h-4l-424 -453l510 -711l115 -38v-25h-271l-467 653l-120 -129v-461l114 -36v-27h-395v25l115 38v1164l-115 39v24h395v-26l-114 -37v-592l571 598l-115 33v24z" />
    <glyph glyph-name="L.titl" horiz-adv-x="1132" 
d="M129 0v25l115 38v1164l-115 39v24h395v-26l-114 -37v-1176h305q85 0 139.5 16t89.5 55.5t52 96.5t26 150h31v-369h-924z" />
    <glyph glyph-name="M.titl" horiz-adv-x="1740" 
d="M1200 25l131 38v1047l-457 -1110h-112l-449 1110v-1047l133 -36v-27h-335v25l135 38v1164l-135 39v24h307l461 -1124l454 1124h297v-26l-133 -37v-1164l133 -36v-27h-430v25z" />
    <glyph glyph-name="N.titl" horiz-adv-x="1425" 
d="M1155 -18l-836 1140v-1059l134 -36v-27h-342v25l135 38v1164l-117 39v24h277l712 -981v918l-131 39v24h340v-26l-133 -37v-1245h-39z" />
    <glyph glyph-name="O.titl" horiz-adv-x="1398" 
d="M1284 649q0 -194 -72.5 -346t-203.5 -236.5t-299 -84.5q-174 0 -310 84.5t-211 236.5t-75 346q0 142 44 264t121.5 209t189 136t241.5 49q168 0 299 -84t203.5 -234t72.5 -340zM305 649q0 -100 12.5 -187.5t42.5 -167t75.5 -136t115.5 -90t158 -33.5q103 0 179.5 49.5
t120.5 137.5t64.5 194.5t20.5 232.5q0 92 -12.5 176.5t-41.5 163.5t-72 136.5t-109.5 92.5t-149.5 35q-109 0 -190 -52t-126 -140.5t-66.5 -191.5t-21.5 -220z" />
    <glyph glyph-name="P.titl" 
d="M244 1227l-115 39v24h438q531 0 531 -366q0 -83 -28.5 -146t-77 -102.5t-119 -64.5t-146.5 -34.5t-168 -9.5h-149v-504l114 -36v-27h-395v25l115 38v1164zM543 1237h-133v-616h133q204 0 290.5 67t86.5 238t-87 241t-290 70z" />
    <glyph glyph-name="Q.titl" horiz-adv-x="1398" 
d="M1231 -90l20 8q33 -61 33 -119q0 -34 -8.5 -64.5t-27.5 -58.5t-56 -44.5t-88 -16.5q-54 0 -103.5 25t-88 60.5t-76 71t-83.5 60.5t-94 25q-45 0 -72.5 -24.5t-27.5 -61.5q0 -38 41 -72l-25 -14q-18 18 -27 28.5t-17.5 32t-8.5 47.5q0 78 50.5 129t129.5 51
q54 0 103.5 -23.5t87.5 -56.5t75.5 -66.5t82.5 -57t92 -23.5q52 0 79 23t27 65q0 40 -18 76zM1284 649q0 -194 -72.5 -346t-203.5 -236.5t-299 -84.5q-174 0 -310 84.5t-211 236.5t-75 346q0 142 44 264t121.5 209t189 136t241.5 49q168 0 299 -84t203.5 -234t72.5 -340z
M305 649q0 -127 21 -233.5t66.5 -195t126.5 -139t190 -50.5q103 0 179.5 50.5t120.5 139t64.5 195.5t20.5 233q0 92 -12.5 177t-41.5 164.5t-72 138t-109.5 93.5t-149.5 35q-109 0 -190 -52.5t-126 -142t-66.5 -193t-21.5 -220.5z" />
    <glyph glyph-name="R.titl" horiz-adv-x="1273" 
d="M244 1227l-115 39v24h473q498 0 498 -360q0 -147 -81.5 -227.5t-242.5 -104.5l361 -535l114 -38v-25h-262l-387 586h-192v-523l114 -36v-27h-395v25l115 38v1164zM580 1237h-170v-598h170q179 0 260.5 69t81.5 222q0 154 -83 230.5t-259 76.5z" />
    <glyph glyph-name="S.titl" horiz-adv-x="1089" 
d="M549 1262q-119 0 -187.5 -66t-68.5 -166q0 -57 23.5 -103t63.5 -77.5t91.5 -57.5t108.5 -49.5t114 -48t108.5 -57.5t91.5 -73.5t63.5 -100.5t23.5 -135q0 -169 -123.5 -257.5t-318.5 -88.5q-120 0 -216.5 27t-158.5 87t-62 144q0 74 41.5 122t110.5 48q31 0 55 -9
q-53 -53 -53 -149q0 -223 283 -223q144 0 225.5 61t81.5 176q0 61 -23.5 110.5t-63.5 83t-91.5 62t-108.5 53t-114 49.5t-108.5 57t-91.5 71t-63.5 96.5t-23.5 128.5q0 156 109.5 244t281.5 88q167 0 276 -64t109 -190q0 -70 -34 -113t-97 -43q-33 0 -62 10q70 50 70 148
q0 99 -67 152t-195 53z" />
    <glyph glyph-name="T.titl" horiz-adv-x="1169" 
d="M389 25l115 38v1168h-123q-55 0 -93 -8.5t-64 -24t-45.5 -47.5t-32.5 -67t-29 -95h-31v301h997v-301h-30q-16 60 -29 95t-32.5 67t-45 47.5t-63.5 24t-92 8.5h-125v-1168l116 -36v-27h-393v25z" />
    <glyph glyph-name="U.titl" horiz-adv-x="1323" 
d="M1044 1227l-114 39v24h301v-26l-117 -37v-803q0 -209 -113.5 -325.5t-330.5 -116.5q-94 0 -173.5 23.5t-145.5 73t-104 138t-38 207.5v803l-115 39v24h395v-26l-114 -37v-803q0 -74 17.5 -137t54.5 -115.5t103 -82.5t155 -30q167 0 253 101.5t86 263.5v803z" />
    <glyph glyph-name="V.titl" horiz-adv-x="1263" 
d="M301 1227l381 -1000l381 1000l-135 37v26h344v-24l-135 -39l-488 -1250h-26l-500 1250l-131 39v24h442v-26z" />
    <glyph glyph-name="W.titl" horiz-adv-x="1800" 
d="M961 1307l354 -1047l303 967l-119 37v26h305v-24l-121 -39l-397 -1245h-26l-367 1056l-356 -1056h-35l-375 1245l-119 39v24h410v-26l-119 -37l272 -971l355 1051h35z" />
    <glyph glyph-name="X.titl" horiz-adv-x="1247" 
d="M379 0h-373v25l164 36l377 588l-389 578l-117 39v24h418v-26l-115 -37l315 -467l299 471l-120 35v24h356v-24l-152 -39h-2l-342 -527l430 -637l115 -38v-25h-416v27l115 36l-356 527l-332 -529l125 -36v-25z" />
    <glyph glyph-name="Y.titl" horiz-adv-x="1191" 
d="M408 25l116 38v422l-399 742l-115 39v24h424v-26l-129 -37l340 -641l332 641l-115 37v26h301v-24l-114 -39l-361 -695v-469l115 -36v-27h-395v25z" />
    <glyph glyph-name="Z.titl" horiz-adv-x="1134" 
d="M94 25l731 1212h-436q-50 0 -84 -8t-58.5 -23t-42 -47.5t-30.5 -70.5t-29 -103h-30v305h913v-28l-731 -1209h432q47 0 78.5 4t58 17.5t42 28t32.5 48.5t28 64.5t29 89.5h31v-305h-934v25z" />
    <glyph glyph-name="zero.sm" horiz-adv-x="1058" 
d="M965 508q0 -139 -51.5 -256.5t-152.5 -191.5t-231 -74t-231.5 74t-153 191.5t-51.5 256.5q0 100 30.5 191.5t85.5 162t138.5 112.5t181.5 42q130 0 231 -72t152.5 -186.5t51.5 -249.5zM270 508q0 -66 6.5 -128t24.5 -128.5t46 -115t75 -80t108 -31.5q74 0 127 45.5
t80 121.5t39 153.5t12 162.5q0 64 -6.5 125t-25 125t-46 111t-74 77.5t-106.5 30.5q-61 0 -108 -30t-75 -77t-46 -111.5t-24.5 -125t-6.5 -125.5z" />
    <glyph glyph-name="one.sm" horiz-adv-x="593" 
d="M100 877l-4 24l256 117h31v-948l166 -39v-31h-496v29l174 41v823z" />
    <glyph glyph-name="two.sm" horiz-adv-x="901" 
d="M444 1016q150 0 245 -70.5t95 -208.5q0 -74 -28.5 -131t-72.5 -91t-105.5 -66t-119.5 -54.5t-122.5 -56.5t-106.5 -72q-34 -33 -51 -53t-33.5 -58t-21.5 -87q31 47 87.5 77.5t125.5 30.5q65 0 174 -35t158 -35q53 0 77.5 24.5t24.5 59.5q0 28 -16 60l22 8q35 -59 35 -111
q0 -69 -43.5 -117t-136.5 -48q-58 0 -118.5 22t-124.5 44t-130 22q-65 0 -92 -20.5t-43 -63.5h-29q-8 46 -8 71q0 66 19 121t51.5 95t74 74.5t88 63t92.5 57t87.5 60.5t74 67.5t51.5 85t19 107.5q0 195 -199 195q-100 0 -150 -51.5t-50 -140.5q0 -94 80 -152q-19 -8 -54 -8
q-71 0 -113 39t-42 118q0 113 92.5 170.5t236.5 57.5z" />
    <glyph glyph-name="three.sm" horiz-adv-x="901" 
d="M432 1016q159 0 240.5 -66t81.5 -176q0 -95 -54 -155t-139 -72q248 -32 248 -266q0 -295 -383 -295q-157 0 -250.5 53.5t-93.5 159.5q0 70 42 108.5t114 38.5q24 0 57 -8q-57 -61 -57 -141q0 -84 49.5 -130.5t142.5 -46.5q207 0 207 261q0 137 -57 190t-185 53h-53v35h53
q201 0 201 217q0 207 -164 207q-86 0 -127 -48.5t-41 -115.5q0 -70 60 -127q-30 -12 -64 -12q-66 0 -101.5 33.5t-35.5 95.5q0 96 84 151.5t225 55.5z" />
    <glyph glyph-name="four.sm" horiz-adv-x="845" 
d="M37 186v31l493 787h156l-479 -773h321v162h156v-162h94v-45h-94v-137l94 -29v-20h-344v18l94 31v137h-491z" />
    <glyph glyph-name="five.sm" horiz-adv-x="874" 
d="M414 20q209 0 209 269q0 148 -64.5 208t-193.5 60q-79 0 -207 -33l41 480h14q71 -4 205 -27t176 -23t65 9.5t23 37.5q0 19 -23 54l15 8q36 -41 51.5 -68.5t15.5 -58.5q0 -55 -38 -85t-109 -30q-89 0 -187 29t-180 72l-28 -334q107 28 211 28q79 0 145 -17.5t121 -54
t86 -102t31 -153.5q0 -150 -102.5 -226.5t-276.5 -76.5q-164 0 -253 52.5t-89 154.5q0 61 33.5 100t91.5 39q29 0 65 -10q-53 -58 -53 -132q0 -75 49.5 -122.5t155.5 -47.5z" />
    <glyph glyph-name="six.sm" horiz-adv-x="942" 
d="M508 983q-76 0 -124.5 -39.5t-79 -142.5t-38.5 -279q97 92 242 92q51 0 98 -9.5t91.5 -32t77 -56t52 -85t19.5 -114.5q0 -150 -97.5 -240.5t-261.5 -90.5q-88 0 -156.5 24t-122 78t-82 148.5t-28.5 226.5q0 123 25.5 221t66 159t95.5 101t110 56t113 16q135 0 216 -53
t81 -142q0 -60 -33 -99.5t-92 -39.5q-31 0 -51 10q45 51 45 131q0 72 -38.5 116t-127.5 44zM264 377q0 -359 219 -359q60 0 102 29.5t61.5 77.5t27.5 92.5t8 91.5q0 38 -5 72.5t-19.5 70.5t-37 62.5t-60 43.5t-85.5 17q-110 0 -211 -96v-102z" />
    <glyph glyph-name="seven.sm" horiz-adv-x="798" 
d="M111 754l-23 -11q-37 53 -37 115q0 66 42 112t132 46q57 0 117 -24t123.5 -48t128.5 -24q60 0 86.5 24t40.5 70h27v-62q0 -83 -20 -153t-52.5 -121t-72 -98t-78.5 -96t-71.5 -103.5t-52.5 -132t-20 -170.5q0 -42 -22.5 -63t-57.5 -21q-34 0 -57 20t-23 60
q0 99 24.5 179.5t64.5 135t89 100.5t99.5 88t94.5 86t76.5 105t41.5 135q-30 -44 -81 -72t-118 -28q-52 0 -113 24t-118 48t-99 24q-47 0 -67.5 -24.5t-20.5 -59.5q0 -27 17 -61z" />
    <glyph glyph-name="eight.sm" horiz-adv-x="944" 
d="M793 784q0 -90 -52.5 -147t-144.5 -80q258 -45 258 -291q0 -140 -103 -210t-278 -70t-279 71t-104 209q0 250 260 291q-94 22 -146 79.5t-52 147.5q0 110 88.5 172t232.5 62q143 0 231.5 -62t88.5 -172zM256 266q0 -109 53 -178.5t164 -69.5q110 0 163.5 69.5t53.5 178.5
q0 55 -12.5 102.5t-37.5 86.5t-68 61.5t-99 22.5q-57 0 -100 -22.5t-68 -61.5t-37 -86.5t-12 -102.5zM301 784q0 -213 172 -213q170 0 170 213q0 201 -170 201q-172 0 -172 -201z" />
    <glyph glyph-name="nine.sm" horiz-adv-x="935" 
d="M420 20q129 0 186 99.5t62 331.5q-108 -64 -224 -64q-70 0 -130 16t-109 49t-77 90.5t-28 133.5q0 150 99 245t270 95q367 0 367 -496q0 -140 -32 -245t-90 -167t-131.5 -92t-162.5 -30q-144 0 -223.5 46t-79.5 136q0 59 33.5 96t91.5 37q9 0 63 -8q-41 -51 -41 -119
q0 -63 37 -108.5t119 -45.5zM670 510q0 243 -46.5 358t-158.5 115q-46 0 -82.5 -20.5t-57.5 -51.5t-34.5 -72t-18 -78t-4.5 -75q0 -121 50 -192.5t145 -71.5q116 0 207 70v18z" />
    <glyph glyph-name="zero.denominator" horiz-adv-x="1058" 
d="M965 508q0 -139 -51.5 -256.5t-152.5 -191.5t-231 -74t-231.5 74t-153 191.5t-51.5 256.5q0 100 30.5 191.5t85.5 162t138.5 112.5t181.5 42q130 0 231 -72t152.5 -186.5t51.5 -249.5zM270 508q0 -66 6.5 -128t24.5 -128.5t46 -115t75 -80t108 -31.5q74 0 127 45.5
t80 121.5t39 153.5t12 162.5q0 64 -6.5 125t-25 125t-46 111t-74 77.5t-106.5 30.5q-61 0 -108 -30t-75 -77t-46 -111.5t-24.5 -125t-6.5 -125.5z" />
    <glyph glyph-name="one.denominator" horiz-adv-x="593" 
d="M100 877l-4 24l256 117h31v-948l166 -39v-31h-496v29l174 41v823z" />
    <glyph glyph-name="two.denominator" horiz-adv-x="901" 
d="M444 1016q150 0 245 -70.5t95 -208.5q0 -74 -28.5 -131t-72.5 -91t-105.5 -66t-119.5 -54.5t-122.5 -56.5t-106.5 -72q-34 -33 -51 -53t-33.5 -58t-21.5 -87q31 47 87.5 77.5t125.5 30.5q65 0 174 -35t158 -35q53 0 77.5 24.5t24.5 59.5q0 28 -16 60l22 8q35 -59 35 -111
q0 -69 -43.5 -117t-136.5 -48q-58 0 -118.5 22t-124.5 44t-130 22q-65 0 -92 -20.5t-43 -63.5h-29q-8 46 -8 71q0 66 19 121t51.5 95t74 74.5t88 63t92.5 57t87.5 60.5t74 67.5t51.5 85t19 107.5q0 195 -199 195q-100 0 -150 -51.5t-50 -140.5q0 -94 80 -152q-19 -8 -54 -8
q-71 0 -113 39t-42 118q0 113 92.5 170.5t236.5 57.5z" />
    <glyph glyph-name="three.denominator" horiz-adv-x="901" 
d="M432 1016q159 0 240.5 -66t81.5 -176q0 -95 -54 -155t-139 -72q248 -32 248 -266q0 -295 -383 -295q-157 0 -250.5 53.5t-93.5 159.5q0 70 42 108.5t114 38.5q24 0 57 -8q-57 -61 -57 -141q0 -84 49.5 -130.5t142.5 -46.5q207 0 207 261q0 137 -57 190t-185 53h-53v35h53
q201 0 201 217q0 207 -164 207q-86 0 -127 -48.5t-41 -115.5q0 -70 60 -127q-30 -12 -64 -12q-66 0 -101.5 33.5t-35.5 95.5q0 96 84 151.5t225 55.5z" />
    <glyph glyph-name="four.denominator" horiz-adv-x="845" 
d="M37 186v31l493 787h156l-479 -773h321v162h156v-162h94v-45h-94v-137l94 -29v-20h-344v18l94 31v137h-491z" />
    <glyph glyph-name="five.denominator" horiz-adv-x="874" 
d="M414 20q209 0 209 269q0 148 -64.5 208t-193.5 60q-79 0 -207 -33l41 480h14q71 -4 205 -27t176 -23t65 9.5t23 37.5q0 19 -23 54l15 8q36 -41 51.5 -68.5t15.5 -58.5q0 -55 -38 -85t-109 -30q-89 0 -187 29t-180 72l-28 -334q107 28 211 28q79 0 145 -17.5t121 -54
t86 -102t31 -153.5q0 -150 -102.5 -226.5t-276.5 -76.5q-164 0 -253 52.5t-89 154.5q0 61 33.5 100t91.5 39q29 0 65 -10q-53 -58 -53 -132q0 -75 49.5 -122.5t155.5 -47.5z" />
    <glyph glyph-name="six.denominator" horiz-adv-x="942" 
d="M508 983q-76 0 -124.5 -39.5t-79 -142.5t-38.5 -279q97 92 242 92q51 0 98 -9.5t91.5 -32t77 -56t52 -85t19.5 -114.5q0 -150 -97.5 -240.5t-261.5 -90.5q-88 0 -156.5 24t-122 78t-82 148.5t-28.5 226.5q0 123 25.5 221t66 159t95.5 101t110 56t113 16q135 0 216 -53
t81 -142q0 -60 -33 -99.5t-92 -39.5q-31 0 -51 10q45 51 45 131q0 72 -38.5 116t-127.5 44zM264 377q0 -359 219 -359q60 0 102 29.5t61.5 77.5t27.5 92.5t8 91.5q0 38 -5 72.5t-19.5 70.5t-37 62.5t-60 43.5t-85.5 17q-110 0 -211 -96v-102z" />
    <glyph glyph-name="seven.denominator" horiz-adv-x="798" 
d="M111 754l-23 -11q-37 53 -37 115q0 66 42 112t132 46q57 0 117 -24t123.5 -48t128.5 -24q60 0 86.5 24t40.5 70h27v-62q0 -83 -20 -153t-52.5 -121t-72 -98t-78.5 -96t-71.5 -103.5t-52.5 -132t-20 -170.5q0 -42 -22.5 -63t-57.5 -21q-34 0 -57 20t-23 60
q0 99 24.5 179.5t64.5 135t89 100.5t99.5 88t94.5 86t76.5 105t41.5 135q-30 -44 -81 -72t-118 -28q-52 0 -113 24t-118 48t-99 24q-47 0 -67.5 -24.5t-20.5 -59.5q0 -27 17 -61z" />
    <glyph glyph-name="eight.denominator" horiz-adv-x="944" 
d="M793 784q0 -90 -52.5 -147t-144.5 -80q258 -45 258 -291q0 -140 -103 -210t-278 -70t-279 71t-104 209q0 250 260 291q-94 22 -146 79.5t-52 147.5q0 110 88.5 172t232.5 62q143 0 231.5 -62t88.5 -172zM256 266q0 -109 53 -178.5t164 -69.5q110 0 163.5 69.5t53.5 178.5
q0 55 -12.5 102.5t-37.5 86.5t-68 61.5t-99 22.5q-57 0 -100 -22.5t-68 -61.5t-37 -86.5t-12 -102.5zM301 784q0 -213 172 -213q170 0 170 213q0 201 -170 201q-172 0 -172 -201z" />
    <glyph glyph-name="nine.denominator" horiz-adv-x="935" 
d="M420 20q129 0 186 99.5t62 331.5q-108 -64 -224 -64q-70 0 -130 16t-109 49t-77 90.5t-28 133.5q0 150 99 245t270 95q367 0 367 -496q0 -140 -32 -245t-90 -167t-131.5 -92t-162.5 -30q-144 0 -223.5 46t-79.5 136q0 59 33.5 96t91.5 37q9 0 63 -8q-41 -51 -41 -119
q0 -63 37 -108.5t119 -45.5zM670 510q0 243 -46.5 358t-158.5 115q-46 0 -82.5 -20.5t-57.5 -51.5t-34.5 -72t-18 -78t-4.5 -75q0 -121 50 -192.5t145 -71.5q116 0 207 70v18z" />
    <glyph glyph-name="zero.numerator" horiz-adv-x="1058" 
d="M965 938q0 -139 -51.5 -256.5t-152.5 -191.5t-231 -74t-231.5 74t-153 191.5t-51.5 256.5q0 100 30.5 191.5t85.5 162t138.5 112.5t181.5 42q130 0 231 -72t152.5 -186.5t51.5 -249.5zM270 938q0 -66 6.5 -128t24.5 -128.5t46 -115t75 -80t108 -31.5q74 0 127 45.5
t80 121.5t39 153.5t12 162.5q0 64 -6.5 125t-25 125t-46 111t-74 77.5t-106.5 30.5q-61 0 -108 -30t-75 -77t-46 -111.5t-24.5 -125t-6.5 -125.5z" />
    <glyph glyph-name="one.numerator" horiz-adv-x="593" 
d="M100 1307l-4 24l256 117h31v-948l166 -39v-31h-496v29l174 41v823z" />
    <glyph glyph-name="two.numerator" horiz-adv-x="901" 
d="M444 1446q150 0 245 -70.5t95 -208.5q0 -74 -28.5 -131t-72.5 -91t-105.5 -66t-119.5 -54.5t-122.5 -56.5t-106.5 -72q-34 -33 -51 -53t-33.5 -58t-21.5 -87q31 47 87.5 77.5t125.5 30.5q65 0 174 -34.5t158 -34.5q53 0 77.5 24.5t24.5 59.5q0 27 -16 59l22 8
q35 -59 35 -110q0 -70 -44 -118t-136 -48q-58 0 -118.5 22t-124.5 44t-130 22q-65 0 -92 -20.5t-43 -63.5h-29q-8 46 -8 71q0 66 19 121t51.5 95t74 74.5t88 63.5t92.5 57t87.5 60t74 68t51.5 85.5t19 107.5q0 194 -199 194q-100 0 -150 -51.5t-50 -140.5q0 -94 80 -152
q-19 -8 -54 -8q-71 0 -113 39.5t-42 118.5q0 113 92.5 170t236.5 57z" />
    <glyph glyph-name="three.numerator" horiz-adv-x="901" 
d="M432 1446q159 0 240.5 -66t81.5 -176q0 -95 -54 -155t-139 -72q248 -32 248 -266q0 -295 -383 -295q-157 0 -250.5 53.5t-93.5 159.5q0 70 42 108.5t114 38.5q24 0 57 -8q-57 -61 -57 -141q0 -84 49.5 -130t142.5 -46q207 0 207 260q0 137 -57 190t-185 53h-53v35h53
q201 0 201 217q0 207 -164 207q-86 0 -127 -48.5t-41 -115.5q0 -70 60 -127q-30 -12 -64 -12q-66 0 -101.5 33.5t-35.5 95.5q0 96 84 151.5t225 55.5z" />
    <glyph glyph-name="four.numerator" horiz-adv-x="845" 
d="M37 616v31l493 787h156l-479 -772h321v161h156v-161h94v-46h-94v-137l94 -28v-21h-344v19l94 30v137h-491z" />
    <glyph glyph-name="five.numerator" horiz-adv-x="874" 
d="M414 451q209 0 209 268q0 148 -64.5 208t-193.5 60q-79 0 -207 -33l41 480h14q71 -4 205 -27t176 -23q88 0 88 48q0 18 -23 53l15 8q36 -41 51.5 -68.5t15.5 -58.5q0 -55 -38 -85t-109 -30q-89 0 -187 29t-180 72l-28 -334q111 29 211 29q79 0 145.5 -17.5t121 -54.5
t85.5 -102.5t31 -153.5q0 -150 -102.5 -226.5t-276.5 -76.5q-164 0 -253 52.5t-89 154.5q0 61 33.5 100t91.5 39q29 0 65 -10q-53 -58 -53 -131q0 -75 49.5 -122.5t155.5 -47.5z" />
    <glyph glyph-name="six.numerator" horiz-adv-x="942" 
d="M508 1413q-76 0 -124.5 -39.5t-79 -142.5t-38.5 -279q97 92 242 92q65 0 122.5 -16t107.5 -49.5t79 -92.5t29 -138q0 -150 -97.5 -241t-261.5 -91q-88 0 -156.5 24t-122 78t-82 148.5t-28.5 226.5q0 123 25.5 221t66 159t95.5 101t110 56t113 16q135 0 216 -53t81 -142
q0 -60 -33 -99.5t-92 -39.5q-31 0 -51 10q45 51 45 131q0 72 -38.5 116t-127.5 44zM264 807q0 -358 219 -358q60 0 102 29t61.5 77.5t27.5 92.5t8 91q0 38 -5 72.5t-19.5 71t-37 63t-60 43.5t-85.5 17q-109 0 -211 -97v-102z" />
    <glyph glyph-name="seven.numerator" horiz-adv-x="798" 
d="M111 1184l-23 -10q-37 53 -37 114q0 66 42 112t132 46q57 0 117 -24t123.5 -48t128.5 -24q60 0 86.5 24t40.5 70h27v-62q0 -83 -20 -153t-52.5 -121t-72 -98t-78.5 -96t-71.5 -103.5t-52.5 -132t-20 -170.5q0 -42 -22.5 -63t-57.5 -21q-34 0 -57 20t-23 60
q0 99 24.5 179.5t64.5 135t89 100.5t99.5 88t94.5 86t76.5 105t41.5 135q-30 -44 -81 -72t-118 -28q-52 0 -113 24t-118 48t-99 24q-47 0 -67.5 -24.5t-20.5 -59.5q0 -27 17 -61z" />
    <glyph glyph-name="eight.numerator" horiz-adv-x="944" 
d="M793 1214q0 -90 -52.5 -147t-144.5 -80q258 -45 258 -291q0 -140 -103 -210t-278 -70t-279 71t-104 209q0 250 260 291q-94 22 -146 79.5t-52 147.5q0 110 88.5 172t232.5 62q143 0 231.5 -62t88.5 -172zM256 696q0 -109 53 -178t164 -69q110 0 163.5 69.5t53.5 177.5
q0 55 -12.5 102.5t-37.5 86.5t-68 61.5t-99 22.5q-57 0 -100 -22.5t-68 -61.5t-37 -86.5t-12 -102.5zM301 1214q0 -213 172 -213q170 0 170 213q0 201 -170 201q-172 0 -172 -201z" />
    <glyph glyph-name="nine.numerator" horiz-adv-x="935" 
d="M420 451q129 0 186.5 99t61.5 331q-108 -64 -224 -64q-70 0 -130 16t-109 49t-77 90.5t-28 133.5q0 150 99 245t270 95q367 0 367 -496q0 -140 -32 -245t-90 -167t-131.5 -92t-162.5 -30q-144 0 -223.5 46t-79.5 136q0 59 33.5 96t91.5 37q9 0 63 -8q-41 -51 -41 -119
q0 -63 37 -108t119 -45zM670 940q0 243 -46.5 358t-158.5 115q-46 0 -82.5 -20.5t-57.5 -51.5t-34.5 -72t-18 -78t-4.5 -75q0 -121 50 -192.5t145 -71.5q116 0 207 70v18z" />
    <glyph glyph-name="four.2" horiz-adv-x="1060" 
d="M707 1362q0 46 23.5 68t60.5 22q81 0 81 -88q0 -118 -37 -214.5t-97 -162.5t-132 -123.5t-144.5 -111t-132.5 -110t-98.5 -135.5t-40.5 -175h498v262h166v-262h125v-66h-125v-196l125 -41v-29h-416v27l125 43v196h-536v92q0 92 30.5 170t79.5 136t108.5 112.5t118.5 112
t108 121.5t79.5 154.5t30.5 197.5z" />
    <glyph glyph-name="four.3" horiz-adv-x="1046" 
d="M43 283v24l768 1147h31v-1106h192v-65h-192v-213l145 -41v-29h-473v27l162 43v213h-633zM145 348h531v795z" />
    <glyph glyph-name="four.orig" horiz-adv-x="1060" 
d="M39 266v45l657 1123h172l-635 -1102h455v229h166v-229h125v-66h-125v-196l125 -41v-29h-416v27l125 43v196h-649z" />
    <glyph glyph-name="W.p" horiz-adv-x="1988" 
d="M1053 1450l395 -1176l334 1088l-131 41v29h338v-27l-136 -43l-434 -1382h-26l-406 1194l-395 -1194h-39l-408 1382l-131 43v27h437v-29l-134 -41l304 -1096l393 1184h39z" />
    <glyph glyph-name="w.p" horiz-adv-x="1689" 
d="M311 909l256 -710l318 802h28l306 -808l245 716l-145 41v29h373v-27l-162 -43l-336 -929h-41l-305 788l-313 -788h-35l-350 929l-146 43v27h453v-29z" />
    <glyph glyph-name="f_l" horiz-adv-x="1185" 
d="M590 1491q-107 0 -168.5 -90t-61.5 -271v-147h222v-53h-222v-860l125 -41v-29h-401v27l125 43v860h-125v53h125v111q0 213 98 327.5t283 114.5q114 0 182 -47v47h154v-1466l125 -41v-29h-404v27l125 43v1087h-12q-44 0 -60 6q67 38 72 117v25q-3 77 -48.5 131.5
t-133.5 54.5z" />
    <glyph glyph-name="f.b_dotlessi" horiz-adv-x="1216" 
d="M631 1487q-126 0 -198.5 -103.5t-72.5 -322.5v-82h572v-909l125 -41v-29h-404v27l125 43v839l-41 17h-377v-856l166 -41v-29h-442v27l125 43v856h-125v53h125v78q0 228 111.5 353.5t310.5 125.5q142 0 217.5 -66.5t75.5 -166.5q0 -109 -86 -109q-37 0 -59.5 22.5
t-22.5 59.5q0 31 25.5 58t25.5 50q0 43 -49.5 73t-126.5 30z" />
    <glyph glyph-name="q.a" horiz-adv-x="1202" 
d="M870 -362v555q-46 -105 -123.5 -159t-207.5 -54q-187 0 -310 142t-123 382q0 111 30 199t77 142.5t111 91t127 50.5t129 14q33 0 65 -3t63.5 -11.5t55.5 -15t54.5 -21t47.5 -22t46.5 -26t39.5 -24t39.5 -25.5t32.5 -22v-1193l123 -41v-29h-399v29zM575 37
q148 0 221.5 123t73.5 346q0 446 -295 446q-128 0 -210 -114.5t-82 -329.5q0 -220 75 -345.5t217 -125.5z" />
    <glyph glyph-name="q.a2" horiz-adv-x="1202" 
d="M870 -362v555q-46 -105 -123.5 -159t-207.5 -54q-187 0 -310 142t-123 382q0 111 30 199t77 142.5t111 91t127 50.5t129 14q57 0 104.5 -13t83.5 -38.5t56.5 -45.5t45.5 -50v125h279v-29l-125 -41v-1271l123 -41v-29h-399v29zM575 37q148 0 221.5 123t73.5 346
q0 219 -77.5 332.5t-212.5 113.5q-131 0 -214 -116t-83 -332q0 -217 75 -342t217 -125z" />
    <glyph glyph-name="Aogonek.SC" horiz-adv-x="1210" 
d="M1030 -410q-108 0 -164.5 35t-56.5 96q0 37 19.5 66.5t48 51t57 42.5t50 51.5t24.5 67.5h-195v23l123 32l-123 275h-520l-113 -275l127 -32v-23h-319v20l123 35l467 1108h34l506 -1108l123 -35v-20h-205v-29q-1 -48 -23.5 -90.5t-44.5 -83t-22 -84.5q0 -43 24.5 -65.5
t59.5 -22.5q37 0 62.5 22t25.5 62q0 51 -37 88q21 8 45 8q46 0 69.5 -25t23.5 -61q0 -57 -54.5 -93t-134.5 -36zM545 936l-230 -553h476z" />
    </font>
</defs>
</svg>
